<svg viewBox="0 0 214 221" fill="none" xmlns="http://www.w3.org/2000/svg">
<path d="M80.9545 203.095C69.68 207.08 58.2889 208.902 46.1244 206.541C32.5658 203.909 20.7745 192.214 14.0954 180.567C11.6138 176.24 9.63355 171.409 9.87385 166.437C10.4332 154.952 21.223 153.703 30.3916 155.59C35.5599 156.651 40.3102 159.044 45.0065 161.415C52.8036 165.353 61.941 167.306 68.9377 172.753C71.2854 174.586 73.0513 176.784 75.7768 178.121C80.0166 180.202 84.8515 181.193 89.2052 183.089C92.9225 184.715 97.0804 187.384 97.0992 191.448C97.1136 195.617 92.7968 198.259 89.0016 199.907C86.3152 201.081 83.6403 202.15 80.9545 203.095Z" fill="url(#paint0_linear_1126_90)"/>
<path d="M39.3666 54.9404C57.7603 27.5971 95.9456 16.7157 126.961 27.1163C141.916 32.1341 154.471 42.5237 166.054 53.3045C176.264 62.8063 186.173 73.0514 193.164 85.2471C197.938 93.5717 201.368 103.543 203.797 112.85C207.43 126.785 204.232 144.715 186.335 143.344C182.136 143.023 178.499 141.493 174.569 140.152C171.389 139.065 168.279 139.701 164.98 139.164C156.676 137.816 148.671 134.717 141.098 131.093C125.666 123.7 111.554 113.678 95.6873 107.192C82.684 101.884 68.8074 99.1206 54.8056 99.0512C48.8986 99.0228 42.689 99.419 37.3962 96.7453C24.3511 90.1494 30.1495 72.4932 34.9806 62.566C36.2605 59.9216 37.7262 57.3734 39.3666 54.9404V54.9404Z" fill="url(#paint1_linear_1126_90)"/>
<path d="M184.56 59.4575C187.61 62.2358 199.582 69.832 199.783 60.963C199.83 58.7535 198.826 56.6048 197.464 54.9823C195.905 53.12 194.142 52.1401 192.923 49.9724C191.431 47.3549 189.734 44.8939 187.855 42.6213C184.013 37.8913 179.532 33.5181 174.105 31.5587C170.298 30.186 163.863 30.5079 162.073 35.4002C159.465 42.5221 170.719 43.8642 174.159 46.4736C177.423 48.9434 179.281 53.1755 181.871 56.5424C182.69 57.604 183.59 58.5799 184.56 59.4575V59.4575Z" fill="url(#paint2_linear_1126_90)"/>
<path d="M127.854 50.5843C134.31 54.4203 139.163 60.147 145.053 64.7654C154.859 72.4533 168.27 74.0622 179.504 79.4226C190.959 84.8917 199.623 93.3624 203.568 105.544C208.664 121.268 209.205 139.949 204.973 156.084C200.311 173.845 189.266 185.617 173.087 193.44C156.916 201.258 138.986 204.874 121.094 205.575C119.367 205.644 117.644 205.679 115.913 205.685C77.0386 205.789 25.2482 191.862 11.8745 149.817C11.7519 149.433 11.6344 149.049 11.5165 148.659C10.1373 143.975 9.31952 139.146 9.08064 134.274C8.19128 117.002 11.1336 97.9498 17.1001 81.7795C21.113 70.8931 29.8011 61.7048 38.9664 55.1674C51.8437 45.9832 67.5851 43.6788 83.2565 42.6215C94.861 41.8392 107.915 41.5812 118.906 46.0815C121.995 47.3561 124.986 48.8613 127.854 50.5843Z" fill="url(#paint3_linear_1126_90)"/>
<path d="M155.283 201.671C105.335 216.195 63.7108 202.19 49.1425 193.372L35.6147 182.998L40.2974 175.218L69.4341 172.625L117.822 170.031L156.844 177.812L197.427 164.326H200.359C194.115 185.488 168.117 198.041 155.283 201.671Z" fill="#FB4C47"/>
<path d="M151.146 98.4271C151.146 98.4271 190.66 100.223 200.18 141.713C207.723 195.238 172.164 176.308 163.662 173.67C155.162 171.032 124.853 102.523 151.146 98.4271Z" fill="#D9423D"/>
<path d="M52.0262 181.877H172.722C172.722 181.877 176.948 112.481 161.571 102.326C146.197 92.1734 74.2921 94.2936 58.3555 102.966C42.4189 111.64 52.0262 181.877 52.0262 181.877Z" fill="#FB4C47"/>
<path d="M70.4863 92.5927C70.35 92.5927 70.2115 92.557 70.0857 92.4815C69.7166 92.2655 61.0908 86.9764 63.316 73.3655C64.094 68.6049 65.0419 65.1739 65.8787 62.1434C67.3845 56.6907 68.473 52.7501 67.5942 44.8122C67.5481 44.3801 67.8585 43.9922 68.2905 43.9439C68.7204 43.9167 69.1105 44.2082 69.1587 44.6402C70.071 52.878 68.8882 57.1521 67.395 62.5629C66.5687 65.5514 65.6334 68.9425 64.8679 73.6193C62.8147 86.1815 70.805 91.0806 70.8868 91.1309C71.2601 91.3511 71.3839 91.8335 71.1616 92.2068C71.0169 92.4563 70.7547 92.5927 70.4863 92.5927Z" fill="#000C3E"/>
<path d="M101.273 8.76427C101.886 14.1813 97.989 19.0678 92.5719 19.6802C87.1548 20.2926 82.2684 16.396 81.656 10.9789C81.0457 5.56184 84.9402 0.675371 90.3573 0.0629892C95.7743 -0.547296 100.661 3.3472 101.273 8.76427Z" fill="#000C3E"/>
<path d="M69.1566 88.9241C69.1566 88.9241 72.9106 94.3957 84.9192 94.7081C96.9256 95.0185 105.463 89.4022 114.985 91.3128C124.504 93.2233 136.902 86.9884 138.914 82.8044C140.927 78.6226 134.04 36.6996 125.859 30.731C117.677 24.7624 79.4958 24.517 72.659 33.9796C65.8221 43.4421 63.3159 84.9687 69.1566 88.9241Z" fill="#000C3E"/>
<path d="M131.661 45.5898C133.676 63.4412 120.839 79.5477 102.988 81.5631C85.1366 83.5785 69.0301 70.7415 67.0147 52.8902C64.9993 35.0388 77.8362 18.9323 95.6876 16.9169C113.539 14.9015 129.645 27.7385 131.661 45.5898Z" fill="#000C3E"/>
<path d="M116.775 75.3443C116.775 75.3443 122.645 100.077 120.978 103.176C119.311 106.274 105.775 106.184 102.193 106.014C98.6093 105.842 93.1188 78.9179 95.2055 78.6012C97.2922 78.2867 115.532 69.8203 116.775 75.3443Z" fill="#FFCEB0"/>
<path d="M72.8952 51.9991C72.8952 51.9991 80.1137 90.8413 106.763 88.5386C133.414 86.238 125.078 31.2348 114.736 27.4472C104.395 23.6576 64.6804 30.658 72.8952 51.9991Z" fill="#FFCEB0"/>
<path d="M101.259 56.2636C101.259 56.2636 108.115 67.5193 106.938 68.5112C105.762 69.5032 101.943 69.9331 100.787 69.2054C99.6315 68.4756 98.9939 55.2297 101.259 56.2636Z" fill="#EE9B68"/>
<path d="M90.5332 28.041C90.5332 28.041 81.7606 34.0474 81.2573 42.9122C80.7539 51.775 85.0091 73.6341 74.8293 74.1395C74.8293 74.1395 48.8367 33.5336 90.5332 28.041" fill="#000C3E"/>
<path d="M95.5507 27.4737C94.7852 28.2182 105.397 26.5887 112.58 33.0313C119.761 39.4739 123.98 57.6461 124.97 57.8453C125.962 58.0445 126.216 34.3483 118.513 28.4048C110.808 22.4614 99.9087 23.2373 95.5507 27.4737Z" fill="#000C3E"/>
<path d="M96.7596 86.4103C96.7596 86.4103 107.91 90.699 117.75 83.6315C117.75 83.6315 119.569 90.0615 118.967 91.6973C118.367 93.3352 101.642 96.9655 97.1916 90.0174C97.1916 90.0174 95.7508 86.232 96.7596 86.4103Z" fill="#EE9B68"/>
<path d="M122.931 59.7569C122.931 59.7569 123.982 49.6022 128.915 52.4146C133.849 55.2269 131.402 66.0443 127.187 67.6277C122.969 69.2132 121.285 65.1593 122.931 59.7569Z" fill="#FFCEB0"/>
<path d="M81.0656 64.4844C81.0656 64.4844 77.7771 54.8184 73.5953 58.6604C69.4135 62.5025 74.2098 72.5019 78.6727 73.1059C83.1376 73.7099 83.8737 69.3834 81.0656 64.4844Z" fill="#FFCEB0"/>
<path d="M110.219 49.2919C110.219 49.2919 114.155 45.6889 117.876 48.4153C121.145 50.8124 114.852 49.8225 112.874 50.76C110.898 51.6974 108.105 52.2427 110.219 49.2919Z" fill="#41294A"/>
<path d="M92.0598 52.7456C92.0598 52.7456 87.3767 50.1849 84.4155 53.7187C81.8108 56.8267 87.6871 54.3646 89.8304 54.8029C91.9738 55.2433 94.8155 55.107 92.0598 52.7456Z" fill="#41294A"/>
<path d="M91.5964 56.2358C91.3091 56.2358 91.0218 56.2526 90.7303 56.284C86.5422 56.7601 83.518 60.5539 83.9899 64.7399C84.4617 68.8924 88.222 71.9564 92.4416 71.4782C94.4717 71.2475 96.2899 70.243 97.5629 68.647C98.8359 67.049 99.4106 65.0524 99.182 63.0244C98.7437 59.1551 95.4846 56.2358 91.5964 56.2358ZM91.5754 72.5751C87.1545 72.5751 83.4446 69.2573 82.9497 64.8574C82.4107 60.0967 85.8501 55.7828 90.6107 55.2438C95.4553 54.6797 99.6895 58.1841 100.222 62.907C100.484 65.2139 99.83 67.4852 98.3829 69.2992C96.9359 71.1154 94.868 72.2584 92.5611 72.5184C92.2298 72.5562 91.9005 72.5751 91.5754 72.5751Z" fill="#FFFCF6"/>
<path d="M112.862 51.7936C112.573 51.7936 112.286 51.8103 111.992 51.8418C109.962 52.0725 108.144 53.077 106.873 54.673C105.598 56.2711 105.025 58.2676 105.252 60.2956C105.723 64.4502 109.484 67.51 113.703 67.0339C115.733 66.8032 117.552 65.7987 118.825 64.2027C120.098 62.6046 120.672 60.6081 120.444 58.5801C120.005 54.7129 116.748 51.7936 112.862 51.7936ZM112.833 68.1307C108.414 68.1307 104.706 64.813 104.211 60.413C103.949 58.1061 104.604 55.8349 106.051 54.0208C107.498 52.2046 109.568 51.0616 111.872 50.8016C116.688 50.2416 120.951 53.7377 121.484 58.4627C121.746 60.7696 121.092 63.0408 119.645 64.857C118.198 66.6711 116.13 67.8141 113.823 68.0741C113.491 68.1119 113.162 68.1307 112.833 68.1307Z" fill="#FFFCF6"/>
<path d="M83.4604 63.5614C83.4206 63.5614 83.3828 63.5572 83.343 63.5467L80.0126 62.7812C79.7316 62.7183 79.5554 62.4352 79.6204 62.1542C79.6854 61.8711 79.9728 61.6886 80.2475 61.762L83.5778 62.5275C83.8589 62.5904 84.035 62.8735 83.97 63.1545C83.9155 63.3978 83.6995 63.5614 83.4604 63.5614Z" fill="#FFFCF6"/>
<path d="M120.291 56.598C120.092 56.598 119.901 56.4827 119.813 56.2918C119.693 56.0297 119.811 55.7172 120.073 55.5956L124.253 53.6871C124.506 53.5655 124.825 53.6808 124.947 53.9472C125.066 54.2093 124.951 54.5218 124.687 54.6413L120.509 56.5519C120.438 56.5833 120.365 56.598 120.291 56.598Z" fill="#FFFCF6"/>
<path d="M93.4262 25.5074C93.4262 25.5074 97.8136 46.4899 103.935 47.5301C110.059 48.5703 124.322 45.8775 124.664 43.4573C125.006 41.0392 110.38 24.1966 101.452 22.4895C85.7945 19.4968 76.613 45.6048 79.1884 51.1729C81.7658 56.7431 93.7702 49.7153 96.3812 48.5556C98.9943 47.3937 93.5143 29.7731 93.4262 25.5074Z" fill="#000C3E"/>
<path d="M99.6368 63.035C99.3977 63.035 99.1817 62.8715 99.1271 62.6303C99.0621 62.3472 99.2362 62.0661 99.5172 62.0011L104.775 60.7805C105.068 60.705 105.341 60.8917 105.404 61.1706C105.469 61.4537 105.295 61.7348 105.012 61.7998L99.7563 63.0204C99.7144 63.0308 99.6766 63.035 99.6368 63.035Z" fill="#FFFCF6"/>
<path d="M86.7253 20.5687C86.6414 20.5687 86.5575 20.5561 86.4737 20.5268C83.3971 19.4845 81.3858 17.6914 80.4945 15.1915C78.54 9.70314 82.7574 2.86837 82.9399 2.57896C83.1706 2.20985 83.6529 2.0966 84.0241 2.33149C84.3911 2.56008 84.5023 3.04663 84.2737 3.41364C84.2338 3.47866 80.2764 9.90028 81.9773 14.6672C82.6987 16.6868 84.3827 18.159 86.977 19.0378C87.388 19.1762 87.6103 19.6229 87.4698 20.0339C87.3608 20.3611 87.0525 20.5687 86.7253 20.5687Z" fill="#000C3E"/>
<path d="M98.2435 20.6073C98.0589 20.6073 97.8723 20.5423 97.7234 20.4102C97.3983 20.1228 97.3669 19.6258 97.6542 19.3007C97.7045 19.2441 102.662 13.5586 101.769 8.57777C101.387 6.46379 99.9695 4.7378 97.5556 3.44383C97.1718 3.2383 97.0271 2.76224 97.2326 2.38055C97.4382 1.99257 97.9205 1.85835 98.2959 2.05548C101.161 3.59063 102.847 5.69202 103.317 8.30304C104.344 14.0347 99.0593 20.0872 98.8328 20.3431C98.6776 20.5171 98.4616 20.6073 98.2435 20.6073Z" fill="#000C3E"/>
<path d="M136.026 82.0199C135.83 82.0199 135.635 81.9486 135.484 81.8018C135.17 81.504 135.157 81.007 135.457 80.6903C135.692 80.4407 141.227 74.47 138.305 66.2574C137.162 63.0423 135.424 59.5568 133.584 55.8636C130.378 49.4231 127.06 42.7645 126.003 36.0115C125.934 35.5816 126.227 35.179 126.657 35.1139C127.087 35.0196 127.49 35.3383 127.555 35.7683C128.574 42.2822 131.837 48.8296 134.994 55.1611C136.854 58.8983 138.611 62.4258 139.788 65.7289C143.041 74.8747 136.858 81.4977 136.594 81.7766C136.441 81.9381 136.233 82.0199 136.026 82.0199Z" fill="#000C3E"/>
<path d="M133.263 46.161C132.84 46.161 132.489 45.8234 132.477 45.3976C132.236 36.6859 129.547 29.9392 124.484 25.3379C116.333 17.9327 104.68 18.6248 104.569 18.6374C104.087 18.694 103.762 18.3375 103.733 17.9055C103.701 17.4734 104.03 17.098 104.464 17.0687C104.966 17.033 116.897 16.32 125.543 24.1761C130.935 29.073 133.796 36.1972 134.05 45.3515C134.062 45.7856 133.72 46.1484 133.286 46.161H133.263Z" fill="#000C3E"/>
<path d="M105.174 81.3627C104.26 81.3627 103.61 81.2033 103.555 81.1886C103.133 81.0816 102.88 80.658 102.985 80.2365C103.089 79.8191 103.513 79.5654 103.937 79.6618C103.958 79.6702 106.21 80.205 107.919 79.0075C108.28 78.76 108.769 78.846 109.014 79.1984C109.264 79.5549 109.178 80.0456 108.823 80.2931C107.594 81.155 106.214 81.3627 105.174 81.3627Z" fill="#EE9B68"/>
<path d="M79.1155 70.5468C79.0778 70.5468 79.04 70.5447 79.0002 70.5384C78.5702 70.4754 78.2745 70.0749 78.3374 69.645C79.0505 64.7857 75.2 62.2104 75.1602 62.1873C74.7974 61.9482 74.6967 61.4617 74.9316 61.0968C75.1686 60.7319 75.6551 60.6312 76.02 60.8682C76.213 60.994 80.7513 64.0287 79.8936 69.8756C79.8369 70.2657 79.5014 70.5468 79.1155 70.5468Z" fill="#EE9B68"/>
<path d="M125.569 65.8588C125.156 65.8588 124.81 65.5379 124.785 65.1206C124.416 59.2148 126.844 55.7062 126.947 55.5594C127.194 55.2092 127.685 55.119 128.042 55.3707C128.398 55.6202 128.482 56.111 128.235 56.4654C128.212 56.4969 126.024 59.7014 126.353 65.0241C126.381 65.4582 126.051 65.8294 125.617 65.8567C125.603 65.8588 125.586 65.8588 125.569 65.8588Z" fill="#EE9B68"/>
<path d="M82.264 104.588C82.264 104.588 100.122 125.937 113.894 120.224C127.664 114.511 140.566 99.0258 133.643 96.9705C126.72 94.9153 71.4383 95.9974 82.264 104.588Z" fill="#FFCEB0"/>
<path d="M95.7071 63.8876C95.9042 65.1879 95.0087 66.4 93.7085 66.5972C92.4082 66.7922 91.196 65.8988 90.9989 64.5985C90.8039 63.2983 91.6973 62.0861 92.9975 61.889C94.2978 61.6939 95.51 62.5873 95.7071 63.8876Z" fill="#41294A"/>
<path d="M118.038 59.5932C118.235 60.8934 117.339 62.1056 116.039 62.3027C114.739 62.4978 113.527 61.6044 113.329 60.3041C113.134 59.0039 114.028 57.7917 115.328 57.5945C116.628 57.3995 117.841 58.2929 118.038 59.5932Z" fill="#41294A"/>
<path d="M99.5932 78.5018C99.4695 78.5018 99.3478 78.4725 99.2325 78.4137C98.8487 78.2145 98.6956 77.7426 98.8948 77.3547C99.0081 77.1366 101.72 71.9565 106.088 71.4678C108.569 71.191 110.989 72.4598 113.311 75.2281C113.59 75.5637 113.546 76.0586 113.215 76.3375C112.883 76.6227 112.388 76.5724 112.107 76.2411C110.142 73.8985 108.188 72.81 106.266 73.0323C102.737 73.4224 100.317 78.0279 100.292 78.0761C100.153 78.3466 99.8784 78.5018 99.5932 78.5018Z" fill="#EE9B68"/>
<g filter="url(#filter0_d_1126_90)">
<circle cx="144.097" cy="158.979" r="37.8763" fill="white"/>
</g>
<path d="M124.674 142.074C124.674 142.074 140.505 163.211 144.465 164.959C148.426 166.708 153.392 166.314 153.826 168.342C154.26 170.371 145.512 166.939 146.908 170.069C148.303 173.199 153.742 176.772 153.767 179.924C153.794 183.077 145.113 173.157 145.113 173.157C145.113 173.157 153.292 182.233 150.584 182.447C147.875 182.662 140.869 173.789 140.869 173.789C140.869 173.789 148.706 185.429 146.108 184.365C143.511 183.302 119.429 155.454 115.715 152.507C112.001 149.561 124.674 142.074 124.674 142.074Z" fill="#E27B5A"/>
<path d="M170.725 147.205C170.725 147.205 152.669 166.471 148.539 167.773C144.41 169.073 139.519 168.137 138.863 170.103C138.209 172.071 147.281 169.624 145.549 172.582C143.819 175.539 138.021 178.492 137.649 181.622C137.278 184.752 146.995 175.849 146.995 175.849C146.995 175.849 137.868 183.969 140.536 184.48C143.206 184.992 151.144 176.944 151.144 176.944C151.144 176.944 142.075 187.651 144.774 186.88C147.472 186.109 174.468 161.081 178.483 158.561C182.498 156.041 170.725 147.205 170.725 147.205Z" fill="#F8B38A"/>
<path d="M155.354 160.582C155.354 160.582 160.907 171.098 166.012 172.217C171.117 173.336 179.218 165.223 181.625 160.278C184.032 155.335 178.654 140.598 173.827 135.585C170.2 135.142 152.779 151.208 155.354 160.582Z" fill="#F65551"/>
<path d="M119.797 130.015C119.797 130.015 139.16 149.873 138.295 154.547C137.43 159.222 130.456 164.822 124.831 166.656C119.206 168.489 106.429 161.022 106.429 155.637C106.986 145.425 112.741 135.77 119.797 130.015Z" fill="#128E5A"/>
<path d="M55.0194 153.014C55.0194 153.014 97.7168 176.347 105.699 176.252C113.68 176.154 121.712 171.702 123.989 174.767C126.266 177.835 108.967 178.769 113.699 182.949C118.429 187.129 130.282 188.963 132.732 194.227C135.18 199.49 113.043 189.497 113.043 189.497C113.043 189.497 133.696 198.459 129.315 200.887C124.932 203.318 106.403 193.799 106.403 193.799C106.403 193.799 128.439 207.322 123.269 207.524C118.099 207.726 56.4297 179.449 47.9496 177.347C39.4677 175.246 55.0194 153.014 55.0194 153.014Z" fill="#FFC6A6"/>
<path d="M87.9616 151.683C87.9616 151.683 88.4736 171.497 83.9227 179.058C73.1025 197.033 43.8415 194.842 35.1171 181.946C26.3928 169.05 45.4705 103.944 58.3557 102.965C71.2409 101.986 87.9616 132.912 87.9616 151.683Z" fill="#D9423D"/>
<path d="M96.3053 2.03677C96.0637 2.03677 95.8014 2.06483 95.5172 2.12095C94.8243 2.26002 94.3753 2.59672 94.1057 3.18107C92.9041 5.78196 95.4379 11.9768 97.2483 15.6366C98.367 11.5766 99.7077 4.79016 97.8131 2.65162C97.4483 2.2405 96.9518 2.03677 96.3053 2.03677ZM97.4593 18.6913C97.158 18.6913 96.8762 18.529 96.7274 18.2606C96.0869 17.1127 90.5338 6.91772 92.5833 2.47838C93.0761 1.41094 93.9776 0.718023 95.189 0.476476C97.2532 0.065359 98.4389 0.827817 99.0684 1.53904C102.36 5.25495 98.6866 16.8101 98.2572 18.1155C98.1522 18.4314 97.8717 18.6559 97.5398 18.6876C97.513 18.6901 97.4862 18.6913 97.4593 18.6913Z" fill="#FFD310"/>
<path d="M107.611 6.16188C107.531 6.16188 107.451 6.16676 107.37 6.17896C104.536 6.55592 101.112 12.5665 99.3016 16.3691C103.065 14.7844 109.034 11.7577 109.827 9.00555C110.005 8.38582 109.886 7.83807 109.453 7.27934C108.869 6.52908 108.266 6.16188 107.611 6.16188ZM97.6925 18.7443C97.4668 18.7443 97.246 18.654 97.0862 18.4856C96.8556 18.2441 96.7897 17.8903 96.9178 17.5829C97.4473 16.3154 102.227 5.17252 107.148 4.51619C108.091 4.39054 109.486 4.58817 110.776 6.24972C111.535 7.22566 111.764 8.33946 111.439 9.46912C110.085 14.1671 99.2137 18.2441 97.9792 18.6942C97.8852 18.7284 97.7888 18.7443 97.6925 18.7443Z" fill="#FFD310"/>
<path d="M81.9478 15.782C86.0214 18.4008 95.3327 20.4376 102.607 15.782" stroke="#FFD310" stroke-width="4.87"/>
<defs>
<filter id="filter0_d_1126_90" x="26.2209" y="45.1027" width="235.752" height="235.753" filterUnits="userSpaceOnUse" color-interpolation-filters="sRGB">
<feFlood flood-opacity="0" result="BackgroundImageFix"/>
<feColorMatrix in="SourceAlpha" type="matrix" values="0 0 0 0 0 0 0 0 0 0 0 0 0 0 0 0 0 0 127 0" result="hardAlpha"/>
<feOffset dy="4"/>
<feGaussianBlur stdDeviation="40"/>
<feColorMatrix type="matrix" values="0 0 0 0 0 0 0 0 0 0 0 0 0 0 0 0 0 0 0.22 0"/>
<feBlend mode="normal" in2="BackgroundImageFix" result="effect1_dropShadow_1126_90"/>
<feBlend mode="normal" in="SourceGraphic" in2="effect1_dropShadow_1126_90" result="shape"/>
</filter>
<linearGradient id="paint0_linear_1126_90" x1="8.87711" y1="168.02" x2="20.6157" y2="208.97" gradientUnits="userSpaceOnUse">
<stop stop-color="#FFCCCC"/>
<stop offset="1" stop-color="#FFEEEE"/>
</linearGradient>
<linearGradient id="paint1_linear_1126_90" x1="227.641" y1="59.5279" x2="96.2636" y2="29.7815" gradientUnits="userSpaceOnUse">
<stop stop-color="white"/>
<stop offset="1" stop-color="#FFCECE"/>
</linearGradient>
<linearGradient id="paint2_linear_1126_90" x1="200.093" y1="60.8084" x2="154.95" y2="41.7504" gradientUnits="userSpaceOnUse">
<stop stop-color="#FFD1D1"/>
<stop offset="1" stop-color="#FFFBFC"/>
</linearGradient>
<linearGradient id="paint3_linear_1126_90" x1="189.951" y1="188.072" x2="8.08918" y2="83.7708" gradientUnits="userSpaceOnUse">
<stop stop-color="#FFCDCD"/>
<stop offset="1" stop-color="#FFF3F3"/>
</linearGradient>
</defs>
</svg>
