<svg width="1059" height="549" viewBox="0 0 1059 549" fill="none" xmlns="http://www.w3.org/2000/svg">
<path opacity="0.89" d="M528.242 231.419C526.275 231.362 524.576 232.881 524.095 234.969C521.043 235.208 517.56 235.289 513.738 235.046C511.601 234.908 509.58 234.685 507.685 234.408C507.695 234.042 507.702 233.673 507.702 233.304C507.702 231.508 507.576 229.743 507.332 228.016C508.295 227.273 509.502 226.493 510.961 225.823C513.494 224.654 515.868 224.239 517.692 224.119C518.591 226.17 520.646 227.361 522.623 226.843C524.844 226.258 526.112 223.731 525.458 221.196C524.803 218.662 522.474 217.077 520.252 217.662C518.228 218.196 516.993 220.343 517.285 222.639C515.684 223.554 513.307 224.546 510.364 224.62C508.905 224.658 507.634 224.462 506.603 224.208C505.948 221.527 505.006 218.958 503.809 216.535C505.077 215.381 506.576 214.158 508.332 212.977C510.876 211.262 513.328 210.035 515.481 209.154C516.885 210.808 519.127 211.358 520.853 210.35C522.836 209.196 523.399 206.415 522.104 204.147C520.805 201.877 518.136 200.977 516.152 202.135C514.423 203.139 513.779 205.37 514.491 207.423C512.643 208.87 510.367 210.396 507.637 211.758C505.779 212.689 504.002 213.396 502.394 213.935C501.082 211.715 499.539 209.646 497.813 207.758C498.478 205.327 499.6 202.488 501.513 199.643C503.307 196.981 505.304 195.039 507 193.673C508.865 194.839 511.212 194.658 512.548 193.123C514.067 191.385 513.718 188.573 511.768 186.842C509.821 185.108 507.01 185.112 505.497 186.85C504.154 188.385 504.266 190.75 505.653 192.477C504.558 194.3 502.903 196.562 500.468 198.715C497.786 201.093 495.086 202.516 493.035 203.362C490.702 201.558 488.155 200.027 485.432 198.816C485.829 197.712 486.351 196.6 487.036 195.508C487.585 194.643 488.175 193.881 488.776 193.216C490.851 194.066 493.167 193.454 494.212 191.673C495.388 189.685 494.53 186.985 492.296 185.646C490.064 184.308 487.304 184.835 486.13 186.827C485.103 188.577 485.645 190.877 487.304 192.315C486.958 193.238 486.537 194.197 486.039 195.173C485.469 196.296 484.845 197.331 484.191 198.289C483.916 198.177 483.638 198.069 483.363 197.97C480.118 196.747 476.666 195.974 473.068 195.712C472.478 194.104 471.962 192.323 471.603 190.366C470.867 186.373 471.002 182.897 471.342 180.287C473.458 179.878 475.045 178.202 475.045 176.192C475.045 173.877 472.939 172 470.341 172C467.747 172 465.641 173.877 465.641 176.192C465.641 178.236 467.286 179.936 469.453 180.308C469.924 182.879 470.233 186.48 469.503 190.654C469.181 192.491 468.707 194.166 468.15 195.681C464.702 195.878 461.382 196.55 458.245 197.632C457.807 196.933 457.417 196.2 457.068 195.334C456.373 193.62 456.071 192.013 455.952 190.675C457.98 189.61 459.028 187.374 458.309 185.396C457.526 183.221 454.908 182.187 452.47 183.086C450.031 183.985 448.692 186.476 449.479 188.651C450.157 190.528 452.198 191.552 454.314 191.221C454.932 192.501 455.522 193.978 455.99 195.654C456.234 196.542 456.42 197.41 456.563 198.26C453.718 199.397 451.045 200.881 448.594 202.656C447.301 201.714 445.982 200.621 444.68 199.34C441.679 196.391 439.675 193.366 438.359 190.943C439.817 189.316 440.072 186.987 438.851 185.382C437.45 183.547 434.649 183.353 432.591 184.95C430.532 186.546 429.996 189.329 431.397 191.164C432.631 192.787 434.964 193.124 436.908 192.079C438.81 193.796 441.275 196.505 443.188 200.398C444.06 202.178 444.67 203.91 445.094 205.525C444.7 205.89 444.307 206.266 443.927 206.65C442.008 208.587 440.299 210.732 438.83 213.054C437.966 212.802 437.07 212.499 436.155 212.126C433.167 210.914 430.854 209.37 429.179 208.024C429.891 205.931 429.199 203.672 427.426 202.693C425.415 201.58 422.773 202.54 421.525 204.837C420.277 207.135 420.894 209.9 422.909 211.012C424.679 211.991 426.931 211.365 428.301 209.639C430.335 210.349 432.865 211.488 435.483 213.357C436.263 213.916 436.982 214.49 437.647 215.068C435.575 218.832 434.13 222.992 433.442 227.409C431.651 227.564 429.722 227.637 427.653 227.573C424.699 227.481 422.03 227.132 419.701 226.677C419.646 224.367 418.114 222.433 416.035 222.213C413.756 221.972 411.684 223.888 411.416 226.494C411.141 229.099 412.776 231.407 415.055 231.649C417.086 231.864 418.945 230.368 419.521 228.2C421.915 228.249 424.601 228.465 427.511 228.97C429.522 229.319 431.39 229.765 433.109 230.261C433.028 231.264 432.987 232.278 432.987 233.304C432.987 235.741 433.215 238.124 433.655 240.433C431.678 241.754 428.945 243.253 425.473 244.306C422.427 245.229 419.684 245.543 417.5 245.61C416.717 243.556 414.767 242.275 412.79 242.66C410.538 243.099 409.107 245.54 409.602 248.112C410.094 250.685 412.318 252.414 414.573 251.975C416.52 251.596 417.846 249.72 417.853 247.556C420.091 246.822 422.729 246.134 425.734 245.684C429.189 245.169 432.285 245.096 434.89 245.21C435.938 248.397 437.403 251.392 439.21 254.134C438.359 254.815 437.403 255.488 436.338 256.117C434.286 257.321 432.319 258.071 430.614 258.555C429.454 256.694 427.297 255.821 425.435 256.581C423.309 257.45 422.37 260.123 423.35 262.55C423.96 264.073 425.181 265.142 426.531 265.508C427.327 265.727 428.172 265.7 428.962 265.377C429.199 265.281 429.42 265.162 429.623 265.019C431.18 263.981 431.838 261.83 431.18 259.778C432.794 258.937 434.68 258.105 436.857 257.419C438.25 256.978 439.583 256.658 440.838 256.418C441.981 257.909 443.235 259.309 444.585 260.601C444.714 260.723 444.84 260.846 444.968 260.962C444.056 263.016 442.683 265.512 440.611 268.043C438.583 270.519 436.473 272.323 434.7 273.596C432.92 272.323 430.59 272.35 429.155 273.777C427.524 275.404 427.68 278.235 429.508 280.1C431.329 281.962 434.137 282.154 435.768 280.527C437.182 279.116 437.253 276.793 436.046 274.988C437.443 273.154 439.264 271.085 441.591 269.042C444.087 266.85 446.552 265.227 448.699 264.031C451.54 266.069 454.681 267.719 458.035 268.9C457.899 270.173 457.672 271.546 457.302 272.988C456.498 276.131 455.288 278.65 454.189 280.504C452.039 280.069 449.913 281.061 449.184 282.961C448.356 285.119 449.648 287.635 452.069 288.581C454.491 289.528 457.126 288.543 457.953 286.381C458.675 284.504 457.79 282.358 455.956 281.212C456.475 278.977 457.292 276.335 458.594 273.497C459.232 272.112 459.91 270.85 460.605 269.7C463.186 270.404 465.878 270.835 468.652 270.954C469.107 273.146 469.473 275.6 469.649 278.281C469.914 282.269 469.7 285.8 469.324 288.716C467.214 289.129 465.641 290.805 465.641 292.808C465.641 295.122 467.747 297 470.345 297C472.942 297 475.045 295.122 475.045 292.808C475.045 290.812 473.478 289.139 471.382 288.719C471.03 285.738 470.836 282.216 471.036 278.281C471.175 275.627 471.474 273.177 471.854 270.962C474.753 270.85 477.568 270.4 480.257 269.65C480.487 270.05 480.718 270.465 480.935 270.892C482.393 273.712 483.18 276.354 483.607 278.47C481.735 279.565 480.786 281.696 481.454 283.596C482.227 285.777 484.832 286.831 487.283 285.954C489.728 285.073 491.085 282.592 490.315 280.411C489.633 278.477 487.5 277.431 485.32 277.831C484.319 276.096 483.156 273.477 482.753 270.123C482.702 269.708 482.665 269.3 482.641 268.9C485.639 267.854 488.457 266.427 491.048 264.681C492.723 266.054 494.486 267.693 496.239 269.639C498.932 272.631 500.889 275.581 502.303 278.088C500.868 279.712 500.617 282.023 501.835 283.619C503.235 285.454 506.033 285.646 508.095 284.05C510.153 282.454 510.693 279.673 509.292 277.834C508.081 276.25 505.823 275.889 503.904 276.854C501.838 274.742 499.549 272.069 497.342 268.785C495.914 266.662 494.737 264.6 493.764 262.666C494.808 261.816 495.809 260.912 496.755 259.954C498.311 258.385 499.732 256.681 500.987 254.858C503.307 255.512 505.989 256.469 508.831 257.908C511.571 259.289 513.853 260.808 515.695 262.223C514.996 264.277 515.661 266.5 517.387 267.492C519.381 268.643 522.036 267.727 523.328 265.454C524.617 263.177 524.044 260.404 522.05 259.254C520.307 258.25 518.055 258.823 516.654 260.508C514.599 259.719 512.107 258.523 509.523 256.689C506.837 254.785 504.812 252.743 503.341 250.981C504.334 249.104 505.172 247.131 505.84 245.077C506.956 245.116 508.129 245.216 509.353 245.4C512.49 245.877 515.105 246.774 517.116 247.666C516.943 249.858 518.17 251.866 520.12 252.369C522.338 252.946 524.668 251.358 525.315 248.819C525.96 246.281 524.681 243.758 522.463 243.181C520.503 242.673 518.465 243.843 517.567 245.862C515.427 245.685 512.693 245.212 509.702 244.042C508.563 243.597 507.515 243.1 506.559 242.581C507.037 240.677 507.373 238.719 507.546 236.712C509.479 236.554 511.537 236.454 513.697 236.45C517.519 236.439 520.985 236.715 524.03 237.123C524.396 239.235 526.007 240.843 527.974 240.904C530.267 240.969 532.189 238.9 532.26 236.281C532.335 233.662 530.538 231.485 528.242 231.419Z" fill="#FA5752" fill-opacity="0.82"/>
<path opacity="0.93" d="M182.759 127.743C179.737 127.654 177.126 130 176.386 133.224C171.696 133.593 166.345 133.717 160.472 133.343C157.189 133.13 154.084 132.785 151.171 132.357C151.187 131.793 151.197 131.223 151.197 130.653C151.197 127.88 151.004 125.154 150.629 122.488C152.109 121.342 153.964 120.136 156.205 119.102C160.097 117.298 163.745 116.656 166.548 116.472C167.929 119.638 171.087 121.478 174.125 120.677C177.538 119.774 179.487 115.872 178.481 111.959C177.475 108.046 173.895 105.599 170.482 106.502C167.371 107.327 165.475 110.641 165.923 114.186C163.463 115.599 159.811 117.131 155.288 117.244C153.047 117.304 151.093 117 149.509 116.608C148.503 112.47 147.054 108.502 145.215 104.761C147.164 102.98 149.467 101.091 152.166 99.2681C156.074 96.6198 159.842 94.7253 163.151 93.366C165.308 95.9187 168.752 96.7682 171.405 95.2119C174.453 93.431 175.318 89.137 173.327 85.6339C171.332 82.1297 167.231 80.7403 164.182 82.5275C161.525 84.0775 160.535 87.5225 161.629 90.6933C158.789 92.9265 155.293 95.2837 151.098 97.3863C148.243 98.8233 145.512 99.9158 143.042 100.747C141.026 97.3203 138.655 94.1257 136.002 91.21C137.024 87.457 138.748 83.0737 141.687 78.6799C144.444 74.5703 147.513 71.5717 150.118 69.4627C152.984 71.2626 156.59 70.9832 158.643 68.6138C160.978 65.93 160.441 61.589 157.445 58.9164C154.454 56.2385 150.134 56.2443 147.81 58.928C145.747 61.298 145.919 64.9501 148.05 67.6164C146.367 70.4311 143.824 73.9226 140.082 77.2482C135.961 80.9188 131.813 83.116 128.66 84.4225C125.075 81.6368 121.162 79.2732 116.978 77.403C117.587 75.6987 118.39 73.9823 119.442 72.296C120.286 70.9599 121.193 69.7834 122.115 68.7569C125.304 70.0692 128.863 69.1241 130.468 66.3749C132.277 63.3049 130.958 59.1362 127.524 57.0695C124.096 55.0028 119.854 55.8164 118.051 58.8926C116.472 61.5949 117.306 65.1455 119.854 67.3665C119.322 68.7918 118.676 70.271 117.91 71.7788C117.035 73.5132 116.076 75.1108 115.07 76.5895C114.648 76.4173 114.221 76.2508 113.799 76.0971C108.812 74.2084 103.508 73.015 97.9789 72.6103C97.0722 70.1284 96.2802 67.3776 95.7278 64.3563C94.5971 58.1911 94.8055 52.8251 95.3266 48.7953C98.5782 48.164 101.017 45.5748 101.017 42.4727C101.017 38.8982 97.7809 36 93.7894 36C89.8032 36 86.5672 38.8982 86.5672 42.4727C86.5672 45.6287 89.0945 48.2533 92.4242 48.8265C93.1485 52.7971 93.6227 58.3569 92.5023 64.8011C92.0073 67.638 91.2778 70.2235 90.4232 72.5633C85.1238 72.8666 80.0224 73.9041 75.2024 75.5762C74.5302 74.4969 73.931 73.3637 73.3943 72.0271C72.326 69.3809 71.8622 66.8989 71.6799 64.8338C74.7959 63.1887 76.4061 59.7374 75.3014 56.6838C74.0977 53.3255 70.075 51.7284 66.3284 53.1162C62.5818 54.5041 60.5235 58.3511 61.7324 61.7089C62.7746 64.6072 65.9115 66.1884 69.1631 65.677C70.1114 67.6533 71.0181 69.9329 71.7372 72.5216C72.1124 73.893 72.399 75.2333 72.6178 76.5446C68.2459 78.3011 64.1398 80.5913 60.3724 83.3321C58.3871 81.8787 56.3601 80.1908 54.3591 78.2124C49.7475 73.659 46.6679 68.9889 44.6461 65.2475C46.8868 62.7355 47.2776 59.1399 45.4017 56.6622C43.2496 53.8279 38.9455 53.5283 35.7825 55.9939C32.6196 58.4589 31.7962 62.7555 33.9483 65.5893C35.8451 68.0945 39.4301 68.6154 42.4159 67.002C45.3392 69.6524 49.1275 73.8349 52.0664 79.8459C53.4055 82.5951 54.3435 85.2688 54.9949 87.7624C54.3904 88.3255 53.7859 88.9066 53.2023 89.4994C50.253 92.4906 47.6267 95.8025 45.3705 99.387C44.0417 98.9982 42.666 98.5295 41.2591 97.9542C36.6684 96.083 33.1146 93.6983 30.5404 91.6205C31.6347 88.3884 30.5717 84.9006 27.8465 83.3892C24.7564 81.6711 20.6972 83.1535 18.7796 86.7005C16.8621 90.248 17.8104 94.5166 20.9056 96.2341C23.6257 97.7456 27.0857 96.7799 29.1908 94.1146C32.3173 95.2103 36.2046 96.9684 40.2274 99.855C41.4259 100.717 42.5305 101.604 43.5519 102.497C40.368 108.308 38.1482 114.732 37.0904 121.552C34.3391 121.79 31.3742 121.903 28.1955 121.805C23.6569 121.663 19.556 121.123 15.9762 120.421C15.8928 116.855 13.5375 113.869 10.3433 113.529C6.84162 113.156 3.65779 116.114 3.24614 120.138C2.82406 124.16 5.33567 127.724 8.83734 128.097C11.9586 128.429 14.8142 126.12 15.7 122.773C19.3788 122.849 23.5058 123.181 27.9767 123.961C31.0668 124.501 33.9379 125.189 36.5798 125.954C36.4547 127.503 36.3922 129.069 36.3922 130.653C36.3922 134.415 36.7413 138.095 37.4187 141.661C34.3808 143.7 30.1809 146.015 24.845 147.639C20.1657 149.065 15.9501 149.55 12.5944 149.654C11.3907 146.482 8.39443 144.504 5.35652 145.098C1.89653 145.777 -0.302433 149.545 0.458348 153.517C1.21392 157.489 4.63225 160.159 8.09744 159.481C11.0885 158.895 13.1258 155.999 13.1363 152.659C16.5754 151.525 20.6295 150.462 25.2462 149.768C30.5561 148.973 35.3136 148.86 39.3155 149.036C40.9256 153.957 43.1767 158.581 45.9541 162.814C44.6462 163.866 43.1767 164.905 41.5405 165.876C38.388 167.736 35.3657 168.893 32.7446 169.64C30.9625 166.768 27.6484 165.419 24.7877 166.592C21.5205 167.935 20.0771 172.062 21.583 175.809C22.521 178.161 24.3969 179.811 26.4708 180.376C27.6953 180.714 28.9928 180.673 30.207 180.173C30.5717 180.025 30.9104 179.841 31.2231 179.621C33.6148 178.019 34.6257 174.698 33.6148 171.528C36.0952 170.231 38.9924 168.946 42.3377 167.886C44.4794 167.206 46.5273 166.711 48.4553 166.341C50.2113 168.644 52.1393 170.804 54.2132 172.799C54.4112 172.988 54.604 173.178 54.802 173.356C53.4003 176.528 51.2899 180.382 48.1061 184.289C44.9901 188.113 41.7489 190.899 39.0237 192.864C36.288 190.899 32.7082 190.94 30.504 193.143C27.9976 195.656 28.2372 200.026 31.0459 202.906C33.8441 205.78 38.1587 206.077 40.6651 203.565C42.838 201.386 42.9474 197.799 41.0923 195.014C43.2392 192.182 46.0374 188.986 49.612 185.833C53.4472 182.448 57.2355 179.942 60.5339 178.096C64.9006 181.243 69.7258 183.79 74.8793 185.614C74.6709 187.579 74.3218 189.699 73.7538 191.926C72.5189 196.778 70.6585 200.668 68.9702 203.53C65.6666 202.859 62.3994 204.39 61.2791 207.324C60.0076 210.656 61.993 214.54 65.7135 216C69.434 217.463 73.4828 215.942 74.7543 212.604C75.8642 209.706 74.5042 206.392 71.6851 204.623C72.4824 201.172 73.7382 197.093 75.7391 192.71C76.7188 190.572 77.7609 188.625 78.8291 186.848C82.7946 187.935 86.932 188.601 91.1944 188.785C91.8927 192.169 92.4554 195.958 92.7264 200.097C93.1328 206.255 92.8046 211.707 92.2262 216.209C88.9851 216.846 86.5672 219.435 86.5672 222.527C86.5672 226.1 89.8031 229 93.7946 229C97.7861 229 101.017 226.1 101.017 222.527C101.017 219.446 98.6094 216.862 95.3891 216.214C94.8472 211.612 94.5502 206.172 94.8577 200.097C95.0713 196 95.5298 192.217 96.1134 188.797C100.569 188.625 104.894 187.929 109.026 186.772C109.38 187.389 109.735 188.03 110.068 188.689C112.309 193.043 113.518 197.123 114.174 200.389C111.298 202.081 109.839 205.37 110.865 208.304C112.053 211.671 116.055 213.299 119.823 211.945C123.58 210.585 125.664 206.754 124.481 203.387C123.434 200.401 120.156 198.785 116.806 199.403C115.268 196.724 113.481 192.68 112.861 187.501C112.783 186.861 112.726 186.231 112.689 185.614C117.295 183.998 121.626 181.795 125.607 179.099C128.181 181.219 130.89 183.749 133.584 186.754C137.722 191.374 140.729 195.929 142.901 199.8C140.697 202.307 140.312 205.875 142.182 208.34C144.334 211.172 148.633 211.47 151.802 209.005C154.964 206.54 155.793 202.247 153.641 199.408C151.781 196.962 148.31 196.404 145.361 197.894C142.188 194.634 138.67 190.507 135.278 185.435C133.084 182.157 131.276 178.975 129.781 175.987C131.385 174.675 132.923 173.279 134.377 171.801C136.768 169.378 138.952 166.747 140.88 163.933C144.444 164.942 148.566 166.42 152.932 168.641C157.143 170.773 160.649 173.119 163.479 175.304C162.406 178.475 163.427 181.908 166.079 183.44C169.143 185.216 173.223 183.802 175.209 180.293C177.189 176.777 176.308 172.495 173.244 170.72C170.566 169.17 167.106 170.055 164.954 172.656C161.796 171.438 157.966 169.592 153.995 166.759C149.868 163.819 146.757 160.666 144.496 157.946C146.023 155.048 147.31 152.002 148.336 148.831C150.051 148.89 151.854 149.045 153.735 149.329C158.555 150.066 162.572 151.45 165.662 152.828C165.397 156.212 167.283 159.312 170.279 160.09C173.687 160.98 177.267 158.528 178.262 154.609C179.252 150.689 177.288 146.794 173.88 145.903C170.868 145.119 167.736 146.925 166.355 150.042C163.067 149.769 158.867 149.039 154.271 147.233C152.521 146.545 150.91 145.778 149.441 144.977C150.176 142.037 150.692 139.014 150.957 135.915C153.928 135.671 157.091 135.517 160.41 135.511C166.282 135.493 171.608 135.92 176.287 136.55C176.85 139.811 179.325 142.292 182.347 142.388C185.87 142.488 188.824 139.293 188.934 135.249C189.048 131.205 186.287 127.844 182.759 127.743Z" fill="#FA5752" fill-opacity="0.9"/>
<path d="M1044.56 55.6161C1042.75 55.562 1041.19 56.984 1040.74 58.9388C1037.94 59.1621 1034.74 59.2376 1031.23 59.0109C1029.27 58.8815 1027.41 58.6724 1025.67 58.4133C1025.68 58.0712 1025.68 57.7257 1025.68 57.3801C1025.68 55.6987 1025.57 54.0465 1025.35 52.4302C1026.23 51.7355 1027.34 51.0047 1028.68 50.3779C1031.01 49.2839 1033.19 48.8948 1034.86 48.7833C1035.69 50.7023 1037.58 51.8178 1039.39 51.3323C1041.43 50.785 1042.6 48.4198 1042 46.0473C1041.4 43.6752 1039.26 42.1917 1037.22 42.739C1035.36 43.2393 1034.22 45.2483 1034.49 47.3972C1033.02 48.2543 1030.83 49.183 1028.13 49.2516C1026.79 49.2874 1025.62 49.1036 1024.68 48.866C1024.07 46.357 1023.21 43.9519 1022.11 41.6841C1023.27 40.6042 1024.65 39.4592 1026.26 38.354C1028.6 36.7485 1030.85 35.6001 1032.83 34.776C1034.12 36.3235 1036.18 36.8385 1037.77 35.895C1039.59 34.8154 1040.11 32.2123 1038.92 30.0887C1037.72 27.9644 1035.27 27.1221 1033.45 28.2055C1031.86 29.1452 1031.27 31.2336 1031.92 33.1558C1030.22 34.5096 1028.13 35.9386 1025.63 37.2132C1023.92 38.0843 1022.29 38.7466 1020.81 39.2504C1019.6 37.1732 1018.19 35.2366 1016.6 33.4691C1017.21 31.1939 1018.24 28.5367 1020 25.8731C1021.65 23.3818 1023.48 21.5639 1025.04 20.2855C1026.75 21.3766 1028.91 21.2072 1030.14 19.7708C1031.53 18.1439 1031.21 15.5123 1029.42 13.8921C1027.63 12.2687 1025.05 12.2722 1023.66 13.8991C1022.43 15.3358 1022.53 17.5498 1023.8 19.1661C1022.8 20.8725 1021.28 22.9891 1019.04 25.0052C1016.58 27.2303 1014.1 28.5623 1012.21 29.3543C1010.07 27.6656 1007.73 26.2327 1005.23 25.099C1005.59 24.0658 1006.07 23.0253 1006.7 22.003C1007.2 21.1931 1007.75 20.4799 1008.3 19.8576C1010.2 20.6531 1012.33 20.0802 1013.29 18.4135C1014.37 16.5525 1013.58 14.0253 1011.53 12.7724C1009.48 11.5196 1006.95 12.0128 1005.87 13.8777C1004.92 15.5158 1005.42 17.6683 1006.95 19.0147C1006.63 19.8787 1006.24 20.7755 1005.78 21.6895C1005.26 22.7409 1004.69 23.7094 1004.09 24.6058C1003.83 24.5014 1003.58 24.4005 1003.33 24.3073C1000.34 23.1624 997.172 22.4389 993.867 22.1936C993.324 20.689 992.851 19.0214 992.521 17.1898C991.845 13.4524 991.969 10.1994 992.281 7.75649C994.225 7.37378 995.683 5.80419 995.683 3.92361C995.683 1.75671 993.748 -0.000241008 991.362 -0.000241008C988.978 -0.000241008 987.044 1.75671 987.044 3.92361C987.044 5.83685 988.555 7.42791 990.545 7.7754C990.979 10.1825 991.262 13.5529 990.592 17.4595C990.296 19.1793 989.86 20.7466 989.349 22.1651C986.181 22.3489 983.131 22.9779 980.249 23.9915C979.847 23.3372 979.489 22.6503 979.168 21.84C978.529 20.2358 978.252 18.7312 978.143 17.4793C980.006 16.482 980.969 14.3898 980.308 12.5387C979.588 10.5027 977.183 9.53458 974.943 10.3759C972.703 11.2172 971.473 13.5494 972.195 15.585C972.818 17.3419 974.694 18.3005 976.638 17.9905C977.205 19.1886 977.747 20.5705 978.177 22.1398C978.401 22.9712 978.573 23.7837 978.704 24.5786C976.09 25.6434 973.635 27.0318 971.382 28.6933C970.195 27.8123 968.983 26.789 967.787 25.5896C965.03 22.8293 963.189 19.9982 961.98 17.7301C963.319 16.2073 963.553 14.0275 962.432 12.5255C961.145 10.8073 958.571 10.6257 956.68 12.1204C954.789 13.6147 954.297 16.2194 955.584 17.9373C956.718 19.456 958.861 19.7718 960.646 18.7937C962.394 20.4004 964.659 22.9359 966.416 26.5799C967.217 28.2465 967.778 29.8674 968.167 31.379C967.806 31.7204 967.444 32.0727 967.095 32.432C965.332 34.2454 963.762 36.2531 962.413 38.4261C961.618 38.1903 960.796 37.9063 959.955 37.5575C957.21 36.4231 955.085 34.9775 953.546 33.7179C954.2 31.7585 953.565 29.6442 951.936 28.7279C950.088 27.6864 947.661 28.585 946.515 30.7353C945.368 32.8858 945.935 35.4736 947.786 36.5147C949.412 37.431 951.481 36.8456 952.739 35.2298C954.609 35.8941 956.933 36.9599 959.338 38.7098C960.054 39.2325 960.715 39.7702 961.326 40.3111C959.422 43.8343 958.095 47.7284 957.462 51.8626C955.817 52.0074 954.045 52.0759 952.144 52.016C949.431 51.9299 946.979 51.6029 944.838 51.1773C944.789 49.0152 943.38 47.2051 941.471 46.9991C939.377 46.773 937.474 48.5665 937.227 51.0056C936.975 53.4441 938.477 55.6046 940.57 55.8307C942.436 56.0318 944.144 54.632 944.673 52.6031C946.873 52.6489 949.34 52.8507 952.013 53.3234C953.861 53.6504 955.577 54.068 957.157 54.5314C957.082 55.4704 957.045 56.42 957.045 57.3801C957.045 59.6607 957.254 61.8913 957.659 64.0531C955.842 65.2896 953.331 66.6927 950.141 67.6775C947.343 68.5416 944.823 68.8356 942.817 68.8987C942.097 66.9761 940.305 65.7771 938.489 66.1371C936.42 66.5483 935.106 68.8327 935.561 71.2404C936.012 73.6485 938.056 75.2671 940.128 74.8558C941.916 74.501 943.134 72.745 943.141 70.7203C945.197 70.033 947.621 69.3887 950.381 68.9682C953.556 68.4862 956.4 68.4173 958.793 68.5243C959.755 71.5075 961.101 74.3108 962.762 76.8767C961.98 77.5143 961.101 78.1443 960.123 78.7329C958.238 79.8603 956.431 80.5616 954.864 81.0148C953.799 79.2735 951.817 78.4556 950.107 79.1672C948.153 79.981 947.29 82.4829 948.191 84.7545C948.752 86.18 949.873 87.1808 951.113 87.5229C951.845 87.7281 952.621 87.7028 953.347 87.4002C953.565 87.3105 953.767 87.1988 953.954 87.0655C955.384 86.0942 955.989 84.0807 955.384 82.1594C956.867 81.3729 958.599 80.594 960.6 79.9515C961.88 79.5394 963.104 79.2389 964.257 79.0148C965.307 80.4108 966.46 81.7203 967.7 82.9297C967.818 83.0443 967.933 83.1596 968.052 83.2675C967.214 85.1901 965.952 87.5264 964.048 89.8954C962.185 92.2134 960.248 93.9022 958.618 95.0935C956.983 93.9022 954.842 93.9271 953.524 95.2626C952.026 96.7858 952.169 99.4353 953.848 101.181C955.521 102.924 958.101 103.104 959.6 101.581C960.899 100.26 960.964 98.0854 959.855 96.3967C961.139 94.6797 962.812 92.7428 964.949 90.8312C967.242 88.7792 969.507 87.2599 971.479 86.1406C974.09 88.0484 976.975 89.5927 980.056 90.6982C979.931 91.8896 979.722 93.1748 979.383 94.5247C978.644 97.466 977.532 99.8241 976.523 101.559C974.548 101.153 972.594 102.081 971.924 103.859C971.164 105.879 972.351 108.234 974.576 109.119C976.8 110.006 979.221 109.084 979.981 107.06C980.645 105.303 979.831 103.294 978.146 102.222C978.623 100.13 979.373 97.6569 980.57 95.0003C981.155 93.7042 981.779 92.5234 982.417 91.4467C984.788 92.1055 987.262 92.509 989.81 92.6205C990.228 94.6724 990.564 96.9693 990.726 99.4786C990.969 103.212 990.773 106.516 990.427 109.246C988.489 109.632 987.044 111.201 987.044 113.076C987.044 115.242 988.978 117 991.365 117C993.751 117 995.683 115.242 995.683 113.076C995.683 111.208 994.244 109.641 992.318 109.249C991.994 106.459 991.817 103.161 992 99.4786C992.128 96.9943 992.402 94.7015 992.751 92.6278C995.415 92.5234 998.001 92.102 1000.47 91.4003C1000.68 91.7743 1000.9 92.1631 1001.09 92.5628C1002.43 95.2018 1003.16 97.6751 1003.55 99.655C1001.83 100.681 1000.96 102.675 1001.57 104.453C1002.28 106.495 1004.67 107.482 1006.93 106.66C1009.17 105.836 1010.42 103.514 1009.71 101.472C1009.09 99.6624 1007.13 98.683 1005.12 99.0574C1004.2 97.4337 1003.14 94.9821 1002.76 91.8425C1002.72 91.4541 1002.68 91.0723 1002.66 90.6982C1005.42 89.7189 1008 88.3834 1010.38 86.7488C1011.92 88.034 1013.54 89.5677 1015.15 91.3894C1017.63 94.1901 1019.43 96.9514 1020.73 99.2982C1019.41 100.818 1019.18 102.981 1020.3 104.475C1021.58 106.192 1024.15 106.373 1026.05 104.878C1027.94 103.384 1028.43 100.782 1027.15 99.0606C1026.03 97.5778 1023.96 97.2393 1022.2 98.1431C1020.3 96.1664 1018.2 93.6645 1016.17 90.59C1014.86 88.6028 1013.77 86.6735 1012.88 84.8624C1013.84 84.0669 1014.76 83.2208 1015.63 82.3247C1017.06 80.8556 1018.36 79.2607 1019.52 77.5547C1021.65 78.1664 1024.11 79.0628 1026.72 80.4092C1029.24 81.7018 1031.34 83.1234 1033.03 84.4483C1032.39 86.3709 1033 88.4516 1034.58 89.3804C1036.41 90.4571 1038.85 89.6001 1040.04 87.4726C1041.22 85.3416 1040.7 82.7455 1038.87 81.6694C1037.27 80.7298 1035.2 81.2662 1033.91 82.8429C1032.02 82.1047 1029.73 80.9853 1027.36 79.2681C1024.89 77.4862 1023.03 75.5745 1021.68 73.9255C1022.59 72.1689 1023.36 70.3222 1023.97 68.3997C1025 68.4359 1026.08 68.5294 1027.2 68.702C1030.08 69.1488 1032.49 69.9875 1034.33 70.8228C1034.17 72.8744 1035.3 74.7537 1037.09 75.2251C1039.13 75.7651 1041.27 74.2784 1041.87 71.9024C1042.46 69.5264 1041.28 67.1651 1039.25 66.6251C1037.45 66.1495 1035.57 67.2445 1034.75 69.134C1032.78 68.9685 1030.27 68.5259 1027.52 67.4312C1026.48 67.0139 1025.51 66.5492 1024.63 66.0634C1025.07 64.2814 1025.38 62.4486 1025.54 60.5699C1027.32 60.4223 1029.21 60.3288 1031.19 60.3249C1034.7 60.314 1037.89 60.5731 1040.69 60.9549C1041.02 62.9315 1042.5 64.4361 1044.31 64.4938C1046.42 64.555 1048.18 62.618 1048.25 60.1664C1048.32 57.7148 1046.66 55.6773 1044.56 55.6161Z" fill="#FA5752" fill-opacity="0.75"/>
<path d="M1166.67 410.493C1162.59 410.371 1159.06 413.58 1158.07 417.991C1151.74 418.494 1144.51 418.665 1136.58 418.153C1132.17 417.86 1127.97 417.389 1124.05 416.805C1124.07 416.033 1124.08 415.253 1124.08 414.474C1124.08 410.681 1123.81 406.952 1123.31 403.304C1125.31 401.736 1127.81 400.087 1130.84 398.674C1136.09 396.205 1141 395.328 1144.8 395.076C1146.65 399.405 1150.93 401.924 1155.01 400.827C1159.62 399.593 1162.26 394.255 1160.89 388.902C1159.53 383.549 1154.71 380.202 1150.1 381.436C1145.91 382.566 1143.34 387.098 1143.95 391.948C1140.63 393.882 1135.7 395.977 1129.59 396.131C1126.58 396.213 1123.94 395.798 1121.8 395.263C1120.44 389.6 1118.5 384.174 1116.01 379.057C1118.64 376.62 1121.75 374.037 1125.39 371.542C1130.66 367.92 1135.74 365.329 1140.21 363.468C1143.12 366.962 1147.76 368.124 1151.35 365.996C1155.47 363.557 1156.62 357.684 1153.94 352.892C1151.25 348.1 1145.72 346.199 1141.6 348.644C1138.03 350.764 1136.68 355.475 1138.16 359.813C1134.32 362.867 1129.6 366.092 1123.94 368.968C1120.1 370.934 1116.41 372.428 1113.08 373.565C1110.35 368.879 1107.16 364.508 1103.58 360.519C1104.96 355.386 1107.28 349.391 1111.25 343.38C1114.98 337.759 1119.11 333.657 1122.62 330.773C1126.49 333.234 1131.35 332.852 1134.13 329.611C1137.28 325.94 1136.56 320.002 1132.51 316.347C1128.47 312.684 1122.65 312.69 1119.51 316.363C1116.74 319.604 1116.96 324.6 1119.84 328.246C1117.56 332.097 1114.13 336.873 1109.09 341.423C1103.52 346.442 1097.94 349.448 1093.68 351.235C1088.83 347.425 1083.55 344.192 1077.91 341.634C1078.73 339.302 1079.81 336.955 1081.24 334.648C1082.38 332.82 1083.61 331.212 1084.84 329.806C1089.14 331.601 1093.95 330.31 1096.11 326.549C1098.55 322.35 1096.77 316.646 1092.14 313.821C1087.51 310.994 1081.79 312.106 1079.36 316.314C1077.23 320.011 1078.35 324.867 1081.79 327.905C1081.07 329.856 1080.2 331.878 1079.16 333.94C1077.98 336.313 1076.69 338.499 1075.34 340.52C1074.76 340.285 1074.2 340.058 1073.62 339.847C1066.9 337.263 1059.74 335.631 1052.28 335.078C1051.05 331.683 1049.98 327.92 1049.23 323.787C1047.71 315.354 1048 308.015 1048.7 302.502C1053.09 301.638 1056.37 298.097 1056.37 293.854C1056.37 288.964 1052.02 285 1046.64 285C1041.25 285 1036.88 288.964 1036.88 293.854C1036.88 298.17 1040.28 301.76 1044.78 302.544C1045.76 307.977 1046.4 315.581 1044.9 324.396C1044.22 328.276 1043.24 331.812 1042.08 335.014C1034.92 335.428 1028.04 336.848 1021.55 339.135C1020.64 337.659 1019.83 336.108 1019.1 334.28C1017.67 330.659 1017.05 327.265 1016.8 324.441C1021 322.19 1023.16 317.468 1021.69 313.292C1020.06 308.699 1014.63 306.513 1009.57 308.412C1004.52 310.311 1001.74 315.573 1003.38 320.167C1004.79 324.13 1009.02 326.294 1013.4 325.593C1014.68 328.297 1015.91 331.415 1016.86 334.957C1017.38 336.832 1017.76 338.666 1018.06 340.46C1012.16 342.862 1006.63 345.996 1001.54 349.745C998.866 347.756 996.128 345.447 993.422 342.742C987.195 336.513 983.044 330.124 980.317 325.007C983.338 321.571 983.87 316.652 981.338 313.263C978.437 309.385 972.623 308.976 968.352 312.348C964.093 315.722 962.984 321.598 965.875 325.475C968.45 328.901 973.275 329.613 977.317 327.406C981.251 331.033 986.369 336.753 990.325 344.976C992.14 348.737 993.4 352.393 994.291 355.804C993.476 356.574 992.65 357.369 991.857 358.18C987.891 362.272 984.337 366.802 981.295 371.704C979.502 371.174 977.643 370.532 975.742 369.745C969.559 367.186 964.766 363.924 961.289 361.081C962.767 356.66 961.321 351.891 957.648 349.822C953.486 347.471 948.01 349.499 945.423 354.353C942.826 359.204 944.108 365.043 948.292 367.393C951.954 369.459 956.627 368.139 959.463 364.493C963.68 365.992 968.939 368.397 974.362 372.346C975.981 373.525 977.459 374.738 978.839 375.958C974.546 383.908 971.547 392.695 970.124 402.024C966.418 402.349 962.419 402.506 958.127 402.369C951.998 402.176 946.466 401.438 941.631 400.477C941.522 395.598 938.349 391.515 934.046 391.05C929.308 390.539 925.015 394.586 924.45 400.09C923.896 405.593 927.276 410.467 932.003 410.977C936.219 411.431 940.066 408.272 941.272 403.694C946.227 403.797 951.791 404.253 957.822 405.319C962.006 406.058 965.864 406.999 969.439 408.046C969.265 410.165 969.189 412.307 969.189 414.474C969.189 419.62 969.656 424.651 970.569 429.53C966.462 432.322 960.811 435.487 953.606 437.71C947.292 439.659 941.609 440.322 937.078 440.465C935.448 436.127 931.405 433.421 927.308 434.233C922.646 435.16 919.68 440.315 920.701 445.747C921.723 451.181 926.341 454.834 931.003 453.907C935.045 453.105 937.795 449.143 937.806 444.575C942.446 443.024 947.923 441.569 954.149 440.622C961.3 439.534 967.722 439.377 973.134 439.619C975.296 446.352 978.339 452.676 982.088 458.465C980.317 459.905 978.35 461.326 976.122 462.654C971.873 465.198 967.798 466.781 964.255 467.804C961.865 463.873 957.388 462.028 953.519 463.634C949.118 465.471 947.173 471.116 949.194 476.241C950.466 479.458 952.997 481.717 955.801 482.488C957.453 482.951 959.202 482.895 960.843 482.213C961.322 482.009 961.789 481.757 962.213 481.456C965.429 479.265 966.798 474.721 965.44 470.386C968.787 468.611 972.699 466.853 977.198 465.404C980.099 464.474 982.86 463.795 985.457 463.29C987.826 466.44 990.434 469.396 993.226 472.123C993.487 472.383 993.759 472.644 994.02 472.886C992.129 477.224 989.282 482.496 984.989 487.841C980.784 493.073 976.415 496.882 972.732 499.572C969.048 496.882 964.212 496.94 961.245 499.953C957.855 503.389 958.181 509.368 961.973 513.307C965.744 517.238 971.569 517.646 974.948 514.209C977.893 511.227 978.035 506.322 975.535 502.512C978.426 498.636 982.197 494.267 987.011 489.953C992.194 485.323 997.302 481.895 1001.76 479.369C1007.65 483.674 1014.16 487.158 1021.1 489.653C1020.83 492.341 1020.36 495.241 1019.59 498.288C1017.92 504.925 1015.42 510.245 1013.15 514.161C1008.68 513.242 1004.27 515.338 1002.76 519.351C1001.05 523.908 1003.73 529.221 1008.76 531.219C1013.76 533.217 1019.22 531.137 1020.95 526.572C1022.44 522.608 1020.61 518.076 1016.8 515.654C1017.87 510.935 1019.58 505.354 1022.27 499.359C1023.6 496.436 1025 493.771 1026.44 491.343C1031.79 492.829 1037.37 493.74 1043.13 493.991C1044.06 498.622 1044.82 503.803 1045.19 509.465C1045.75 517.888 1045.3 525.346 1044.52 531.503C1040.15 532.373 1036.88 535.914 1036.88 540.147C1036.88 545.037 1041.24 549 1046.64 549C1052.02 549 1056.37 545.037 1056.37 540.147C1056.37 535.93 1053.12 532.396 1048.78 531.511C1048.05 525.215 1047.66 517.775 1048.07 509.465C1048.35 503.859 1048.97 498.685 1049.76 494.007C1055.78 493.771 1061.61 492.821 1067.19 491.236C1067.66 492.081 1068.13 492.959 1068.59 493.861C1071.62 499.815 1073.25 505.396 1074.13 509.863C1070.25 512.178 1068.27 516.678 1069.67 520.692C1071.26 525.297 1076.67 527.523 1081.75 525.67C1086.81 523.81 1089.64 518.571 1088.04 513.965C1086.63 509.88 1082.2 507.669 1077.68 508.515C1075.61 504.851 1073.2 499.319 1072.36 492.236C1072.25 491.358 1072.17 490.498 1072.13 489.653C1078.34 487.443 1084.18 484.43 1089.56 480.742C1093.03 483.641 1096.68 487.102 1100.31 491.212C1105.89 497.532 1109.96 503.763 1112.89 509.059C1109.91 512.487 1109.4 517.369 1111.91 520.74C1114.83 524.614 1120.63 525.021 1124.9 521.649C1129.16 518.279 1130.27 512.406 1127.38 508.524C1124.87 505.176 1120.18 504.412 1116.21 506.452C1111.92 501.992 1107.18 496.347 1102.6 489.409C1099.65 484.925 1097.2 480.572 1095.19 476.485C1097.35 474.69 1099.42 472.781 1101.39 470.758C1104.61 467.444 1107.56 463.845 1110.16 459.995C1114.98 461.377 1120.53 463.4 1126.42 466.437C1132.1 469.354 1136.84 472.562 1140.66 475.551C1139.21 479.889 1140.58 484.584 1144.17 486.679C1148.3 489.109 1153.81 487.175 1156.48 482.375C1159.15 477.566 1157.96 471.709 1153.83 469.279C1150.22 467.16 1145.54 468.371 1142.65 471.929C1138.39 470.262 1133.21 467.737 1127.86 463.862C1122.29 459.841 1118.09 455.527 1115.04 451.807C1117.1 447.844 1118.84 443.677 1120.23 439.338C1122.53 439.42 1124.98 439.631 1127.5 440.021C1134.01 441.028 1139.43 442.92 1143.6 444.805C1143.24 449.436 1145.79 453.676 1149.82 454.74C1154.42 455.959 1159.25 452.603 1160.6 447.243C1161.93 441.882 1159.29 436.553 1154.67 435.334C1150.63 434.261 1146.41 436.731 1144.53 440.995C1140.1 440.622 1134.42 439.622 1128.21 437.154C1125.87 436.211 1123.69 435.163 1121.72 434.066C1122.7 430.046 1123.4 425.91 1123.76 421.67C1127.77 421.337 1132.03 421.126 1136.52 421.117C1144.43 421.094 1151.62 421.678 1157.93 422.539C1158.7 426.999 1162.03 430.395 1166.11 430.526C1170.87 430.663 1174.85 426.292 1175 420.761C1175.15 415.23 1171.42 410.631 1166.67 410.493Z" fill="#FA5752" fill-opacity="0.92"/>
</svg>
