<svg viewBox="0 0 65 67" fill="none" xmlns="http://www.w3.org/2000/svg">
<path opacity="0.93" d="M62.871 31.8204C61.8296 31.7897 60.93 32.5955 60.675 33.7034C59.059 33.8299 57.2149 33.8727 55.1912 33.7442C54.06 33.6709 52.9898 33.5524 51.9861 33.4056C51.9915 33.2117 51.9951 33.0159 51.9951 32.8201C51.9951 31.8672 51.9286 30.9308 51.7993 30.0148C52.3093 29.6211 52.9485 29.207 53.7206 28.8518C55.062 28.2318 56.3189 28.0112 57.2849 27.9481C57.7607 29.0356 58.8489 29.6678 59.8957 29.3926C61.0718 29.0825 61.7434 27.7421 61.3968 26.3975C61.0503 25.0532 59.8167 24.2125 58.6406 24.5227C57.5686 24.8062 56.915 25.9447 57.0694 27.1626C56.2219 27.6482 54.9632 28.1746 53.4046 28.2134C52.6325 28.2338 51.9592 28.1296 51.4133 27.9949C51.0667 26.573 50.5676 25.21 49.9337 23.9248C50.6053 23.3128 51.3989 22.6639 52.329 22.0376C53.6757 21.1277 54.974 20.4769 56.1142 20.0099C56.8576 20.8869 58.0445 21.1787 58.9584 20.644C60.0088 20.0322 60.3069 18.557 59.621 17.3535C58.9333 16.1496 57.5201 15.6722 56.4697 16.2862C55.5539 16.8188 55.2128 18.0023 55.5899 19.0917C54.6113 19.8589 53.4064 20.6687 51.961 21.3911C50.977 21.8847 50.0361 22.2601 49.1849 22.5456C48.49 21.3684 47.673 20.2709 46.7591 19.2692C47.111 17.9798 47.7054 16.4739 48.7181 14.9644C49.668 13.5525 50.7256 12.5223 51.6234 11.7978C52.611 12.4161 53.8535 12.3201 54.561 11.5061C55.3654 10.5841 55.1805 9.09273 54.148 8.17452C53.1173 7.25451 51.6288 7.25651 50.8279 8.17852C50.1169 8.99272 50.1761 10.2474 50.9105 11.1634C50.3305 12.1305 49.4543 13.33 48.165 14.4725C46.7447 15.7336 45.3154 16.4884 44.2291 16.9373C42.9937 15.9802 41.6452 15.1682 40.2033 14.5257C40.4134 13.9402 40.69 13.3505 41.0527 12.7712C41.3435 12.3122 41.656 11.908 41.9738 11.5553C43.0727 12.0061 44.2991 11.6814 44.8521 10.7369C45.4752 9.68223 45.0209 8.25003 43.8376 7.54001C42.6561 6.82998 41.1945 7.10949 40.5732 8.16636C40.0292 9.09472 40.3165 10.3146 41.1945 11.0776C41.0114 11.5673 40.7887 12.0755 40.5247 12.5935C40.2231 13.1893 39.8927 13.7382 39.5461 14.2462C39.4007 14.187 39.2535 14.1299 39.108 14.077C37.3896 13.4282 35.5617 13.0182 33.6566 12.8791C33.3441 12.0265 33.0712 11.0814 32.8809 10.0434C32.4912 7.92533 32.5631 6.08184 32.7426 4.69737C33.8631 4.48048 34.7034 3.59096 34.7034 2.5252C34.7034 1.29718 33.5883 0.301478 32.2129 0.301478C30.8393 0.301478 29.7242 1.29718 29.7242 2.5252C29.7242 3.60947 30.5951 4.51115 31.7425 4.70808C31.9921 6.07223 32.1554 7.98232 31.7694 10.1962C31.5988 11.1709 31.3474 12.0591 31.0529 12.863C29.2268 12.9672 27.4689 13.3236 25.808 13.8981C25.5764 13.5273 25.3699 13.138 25.1849 12.6788C24.8168 11.7696 24.657 10.917 24.5942 10.2075C25.6679 9.64231 26.2228 8.45658 25.8421 7.40751C25.4273 6.25373 24.0411 5.70505 22.7501 6.18185C21.459 6.65865 20.7498 7.98032 21.1664 9.13392C21.5255 10.1296 22.6064 10.6729 23.7269 10.4972C24.0537 11.1761 24.3661 11.9593 24.6139 12.8487C24.7432 13.3198 24.8419 13.7803 24.9174 14.2308C23.4109 14.8343 21.9959 15.6211 20.6977 16.5627C20.0136 16.0634 19.3151 15.4835 18.6256 14.8038C17.0365 13.2394 15.9753 11.635 15.2786 10.3496C16.0507 9.48658 16.1853 8.2513 15.5389 7.40007C14.7973 6.42633 13.3142 6.32342 12.2243 7.17048C11.1343 8.01735 10.8506 9.49348 11.5922 10.467C12.2458 11.3277 13.4812 11.5067 14.5101 10.9524C15.5174 11.8629 16.8228 13.2999 17.8355 15.365C18.297 16.3095 18.6202 17.228 18.8446 18.0847C18.6364 18.2782 18.4281 18.4778 18.227 18.6815C17.2106 19.7091 16.3057 20.8469 15.5282 22.0784C15.0703 21.9448 14.5962 21.7838 14.1114 21.5862C12.5295 20.9433 11.3049 20.124 10.4179 19.4102C10.7949 18.2998 10.4287 17.1015 9.48956 16.5823C8.42476 15.992 7.02599 16.5013 6.36521 17.7199C5.70443 18.9387 6.03122 20.4052 7.09781 20.9952C8.03511 21.5145 9.22739 21.1827 9.95282 20.2671C11.0302 20.6435 12.3697 21.2475 13.7559 22.2392C14.1689 22.5354 14.5496 22.8402 14.9015 23.1467C13.8044 25.1434 13.0395 27.3502 12.6749 29.6932C11.7269 29.7752 10.7052 29.8141 9.60985 29.7801C8.04588 29.7313 6.63274 29.546 5.39916 29.3048C5.37043 28.0795 4.55882 27.0537 3.45812 26.937C2.25147 26.8088 1.15436 27.8252 1.0125 29.2075C0.86706 30.5894 1.73254 31.8138 2.93918 31.942C4.01475 32.0559 4.99874 31.2626 5.304 30.1128C6.57169 30.1388 7.99382 30.2531 9.53445 30.521C10.5992 30.7063 11.5886 30.943 12.499 31.2056C12.4559 31.7378 12.4343 32.2759 12.4343 32.8201C12.4343 34.1125 12.5546 35.3766 12.7881 36.6018C11.7412 37.3025 10.294 38.0977 8.45528 38.6558C6.84283 39.1455 5.39019 39.3121 4.23382 39.3478C3.81904 38.2583 2.78656 37.5788 1.73972 37.7828C0.547443 38.0158 -0.210302 39.3104 0.0518562 40.6749C0.312219 42.0396 1.49014 42.9569 2.68422 42.7239C3.7149 42.5228 4.41696 41.5276 4.42055 40.3802C5.60565 39.9907 7.00264 39.6255 8.59354 39.3872C10.4233 39.1141 12.0626 39.075 13.4417 39.1357C13.9965 40.8263 14.7722 42.415 15.7293 43.8691C15.2786 44.2305 14.7722 44.5875 14.2084 44.9211C13.1221 45.56 12.0806 45.9575 11.1774 46.2143C10.5633 45.2275 9.42132 44.7639 8.43553 45.1672C7.30969 45.6284 6.81231 47.0463 7.33124 48.3337C7.65445 49.1415 8.30086 49.7087 9.01551 49.9025C9.43748 50.0189 9.88458 50.0045 10.303 49.833C10.4287 49.7822 10.5454 49.7189 10.6531 49.6434C11.4773 49.0929 11.8256 47.9518 11.4773 46.863C12.332 46.4172 13.3303 45.9758 14.4831 45.6117C15.2211 45.3781 15.9268 45.2079 16.5912 45.0808C17.1963 45.872 17.8607 46.6141 18.5753 47.2995C18.6435 47.3645 18.71 47.4298 18.7782 47.491C18.2952 48.5805 17.568 49.9045 16.4709 51.2471C15.3971 52.5608 14.2802 53.5178 13.3411 54.193C12.3984 53.5178 11.1649 53.532 10.4053 54.2888C9.54163 55.152 9.62422 56.6536 10.592 57.6431C11.5563 58.6304 13.0431 58.7324 13.9067 57.8694C14.6555 57.1207 14.6932 55.8885 14.054 54.9315C14.7938 53.9585 15.758 52.8608 16.9898 51.7774C18.3113 50.6145 19.6168 49.7535 20.7534 49.1192C22.2581 50.2004 23.9208 51.0756 25.6967 51.7021C25.6248 52.3773 25.5045 53.1056 25.3088 53.8706C24.8833 55.5375 24.2422 56.8739 23.6604 57.8572C22.522 57.6267 21.3962 58.1529 21.0101 59.1608C20.572 60.3055 21.2561 61.6397 22.5382 62.1415C23.8203 62.6439 25.2154 62.1214 25.6536 60.9747C26.036 59.9792 25.5674 58.8406 24.596 58.2328C24.8707 57.0472 25.3034 55.6457 25.9929 54.1402C26.3305 53.4056 26.6896 52.7364 27.0577 52.1263C28.4242 52.4996 29.8499 52.7283 31.3187 52.7914C31.5593 53.9543 31.7532 55.256 31.8466 56.6781C31.9867 58.7936 31.8735 60.6665 31.6742 62.2132C30.5574 62.4321 29.7242 63.3216 29.7242 64.3838C29.7242 65.6114 30.8393 66.6077 32.2147 66.6077C33.5901 66.6077 34.7034 65.6114 34.7034 64.3838C34.7034 63.3253 33.8738 62.4376 32.7641 62.215C32.5774 60.6338 32.4751 58.7651 32.581 56.6781C32.6546 55.2702 32.8126 53.9708 33.0137 52.7956C34.549 52.7364 36.0393 52.4976 37.4632 52.0999C37.5853 52.3119 37.7074 52.5323 37.8224 52.7588C38.5945 54.2543 39.0111 55.656 39.2373 56.7781C38.2461 57.3594 37.7434 58.4896 38.0971 59.4975C38.5065 60.6543 39.8855 61.2135 41.1837 60.7482C42.4784 60.281 43.1966 58.9649 42.789 57.8081C42.4281 56.7822 41.2986 56.2272 40.1441 56.4394C39.6144 55.5192 38.9985 54.1298 38.7848 52.3506C38.7579 52.1304 38.7381 51.9141 38.7255 51.7021C40.3129 51.1471 41.805 50.3902 43.1769 49.4638C44.0639 50.1922 44.9976 51.0614 45.9259 52.0938C47.3516 53.681 48.3877 55.2459 49.1365 56.5759C48.3769 57.4371 48.244 58.6631 48.8887 59.5098C49.6302 60.4828 51.1116 60.585 52.2034 59.7383C53.2933 58.8914 53.5788 57.4166 52.8372 56.4412C52.1962 55.6009 51.0003 55.409 49.984 55.9212C48.8905 54.801 47.6784 53.3831 46.5095 51.6407C45.7535 50.5145 45.1305 49.4212 44.6151 48.3948C45.1682 47.944 45.6979 47.4645 46.1989 46.9566C47.023 46.1241 47.7754 45.2202 48.4398 44.2534C49.668 44.6 51.0883 45.1081 52.593 45.8711C54.0439 46.6036 55.2523 47.4093 56.2273 48.1601C55.8574 49.2497 56.2093 50.4289 57.1233 50.9552C58.1791 51.5654 59.5851 51.0797 60.2692 49.874C60.9515 48.6663 60.6481 47.1951 59.5923 46.5853C58.6693 46.0528 57.477 46.3568 56.7354 47.2503C55.6473 46.8319 54.3275 46.1976 52.9593 45.2244C51.5372 44.2145 50.4652 43.1312 49.6859 42.1966C50.212 41.2011 50.6555 40.1546 51.0093 39.0651C51.6 39.0856 52.2213 39.1386 52.8695 39.2364C54.5305 39.4896 55.9149 39.9649 56.9797 40.4383C56.8881 41.601 57.5381 42.666 58.5706 42.9332C59.7449 43.2392 60.9785 42.3967 61.3214 41.0501C61.6626 39.7036 60.9857 38.3654 59.8113 38.0594C58.7735 37.7898 57.6943 38.4104 57.2185 39.4812C56.0854 39.3874 54.6382 39.1366 53.0545 38.5162C52.4511 38.2797 51.8963 38.0164 51.39 37.741C51.6431 36.7312 51.8209 35.6925 51.9125 34.6278C52.936 34.5441 54.0259 34.4911 55.1697 34.4889C57.1933 34.4828 59.0284 34.6296 60.6409 34.8459C60.8348 35.9662 61.6877 36.8188 62.7292 36.8515C63.943 36.8862 64.9611 35.7885 64.9988 34.3991C65.0383 33.0097 64.0867 31.855 62.871 31.8204Z" fill="#FA5752" fill-opacity="0.9"/>
</svg>
