<svg width="284" height="263" viewBox="0 0 284 263" fill="none" xmlns="http://www.w3.org/2000/svg">
<path d="M107.802 249.258C92.6549 254.625 77.3612 257.105 61.0481 254.005C42.8654 250.549 27.0944 234.989 18.1832 219.471C14.8722 213.708 12.2363 207.267 12.5807 200.63C13.3822 185.299 27.8665 183.585 40.1614 186.065C47.0921 187.46 53.4559 190.634 59.7475 193.778C70.193 199.002 82.4458 201.57 91.8105 208.81C94.9529 211.247 97.3128 214.174 100.964 215.947C106.644 218.706 113.128 220.009 118.962 222.521C123.943 224.676 129.511 228.221 129.518 233.645C129.519 239.209 123.714 242.754 118.614 244.969C115.004 246.547 111.41 247.986 107.802 249.258Z" fill="url(#paint0_linear_43_1107)"/>
<path d="M52.0501 51.4961C76.8631 14.929 128.172 0.246645 169.761 13.9951C189.816 20.6281 206.623 34.4399 222.125 48.7778C235.789 61.4147 249.045 75.0448 258.377 91.2903C264.749 102.379 269.309 115.672 272.529 128.081C277.344 146.662 272.971 170.603 248.952 168.849C243.317 168.438 238.442 166.411 233.171 164.638C228.908 163.201 224.73 164.063 220.304 163.361C209.162 161.597 198.429 157.495 188.28 152.691C167.596 142.89 148.697 129.575 127.425 120.987C109.993 113.959 91.3767 110.33 72.5808 110.296C64.6512 110.283 56.3135 110.838 49.2203 107.293C31.7374 98.5454 39.5993 74.959 46.1286 61.6908C47.8584 58.1566 49.8372 54.7497 52.0501 51.4961V51.4961Z" fill="url(#paint1_linear_43_1107)"/>
<path d="M246.597 57.0155C250.682 60.7154 266.732 70.8158 267.041 58.9629C267.114 56.0101 265.775 53.143 263.952 50.9805C261.867 48.4984 259.502 47.1964 257.874 44.3047C255.881 40.8131 253.613 37.5316 251.099 34.5025C245.959 28.1979 239.958 22.3726 232.676 19.7772C227.569 17.9589 218.922 18.4162 216.496 24.9617C212.962 34.49 228.074 36.2359 232.683 39.7084C237.057 42.9952 239.534 48.6428 242.999 53.1312C244.094 54.5465 245.298 55.8468 246.597 57.0155V57.0155Z" fill="url(#paint2_linear_43_1107)"/>
<path d="M171.059 45.4257C179.712 50.52 186.202 58.1453 194.091 64.2865C207.225 74.5094 225.228 76.6008 240.29 83.7101C255.648 90.9637 267.245 102.237 272.488 118.484C279.262 139.455 279.906 164.395 274.151 185.955C267.813 209.687 252.929 225.452 231.168 235.965C209.419 246.472 185.326 251.375 161.296 252.386C158.977 252.486 156.662 252.54 154.338 252.554C102.135 252.858 32.6502 234.483 14.8773 178.404C14.7144 177.892 14.5583 177.379 14.4017 176.86C12.5704 170.612 11.4936 164.167 11.1944 157.664C10.0765 134.607 14.1118 109.158 22.1954 87.5433C27.6323 72.9915 39.3397 60.6874 51.6763 51.9204C69.009 39.6039 90.1575 36.4607 111.206 34.9829C126.793 33.8893 144.323 33.4897 159.063 39.4517C163.205 41.1405 167.215 43.1374 171.059 45.4257Z" fill="url(#paint3_linear_43_1107)"/>
<path d="M73.3902 80.7604C73.3902 80.7604 126.466 151.627 139.743 157.487C153.024 163.351 169.672 162.03 171.128 168.829C172.584 175.63 143.255 164.126 147.934 174.618C152.612 185.114 170.846 197.093 170.932 207.659C171.021 218.229 141.917 184.973 141.917 184.973C141.917 184.973 169.339 215.399 160.259 216.119C151.175 216.838 127.688 187.091 127.688 187.091C127.688 187.091 153.961 226.114 145.251 222.55C136.546 218.986 55.8046 125.618 43.3535 115.738C30.9025 105.861 73.3902 80.7604 73.3902 80.7604Z" fill="#E27B5A"/>
<path d="M227.787 97.9628C227.787 97.9628 167.251 162.554 153.407 166.92C139.563 171.281 123.163 168.14 120.966 174.734C118.773 181.332 149.187 173.128 143.382 183.045C137.581 192.959 118.143 202.858 116.894 213.353C115.65 223.845 148.228 193.997 148.228 193.997C148.228 193.997 117.628 221.22 126.574 222.933C135.525 224.65 162.138 197.669 162.138 197.669C162.138 197.669 131.735 233.566 140.781 230.981C149.828 228.396 240.338 144.485 253.797 136.037C267.259 127.588 227.787 97.9628 227.787 97.9628Z" fill="#FFCEB0"/>
<path d="M176.25 142.813C176.25 142.813 194.869 178.069 211.985 181.82C229.099 185.572 266.071 152.105 274.138 135.527C282.208 118.954 242.877 68.7972 234.46 61.5831C222.301 60.0987 167.618 111.385 176.25 142.813Z" fill="#FB4C47"/>
<path d="M60.721 46.5539C60.721 46.5539 121.959 106.907 119.057 122.577C116.159 138.251 92.7756 157.026 73.917 163.175C55.0585 169.32 13.8298 144.563 13.8298 126.51C10.8234 95.8502 26.4547 63.988 60.721 46.5539Z" fill="#128E5A"/>
<defs>
<linearGradient id="paint0_linear_43_1107" x1="11.2362" y1="202.747" x2="26.9514" y2="257.314" gradientUnits="userSpaceOnUse">
<stop stop-color="#FFD0D0"/>
<stop offset="1" stop-color="#FFF8F8"/>
</linearGradient>
<linearGradient id="paint1_linear_43_1107" x1="304.772" y1="56.8226" x2="128.881" y2="16.207" gradientUnits="userSpaceOnUse">
<stop stop-color="#FFF8F8"/>
<stop offset="1" stop-color="#FFD0D0"/>
</linearGradient>
<linearGradient id="paint2_linear_43_1107" x1="267.458" y1="58.7551" x2="207.112" y2="32.9803" gradientUnits="userSpaceOnUse">
<stop stop-color="#FFD0D0"/>
<stop offset="1" stop-color="#FFF7F7"/>
</linearGradient>
<linearGradient id="paint3_linear_43_1107" x1="253.838" y1="228.726" x2="11.2439" y2="88.241" gradientUnits="userSpaceOnUse">
<stop stop-color="#FFCFCF"/>
<stop offset="1" stop-color="#FFF8F8"/>
</linearGradient>
</defs>
</svg>
