<svg viewBox="0 0 191 63" fill="none" xmlns="http://www.w3.org/2000/svg">
<path d="M85.1321 39.19C84.1441 39.19 83.2195 39.019 82.3581 38.677C81.4968 38.3223 80.7431 37.8347 80.0971 37.214C79.4638 36.5933 78.9635 35.8713 78.5961 35.048C78.2415 34.212 78.0641 33.3127 78.0641 32.35C78.0641 31.3747 78.2415 30.4753 78.5961 29.652C78.9635 28.816 79.4701 28.0877 80.1161 27.467C80.7621 26.8463 81.5095 26.365 82.3581 26.023C83.2195 25.6683 84.1441 25.491 85.1321 25.491C85.8668 25.491 86.5761 25.5923 87.2601 25.795C87.9441 25.9977 88.5775 26.2827 89.1601 26.65C89.7555 27.0173 90.2621 27.4607 90.6801 27.98L88.8181 29.823C88.3368 29.2277 87.7795 28.778 87.1461 28.474C86.5255 28.17 85.8541 28.018 85.1321 28.018C84.5368 28.018 83.9795 28.132 83.4601 28.36C82.9408 28.5753 82.4911 28.8793 82.1111 29.272C81.7311 29.652 81.4335 30.108 81.2181 30.64C81.0028 31.1593 80.8951 31.7293 80.8951 32.35C80.8951 32.958 81.0028 33.528 81.2181 34.06C81.4335 34.5793 81.7375 35.0353 82.1301 35.428C82.5228 35.808 82.9788 36.1057 83.4981 36.321C84.0301 36.5363 84.6065 36.644 85.2271 36.644C85.9238 36.644 86.5761 36.4983 87.1841 36.207C87.7921 35.9157 88.3305 35.4977 88.7991 34.953L90.6041 36.739C90.1861 37.2457 89.6858 37.6827 89.1031 38.05C88.5205 38.4173 87.8871 38.7023 87.2031 38.905C86.5318 39.095 85.8415 39.19 85.1321 39.19ZM98.4535 39.209C97.4655 39.209 96.5472 39.038 95.6985 38.696C94.8498 38.3413 94.1025 37.8537 93.4565 37.233C92.8232 36.5997 92.3228 35.8713 91.9555 35.048C91.6008 34.212 91.4235 33.3127 91.4235 32.35C91.4235 31.3873 91.6008 30.4943 91.9555 29.671C92.3228 28.835 92.8232 28.1067 93.4565 27.486C94.1025 26.8527 94.8498 26.365 95.6985 26.023C96.5472 25.6683 97.4655 25.491 98.4535 25.491C99.4415 25.491 100.36 25.6683 101.209 26.023C102.07 26.365 102.817 26.8527 103.451 27.486C104.097 28.1067 104.597 28.835 104.952 29.671C105.306 30.4943 105.484 31.3873 105.484 32.35C105.484 33.3127 105.306 34.212 104.952 35.048C104.597 35.8713 104.097 36.5997 103.451 37.233C102.817 37.8537 102.07 38.3413 101.209 38.696C100.36 39.038 99.4415 39.209 98.4535 39.209ZM98.4535 36.682C99.0615 36.682 99.6188 36.5743 100.126 36.359C100.632 36.131 101.076 35.827 101.456 35.447C101.836 35.0543 102.133 34.592 102.349 34.06C102.564 33.528 102.672 32.958 102.672 32.35C102.672 31.7293 102.564 31.1593 102.349 30.64C102.133 30.108 101.836 29.652 101.456 29.272C101.076 28.8793 100.632 28.5753 100.126 28.36C99.6188 28.132 99.0615 28.018 98.4535 28.018C97.8582 28.018 97.3072 28.132 96.8005 28.36C96.2938 28.5753 95.8505 28.8793 95.4705 29.272C95.0905 29.652 94.7928 30.108 94.5775 30.64C94.3622 31.1593 94.2545 31.723 94.2545 32.331C94.2545 32.9517 94.3622 33.528 94.5775 34.06C94.7928 34.592 95.0905 35.0543 95.4705 35.447C95.8505 35.827 96.2938 36.131 96.8005 36.359C97.3072 36.5743 97.8582 36.682 98.4535 36.682ZM110.773 39L105.377 25.7H108.36L112.426 36.169L116.587 25.7H119.437L113.965 39H110.773ZM120.566 39V25.7H123.321V39H120.566ZM128.498 36.549H130.816C131.411 36.549 131.962 36.4477 132.469 36.245C132.988 36.0297 133.438 35.732 133.818 35.352C134.211 34.972 134.508 34.5287 134.711 34.022C134.926 33.5153 135.034 32.9643 135.034 32.369C135.034 31.7737 134.926 31.2227 134.711 30.716C134.496 30.1967 134.198 29.747 133.818 29.367C133.438 28.987 132.988 28.6893 132.469 28.474C131.962 28.2587 131.411 28.151 130.816 28.151H128.498V36.549ZM125.743 39V25.7H130.854C131.855 25.7 132.779 25.871 133.628 26.213C134.477 26.5423 135.218 27.011 135.851 27.619C136.484 28.227 136.978 28.9363 137.333 29.747C137.7 30.5577 137.884 31.4317 137.884 32.369C137.884 33.319 137.707 34.193 137.352 34.991C136.997 35.789 136.497 36.492 135.851 37.1C135.218 37.6953 134.477 38.164 133.628 38.506C132.779 38.8353 131.855 39 130.854 39H125.743ZM143.175 34.687V32.483H150.319V34.687H143.175ZM157.922 39V28.341L155.319 29.424V27.144L158.872 25.7H160.525V39H157.922ZM167.149 25.491C168.277 25.491 169.265 25.7697 170.113 26.327C170.975 26.8717 171.64 27.638 172.108 28.626C172.59 29.614 172.83 30.7603 172.83 32.065C172.83 33.4837 172.564 34.7313 172.032 35.808C171.513 36.8847 170.778 37.7207 169.828 38.316C168.878 38.9113 167.77 39.209 166.503 39.209C165.819 39.209 165.129 39.095 164.432 38.867C163.748 38.6263 163.178 38.3097 162.722 37.917L164.128 36.112C164.496 36.4033 164.888 36.6187 165.306 36.758C165.737 36.8973 166.199 36.967 166.693 36.967C167.479 36.967 168.137 36.777 168.669 36.397C169.214 36.0043 169.626 35.4407 169.904 34.706C170.196 33.9587 170.348 33.0657 170.36 32.027C169.917 32.635 169.385 33.11 168.764 33.452C168.156 33.7813 167.504 33.946 166.807 33.946C165.946 33.946 165.18 33.775 164.508 33.433C163.837 33.091 163.311 32.616 162.931 32.008C162.551 31.3873 162.361 30.6843 162.361 29.899C162.361 29.0503 162.564 28.2967 162.969 27.638C163.387 26.9793 163.957 26.46 164.679 26.08C165.414 25.6873 166.237 25.491 167.149 25.491ZM167.225 32.008C167.808 32.008 168.353 31.8877 168.859 31.647C169.379 31.3937 169.835 31.0517 170.227 30.621C170.113 30.013 169.917 29.4873 169.638 29.044C169.36 28.588 169.018 28.2397 168.612 27.999C168.22 27.7457 167.77 27.619 167.263 27.619C166.795 27.619 166.37 27.714 165.99 27.904C165.623 28.094 165.332 28.36 165.116 28.702C164.901 29.0313 164.793 29.4113 164.793 29.842C164.793 30.26 164.895 30.6337 165.097 30.963C165.313 31.2923 165.604 31.552 165.971 31.742C166.339 31.9193 166.757 32.008 167.225 32.008Z" fill="#035755"/>
<path d="M45.3638 31.4997C45.3638 32.5498 46.2133 33.4012 47.2615 33.4012H51.5773C53.7744 33.4012 55.945 33.9058 57.9065 34.8974C58.4913 35.1931 59.1631 35.3414 59.8731 35.2939C61.7545 35.168 63.2797 33.6348 63.3998 31.7494C63.5408 29.5359 61.7912 27.697 59.6124 27.697C59.0222 27.697 58.4636 27.832 57.9656 28.0729C55.9668 29.0398 53.7961 29.5984 51.5766 29.5984H47.2615C46.2135 29.5983 45.3638 30.4497 45.3638 31.4997Z" fill="#FB4C47"/>
<path d="M19.6478 43.8447C19.0351 43.2308 18.0418 43.2308 17.4291 43.8447L14.906 46.3728C13.6216 47.6597 12.0583 48.6361 10.333 49.2054C9.81855 49.3751 9.33937 49.6818 8.95204 50.1255C7.92564 51.3011 7.92847 53.0908 8.95831 54.2634C10.1673 55.6401 12.2631 55.6903 13.5368 54.414C13.8818 54.0684 14.1296 53.6622 14.2803 53.2297C14.8846 51.4937 15.8277 49.8957 17.1253 48.5956L19.6479 46.068C20.2605 45.4539 20.2605 44.4586 19.6478 43.8447V43.8447Z" fill="#FB4C47"/>
<path d="M42.4059 21.0433C43.0471 21.6857 44.0865 21.6857 44.7277 21.0433L47.368 18.3979C48.7121 17.0512 50.3479 16.0295 52.1533 15.4337C52.6915 15.2561 53.1931 14.9351 53.5983 14.4708C54.6723 13.2406 54.6694 11.3678 53.5917 10.1408C52.3265 8.7003 50.1334 8.64776 48.8006 9.98318C48.4395 10.3449 48.1803 10.7699 48.0226 11.2225C47.3902 13.0391 46.4033 14.7113 45.0456 16.0718L42.4058 18.7168C41.7648 19.3594 41.7648 20.4008 42.4059 21.0433V21.0433Z" fill="#FB4C47"/>
<path d="M31.9685 44.9199C30.9205 44.9199 30.0708 45.7712 30.0708 46.8213V51.1457C30.0708 53.3471 29.5672 55.5219 28.5775 57.4873C28.2824 58.0732 28.1344 58.7463 28.1818 59.4577C28.3074 61.3428 29.8376 62.871 31.7193 62.9914C33.9284 63.1326 35.7637 61.3796 35.7637 59.1965C35.7637 58.6052 35.629 58.0454 35.3886 57.5465C34.4236 55.5438 33.8661 53.3688 33.8661 51.1449V46.8213C33.8662 45.7713 33.0165 44.9199 31.9685 44.9199V44.9199Z" fill="#FFA2A1"/>
<path d="M35.3914 57.5466C34.4264 55.5439 33.8689 53.369 33.8689 51.145V46.8213C33.8689 45.7713 33.0193 44.9199 31.9712 44.9199C30.923 44.9199 30.0735 45.7712 30.0735 46.8213V51.145C30.0735 53.369 30.631 55.5438 31.596 57.5466C31.8365 58.0456 31.9712 58.6053 31.9712 59.1967C31.9712 60.6031 31.2088 61.8301 30.0762 62.488C30.5675 62.7743 31.1271 62.9535 31.7221 62.9915C33.9313 63.1328 35.7666 61.3797 35.7666 59.1967C35.7666 58.6053 35.6319 58.0456 35.3914 57.5466V57.5466Z" fill="#FB4C47"/>
<path d="M17.8065 23.647C21.2301 23.647 24.0055 20.8662 24.0055 17.4358C24.0055 14.0055 21.2301 11.2246 17.8065 11.2246C14.3828 11.2246 11.6074 14.0055 11.6074 17.4358C11.6074 20.8662 14.3828 23.647 17.8065 23.647Z" fill="#FF807E"/>
<path d="M17.8057 11.2246C17.1436 11.2246 16.5063 11.3297 15.908 11.5223C18.4031 12.3255 20.2093 14.6689 20.2093 17.4358C20.2093 20.2028 18.4031 22.5462 15.908 23.3494C16.5061 23.542 17.1435 23.647 17.8057 23.647C21.2293 23.647 24.0047 20.8662 24.0047 17.4358C24.0047 14.0054 21.2292 11.2246 17.8057 11.2246V11.2246Z" fill="#FB4C47"/>
<path d="M31.9697 51.7812C43.1489 51.7812 52.2115 42.7009 52.2115 31.4997C52.2115 20.2986 43.1489 11.2183 31.9697 11.2183C20.7906 11.2183 11.728 20.2986 11.728 31.4997C11.728 42.7009 20.7906 51.7812 31.9697 51.7812Z" fill="#FFBFBE"/>
<path d="M31.9712 11.2183C31.3311 11.2183 30.6984 11.2494 30.0735 11.3077C40.3626 12.2665 48.4176 20.94 48.4176 31.4997C48.4176 42.0595 40.3628 50.733 30.0736 51.6918C30.6984 51.75 31.3312 51.7812 31.9713 51.7812C43.1505 51.7812 52.213 42.701 52.213 31.4997C52.213 20.2985 43.1504 11.2183 31.9712 11.2183V11.2183Z" fill="#FFA2A2"/>
<path d="M39.5584 28.6866C41.8292 28.6866 43.67 26.8422 43.67 24.567C43.67 22.2917 41.8292 20.4473 39.5584 20.4473C37.2876 20.4473 35.4468 22.2917 35.4468 24.567C35.4468 26.8422 37.2876 28.6866 39.5584 28.6866Z" fill="#FFA2A1"/>
<path d="M39.5613 20.4473C38.8765 20.4473 38.2314 20.616 37.6636 20.9126C38.9789 21.5998 39.8775 22.9778 39.8775 24.567C39.8775 26.1561 38.9789 27.5342 37.6636 28.2213C38.2314 28.5179 38.8765 28.6866 39.5613 28.6866C41.8321 28.6866 43.6729 26.8422 43.6729 24.567C43.6729 22.2917 41.8321 20.4473 39.5613 20.4473V20.4473Z" fill="#FF807E"/>
<path d="M24.7322 42.2112C26.2694 42.2112 27.5154 40.9627 27.5154 39.4225C27.5154 37.8823 26.2694 36.6338 24.7322 36.6338C23.1951 36.6338 21.949 37.8823 21.949 39.4225C21.949 40.9627 23.1951 42.2112 24.7322 42.2112Z" fill="#FF807E"/>
<path d="M45.7396 50.3442C47.8357 50.3442 49.5349 48.6417 49.5349 46.5415C49.5349 44.4413 47.8357 42.7388 45.7396 42.7388C43.6435 42.7388 41.9443 44.4413 41.9443 46.5415C41.9443 48.6417 43.6435 50.3442 45.7396 50.3442Z" fill="#FB4C47"/>
<path d="M45.7402 42.7388C45.0487 42.7388 44.4009 42.9251 43.8425 43.2488C44.9766 43.9063 45.7402 45.1342 45.7402 46.5416C45.7402 47.949 44.9766 49.1768 43.8425 49.8344C44.4009 50.1582 45.0487 50.3445 45.7402 50.3445C47.8364 50.3445 49.5355 48.6419 49.5355 46.5417C49.5355 44.4416 47.8364 42.7388 45.7402 42.7388V42.7388Z" fill="#FF807E"/>
<path d="M18.5752 31.4997C18.5752 32.5498 17.7257 33.4012 16.6775 33.4012H12.3617C10.1646 33.4012 7.99405 33.9058 6.03249 34.8974C5.4477 35.1931 4.77596 35.3414 4.06591 35.2939C2.18454 35.168 0.659315 33.6348 0.539212 31.7494C0.398233 29.5359 2.14783 27.697 4.32662 27.697C4.91682 27.697 5.47545 27.832 5.97342 28.0729C7.97219 29.0398 10.1429 29.5984 12.3624 29.5984H16.6777C17.7255 29.5983 18.5752 30.4497 18.5752 31.4997Z" fill="#FB4C47"/>
<path d="M31.9684 18.0794C33.0164 18.0794 33.8661 17.2282 33.8661 16.178V11.8537C33.8661 9.65229 34.3697 7.47746 35.3594 5.51205C35.6545 4.92611 35.8024 4.25305 35.755 3.5416C35.6294 1.65654 34.0993 0.128316 32.2175 0.00797766C30.0084 -0.133279 28.1731 1.61975 28.1731 3.80283C28.1731 4.39418 28.3078 4.95392 28.5483 5.45287C29.5133 7.45556 30.0708 9.63051 30.0708 11.8544V16.1781C30.0707 17.2281 30.9204 18.0794 31.9684 18.0794Z" fill="#FFA2A1"/>
<path d="M35.756 3.54159C35.6304 1.65653 34.1003 0.128306 32.2185 0.00796756C31.4326 -0.0423581 30.6947 0.148116 30.0691 0.51147C31.1318 1.13076 31.8747 2.25256 31.9606 3.54159C32.0081 4.25304 31.8601 4.9261 31.565 5.51204C30.5753 7.47745 30.0717 9.65228 30.0717 11.8537V16.178C30.0717 17.2281 30.9212 18.0794 31.9694 18.0794C33.0175 18.0794 33.8671 17.2282 33.8671 16.178V11.8537C33.8671 9.65228 34.3707 7.47745 35.3604 5.51204C35.6555 4.9261 35.8036 4.25304 35.756 3.54159V3.54159Z" fill="#FB4C47"/>
<path d="M59.6158 27.6992C59.026 27.6992 58.4677 27.8341 57.97 28.0749C57.8819 28.1175 57.793 28.1583 57.7043 28.1993C58.913 28.8925 59.7045 30.2329 59.6078 31.7493C59.5252 33.0462 58.7773 34.1761 57.7061 34.7957C57.7743 34.8288 57.843 34.8612 57.9108 34.8954C58.4953 35.1908 59.1666 35.3391 59.8763 35.2916C61.7565 35.1657 63.2809 33.6336 63.4009 31.7493C63.5418 29.537 61.7932 27.6992 59.6158 27.6992V27.6992Z" fill="#FF807E"/>
</svg>
