<svg viewBox="0 0 214 221" fill="none" xmlns="http://www.w3.org/2000/svg">
<path d="M81.5022 210.082C70.2278 214.068 58.8367 215.889 46.6722 213.529C33.1136 210.896 21.3224 199.201 14.6433 187.554C12.1616 183.228 10.1814 178.397 10.4217 173.425C10.9811 161.94 21.7709 160.691 30.9394 162.577C36.1077 163.639 40.858 166.032 45.5544 168.402C53.3514 172.341 62.4888 174.294 69.4855 179.74C71.8332 181.573 73.5991 183.772 76.3246 185.109C80.5644 187.189 85.3993 188.181 89.753 190.076C93.4703 191.703 97.6282 194.372 97.647 198.436C97.6613 202.604 93.3445 205.247 89.5494 206.894C86.863 208.068 84.1881 209.138 81.5022 210.082Z" fill="url(#paint0_linear_96_1144)"/>
<path d="M39.9144 61.9279C58.3082 34.5846 96.4934 23.7032 127.508 34.1038C142.464 39.1216 155.018 49.5112 166.601 60.292C176.812 69.7939 186.72 80.039 193.712 92.2347C198.486 100.559 201.916 110.531 204.345 119.838C207.978 133.773 204.78 151.703 186.883 150.332C182.684 150.011 179.047 148.48 175.116 147.139C171.937 146.052 168.827 146.689 165.528 146.152C157.224 144.804 149.218 141.705 141.646 138.081C126.214 130.688 112.102 120.665 96.2351 114.18C83.2319 108.871 69.3552 106.108 55.3534 106.039C49.4464 106.01 43.2368 106.407 37.9441 103.733C24.899 97.137 30.6973 79.4808 35.5285 69.5535C36.8083 66.9092 38.274 64.3609 39.9144 61.9279Z" fill="url(#paint1_linear_96_1144)"/>
<path d="M185.107 66.445C188.157 69.2233 200.13 76.8193 200.33 67.9504C200.378 65.7409 199.374 63.5923 198.011 61.9698C196.453 60.1075 194.69 59.1276 193.47 56.9599C191.978 54.3424 190.282 51.8814 188.402 49.6088C184.561 44.8789 180.079 40.5057 174.652 38.5463C170.846 37.1737 164.41 37.4955 162.62 42.3878C160.013 49.5097 171.267 50.8517 174.706 53.4611C177.97 55.9309 179.828 60.1629 182.419 63.5298C183.237 64.5915 184.137 65.5674 185.107 66.445Z" fill="url(#paint2_linear_96_1144)"/>
<path d="M128.402 57.5719C134.858 61.4079 139.711 67.1346 145.601 71.7529C155.407 79.4408 168.818 81.0497 180.052 86.4101C191.507 91.8792 200.171 100.35 204.116 112.532C209.212 128.255 209.753 146.936 205.52 163.071C200.859 180.832 189.814 192.604 173.635 200.427C157.464 208.246 139.534 211.861 121.642 212.562C119.916 212.631 118.192 212.666 116.461 212.672C77.5867 212.776 25.7962 198.849 12.4226 156.805C12.3 156.42 12.1825 156.036 12.0646 155.647C10.6854 150.963 9.8676 146.133 9.62873 141.261C8.73937 123.989 11.6817 104.937 17.6481 88.7671C21.6611 77.8806 30.3492 68.6924 39.5145 62.155C52.3917 52.9708 68.1331 50.6664 83.8045 49.6092C95.4091 48.8268 108.463 48.5688 119.454 53.0691C122.543 54.3438 125.534 55.8489 128.402 57.5719Z" fill="url(#paint3_linear_96_1144)"/>
<path d="M155.831 208.659C105.883 223.182 64.2591 209.177 49.6908 200.36L36.1631 189.986L40.8458 182.206L69.9824 179.612L118.37 177.019L157.392 184.799L197.975 171.313H202.138C195.894 192.476 168.665 205.028 155.831 208.659Z" fill="#FB4C47"/>
<path d="M53.6447 188.753H177.867C177.867 188.753 182.216 117.329 166.39 106.878C150.566 96.4289 76.5611 98.6111 60.159 107.536C43.7568 116.464 53.6447 188.753 53.6447 188.753Z" fill="#FB4C47"/>
<path d="M74.3262 91.8291C74.147 91.8291 73.9657 91.7708 73.8146 91.6456C73.4736 91.3672 65.5088 84.663 69.8646 71.151C71.3885 66.4261 72.8821 63.0805 74.1967 60.1256C76.5688 54.8092 78.2826 50.965 78.6086 42.7521C78.6258 42.3053 79.0726 41.9707 79.4482 41.9729C79.895 41.9923 80.2425 42.3679 80.2252 42.8147C79.8885 51.3406 78.0279 55.5086 75.6752 60.786C74.3758 63.7021 72.9016 67.0067 71.4058 71.6474C67.4018 84.0673 74.5355 90.1412 74.842 90.3937C75.1852 90.6786 75.2349 91.188 74.9521 91.5312C74.7924 91.7277 74.5593 91.8291 74.3262 91.8291Z" fill="#000C3E"/>
<path d="M118.423 11.2441C118.214 16.8518 113.497 21.2249 107.89 21.0155C102.284 20.8061 97.9089 16.0899 98.1183 10.4843C98.3298 4.87664 103.044 0.501429 108.652 0.7108C114.257 0.92233 118.632 5.63642 118.423 11.2441Z" fill="#000C3E"/>
<path d="M73.4173 87.8834C73.4173 87.8834 76.3981 94.0307 88.5675 96.1913C100.739 98.3541 110.29 93.9508 119.686 97.3591C129.082 100.765 142.657 96.3251 145.348 92.3773C148.038 88.4295 147.474 44.7098 140.066 37.3774C132.656 30.0473 93.8385 23.928 85.427 32.5058C77.0154 41.0857 68.0815 82.9599 73.4173 87.8834Z" fill="#000C3E"/>
<path d="M143.687 53.3903C142.994 71.8668 127.456 86.2854 108.979 85.5925C90.5026 84.8996 76.084 69.3608 76.7769 50.8822C77.4698 32.4057 93.0086 17.9893 111.485 18.6822C129.962 19.3729 144.38 34.9139 143.687 53.3903Z" fill="#000C3E"/>
<path d="M123.964 81.3827C123.964 81.3827 126.137 107.455 123.964 110.351C121.79 113.248 108.03 111.077 104.41 110.351C100.788 109.628 99.34 81.3827 101.511 81.3827C103.685 81.3827 123.547 75.5699 123.964 81.3827Z" fill="#FFCEB0"/>
<path d="M82.8968 50.8818C82.8968 50.8818 84.2739 91.5192 111.747 93.2741C139.222 95.0267 139.194 37.7713 129.252 32.3255C119.308 26.8797 77.818 27.9006 82.8968 50.8818Z" fill="#FFCEB0"/>
<path d="M111.106 59.5806C111.106 59.5806 116.354 72.0889 115.003 72.9178C113.653 73.7466 109.701 73.5977 108.637 72.6782C107.573 71.7587 108.961 58.1819 111.106 59.5806Z" fill="#EE9B68"/>
<path d="M102.878 63.7668C102.809 65.1914 101.598 66.2879 100.173 66.2188C98.7509 66.1498 97.6523 64.9389 97.7213 63.5143C97.7904 62.0918 99.0013 60.9932 100.426 61.0623C101.848 61.1313 102.947 62.3422 102.878 63.7668Z" fill="#41294A"/>
<path d="M125.04 62.5507C124.971 63.9753 123.76 65.0718 122.336 65.0028C120.913 64.9337 119.815 63.7228 119.884 62.2982C119.953 60.8758 121.164 59.7771 122.588 59.8462C124.011 59.9153 125.109 61.1262 125.04 62.5507Z" fill="#41294A"/>
<path d="M104.53 29.2097C104.53 29.2097 94.6784 33.9734 92.8048 42.916C90.9291 51.8606 91.9004 74.7598 81.4621 73.7086C81.4621 73.7086 61.2524 28.3895 104.53 29.2097Z" fill="#000C3E"/>
<path d="M109.722 29.4044C108.829 30.0455 119.88 30.0174 126.198 37.6778C132.518 45.3361 134.018 64.4795 134.994 64.8335C135.972 65.1896 139.874 41.1141 132.945 33.8811C126.019 26.6481 114.808 25.7631 109.722 29.4044Z" fill="#000C3E"/>
<path d="M101.894 89.5675C101.894 89.5675 112.583 95.6457 123.682 89.9646C123.682 89.9646 124.545 96.7875 123.682 98.3611C122.818 99.9346 105.24 101.059 101.78 93.3038C101.78 93.3038 100.895 89.2307 101.894 89.5675Z" fill="#EE9B68"/>
<path d="M132.625 66.4658C132.625 66.4658 135.256 56.293 139.843 59.9127C144.432 63.5346 140.281 74.1651 135.746 75.1299C131.211 76.0947 130.119 71.7109 132.625 66.4658Z" fill="#FFCEB0"/>
<path d="M89.2938 64.842C89.2938 64.842 87.4311 54.5008 82.5853 57.7687C77.7396 61.0345 81.083 71.9477 85.5338 73.2492C89.9845 74.5486 91.3983 70.2598 89.2938 64.842Z" fill="#FFCEB0"/>
<path d="M121.431 53.3574C121.431 53.3574 126.348 50.9097 129.253 54.6633C131.809 57.9614 125.864 55.1964 123.641 55.5634C121.42 55.9303 118.504 55.6778 121.431 53.3574Z" fill="#41294A"/>
<path d="M102.108 53.8315C102.108 53.8315 97.1826 51.4011 94.2902 55.1655C91.7475 58.4722 97.6812 55.6857 99.9044 56.044C102.128 56.4044 105.044 56.1411 102.108 53.8315Z" fill="#41294A"/>
<path d="M100.084 57.9795C95.8385 57.9795 92.3893 61.3057 92.2296 65.5535C92.1519 67.6515 92.8944 69.6568 94.3254 71.1957C95.7544 72.7369 97.697 73.6283 99.7972 73.706L100.099 73.7125C104.345 73.7125 107.794 70.3863 107.952 66.1406C108.032 64.0426 107.287 62.0352 105.858 60.4962C104.429 58.9551 102.487 58.0636 100.386 57.9859L100.084 57.9795ZM100.099 74.7917L99.7561 74.7853C97.3689 74.6968 95.1586 73.6823 93.5333 71.9318C91.908 70.1791 91.0618 67.8998 91.1503 65.5103C91.3317 60.684 95.2557 56.9002 100.084 56.9002L100.427 56.9067C102.815 56.9952 105.025 58.0097 106.65 59.7602C108.273 61.5129 109.122 63.7922 109.031 66.1838C108.852 71.0101 104.928 74.7917 100.099 74.7917Z" fill="#FFFCF6"/>
<path d="M122.404 56.7251C118.161 56.7251 114.712 60.0513 114.552 64.2991C114.472 66.3971 115.217 68.4024 116.646 69.9413C118.075 71.4825 120.019 72.3739 122.117 72.4516L122.42 72.4581C126.667 72.4581 130.114 69.1319 130.274 64.8841C130.354 62.786 129.609 60.7808 128.18 59.2418C126.752 57.7007 124.807 56.8092 122.707 56.7315L122.404 56.7251ZM122.42 73.5374L122.078 73.5309C119.689 73.4424 117.479 72.4279 115.853 70.6774C114.228 68.9247 113.382 66.6454 113.473 64.2559C113.654 59.4296 117.578 55.6458 122.404 55.6458L122.748 55.6523C125.135 55.7408 127.345 56.7553 128.97 58.5058C130.596 60.2585 131.442 62.5378 131.353 64.9272C131.172 69.7536 127.248 73.5374 122.42 73.5374Z" fill="#FFFCF6"/>
<path d="M91.954 64.2773C91.8871 64.2773 91.8202 64.2644 91.7554 64.2385L88.4832 62.9477C88.2069 62.8376 88.0709 62.5247 88.1789 62.2484C88.289 61.9699 88.6041 61.8361 88.8804 61.944L92.1526 63.237C92.4289 63.3449 92.5649 63.66 92.4548 63.9363C92.3728 64.1478 92.1699 64.2773 91.954 64.2773Z" fill="#FFFCF6"/>
<path d="M130.505 62.8499C130.271 62.8499 130.053 62.6966 129.987 62.457C129.904 62.1743 130.071 61.8742 130.358 61.7922L134.901 60.4906C135.178 60.4022 135.486 60.5727 135.568 60.8619C135.65 61.1468 135.484 61.4469 135.197 61.5289L130.651 62.8283C130.604 62.8434 130.552 62.8499 130.505 62.8499Z" fill="#FFFCF6"/>
<path d="M107.863 27.0761C107.863 27.0761 109.102 49.1033 115.174 51.102C121.245 53.1029 136.173 52.5547 136.894 50.1458C137.615 47.7348 125.318 28.3475 116.495 25.2393C101.02 19.787 87.6639 44.9461 89.4295 51.007C91.1951 57.0702 104.491 51.7647 107.328 50.9855C110.166 50.2062 107.295 31.4297 107.863 27.0761Z" fill="#000C3E"/>
<g opacity="0.210007">
<g opacity="0.210007">
<path opacity="0.210007" d="M92.7437 73.1357C92.7437 73.1357 106.806 65.4602 112.869 66.725C118.93 67.9899 129.612 68.4173 130.044 70.6124C130.478 72.8076 116.47 71.4909 112.144 71.8082C107.816 72.1255 91.127 76.7015 92.7437 73.1357Z" fill="#DB5C5D"/>
</g>
</g>
<path d="M100.647 68.2588C100.321 68.2588 100.012 68.0602 99.8893 67.7364C99.7318 67.3177 99.9411 66.8515 100.36 66.6917C101.616 66.2169 101.895 65.8305 101.897 65.8284C102.052 65.4096 102.495 65.2391 102.913 65.3988C103.334 65.5521 103.524 66.0658 103.369 66.4867C103.241 66.832 102.756 67.5141 100.934 68.207C100.839 68.2415 100.742 68.2588 100.647 68.2588Z" fill="#EE9B68"/>
<path d="M121.897 67.675C121.42 67.675 120.669 67.5175 119.52 66.9239C119.123 66.721 118.968 66.231 119.173 65.8339C119.378 65.4389 119.866 65.2813 120.263 65.4864C121.463 66.1058 121.936 66.0562 121.934 66.0519C122.35 65.8965 122.769 66.1058 122.933 66.5224C123.097 66.9369 122.842 67.4247 122.428 67.5887C122.311 67.634 122.141 67.675 121.897 67.675Z" fill="#EE9B68"/>
<path d="M108.495 66.2268C108.217 66.2268 107.979 66.011 107.958 65.7304C107.936 65.4325 108.156 65.1735 108.454 65.1497L113.991 64.718C114.297 64.6706 114.55 64.9166 114.571 65.2123C114.595 65.5102 114.373 65.7692 114.075 65.793L108.538 66.2246C108.523 66.2268 108.51 66.2268 108.495 66.2268Z" fill="#FFFCF6"/>
<path d="M101.923 21.03C101.798 21.03 101.671 20.9998 101.554 20.9394C98.5819 19.4069 96.812 17.27 96.2896 14.5892C95.1413 8.70519 100.488 2.39815 100.714 2.13266C101.008 1.79378 101.52 1.75277 101.856 2.04632C102.195 2.33771 102.236 2.84711 101.945 3.18599C101.893 3.24643 96.8789 9.17142 97.8782 14.2827C98.3035 16.4519 99.7885 18.2068 102.294 19.5018C102.692 19.7069 102.849 20.1947 102.642 20.5919C102.5 20.8703 102.217 21.03 101.923 21.03Z" fill="#000C3E"/>
<path d="M113.641 22.8386C113.41 22.8386 113.179 22.7393 113.019 22.5472C112.732 22.2062 112.778 21.6968 113.121 21.4097C113.181 21.3579 119.1 16.3352 118.953 11.1311C118.893 8.92299 117.714 6.94584 115.454 5.25792C115.096 4.99027 115.022 4.48303 115.29 4.12472C115.556 3.76857 116.069 3.69735 116.423 3.96068C119.102 5.96158 120.498 8.35963 120.572 11.0901C120.738 17.082 114.427 22.4264 114.159 22.6508C114.008 22.7782 113.822 22.8386 113.641 22.8386Z" fill="#000C3E"/>
<path d="M142.654 91.1467C142.412 91.1467 142.172 91.0388 142.013 90.8338C141.738 90.4798 141.801 89.9725 142.155 89.6984C142.433 89.4804 148.987 84.2526 147.273 75.446C146.601 71.999 145.369 68.1806 144.065 64.1422C141.79 57.0969 139.44 49.8099 139.399 42.7755C139.397 42.3287 139.757 41.9639 140.204 41.9618H140.208C140.653 41.9618 141.015 42.3222 141.018 42.7669C141.056 49.5509 143.368 56.7149 145.604 63.6457C146.925 67.7317 148.173 71.5932 148.861 75.1374C150.769 84.9411 143.459 90.7366 143.148 90.9784C142.999 91.0928 142.826 91.1467 142.654 91.1467Z" fill="#000C3E"/>
<path d="M145.351 54.2266C145.319 54.2266 145.286 54.2244 145.252 54.2201C144.809 54.1661 144.494 53.7625 144.548 53.3178C145.64 44.4185 143.941 37.138 139.497 31.6814C132.338 22.8835 120.38 21.8064 120.259 21.7999C119.812 21.7611 119.482 21.3704 119.518 20.9257C119.555 20.4789 119.944 20.1552 120.393 20.1854C120.908 20.2264 133.162 21.3337 140.753 30.6583C145.485 36.4689 147.302 44.1616 146.154 53.5164C146.104 53.9244 145.755 54.2266 145.351 54.2266Z" fill="#000C3E"/>
<path d="M112.48 85.6892C111.634 85.6892 110.713 85.6633 109.882 85.6331C109.288 85.6093 108.824 85.1064 108.845 84.5107C108.869 83.9149 109.394 83.5048 109.966 83.4746C111.768 83.5459 113.983 83.5566 114.419 83.4466C114.984 83.248 115.582 83.5394 115.783 84.1006C115.986 84.6596 115.677 85.2856 115.118 85.4863C114.699 85.6396 113.665 85.6892 112.48 85.6892Z" fill="#DB5C5D"/>
<path d="M86.496 70.7212C86.4183 70.7212 86.3384 70.7104 86.2607 70.6845C85.8312 70.555 85.5916 70.1039 85.7211 69.6765C87.1953 64.8394 83.6727 61.6276 83.636 61.5952C83.3036 61.2995 83.2734 60.7858 83.5713 60.4512C83.867 60.1166 84.3829 60.0907 84.7131 60.3865C84.8923 60.544 89.043 64.3321 87.2709 70.147C87.1651 70.4967 86.8435 70.7212 86.496 70.7212Z" fill="#EE9B68"/>
<path d="M134.492 73.0925C134.468 73.0925 134.446 73.0925 134.421 73.0904C133.976 73.0494 133.646 72.6587 133.685 72.2119C134.22 66.1444 137.231 62.9456 137.358 62.8118C137.667 62.4923 138.178 62.4837 138.5 62.7902C138.824 63.0967 138.835 63.6082 138.528 63.932C138.5 63.9622 135.78 66.8869 135.299 72.3543C135.26 72.7774 134.906 73.0925 134.492 73.0925Z" fill="#EE9B68"/>
<path d="M89.5364 65.5122C89.5364 65.5122 96.5709 71.3876 97.1234 72.2812C97.676 73.1748 97.4558 84.6125 96.3507 84.4722C95.2456 84.334 88.5435 73.4381 87.8097 73.4597C87.0758 73.4813 87.4017 74.6576 87.4017 74.6576C87.4017 74.6576 93.1475 84.1484 96.5989 86.8249C100.05 89.5036 121.596 89.6266 125.984 87.1465C130.375 84.6643 134.094 75.3764 133.759 75.1843C133.422 74.99 132.587 74.2324 132.447 74.5519C132.328 74.8238 126.371 85.4392 125.626 85.1068C124.879 84.7744 125.708 72.9891 125.626 71.8754C125.544 70.7594 134.253 62.3112 134.253 62.3112L134.881 61.2514L134.001 61.0097C134.001 61.0097 125.462 69.5334 123.323 69.4838C121.184 69.4341 98.7574 71.0552 97.7192 70.6796C96.681 70.304 89.7415 62.7839 88.8759 63.0926C88.0082 63.3991 89.2947 64.8409 89.5364 65.5122Z" fill="#FFFCF6"/>
<path d="M86.7256 109.175C86.7256 109.175 105.105 131.148 119.28 125.269C133.452 119.389 146.731 103.451 139.606 101.335C132.481 99.2223 75.5836 100.334 86.7256 109.175Z" fill="#FFCEB0"/>
<path d="M167.427 96.1565C167.427 96.1565 164.936 76.7605 164.1 75.5043C163.265 74.2481 156.947 83.7863 158.652 89.1933C160.36 94.6002 136.748 94.7341 138.589 102.632C140.431 110.528 139.302 121.199 149.095 121.745C158.886 122.293 170.06 119.636 172.35 115.999C174.642 112.364 167.427 96.1565 167.427 96.1565Z" fill="url(#paint4_linear_96_1144)"/>
<path d="M182.143 113.622C182.143 113.622 209.447 145.517 204.119 166.494C198.792 187.471 172.819 190.866 167.492 188.15C162.165 185.434 164.162 95.4489 182.143 113.622Z" fill="#D9423D"/>
<path d="M55.8114 109.632C55.8114 109.632 22.6897 145.208 24.8396 176.964C26.6138 203.18 66.8541 199.192 71.8056 196.716C76.7593 194.24 72.5244 93.0641 55.8114 109.632Z" fill="#D9423D"/>
<path d="M169.317 100.767C169.317 100.767 202.564 166.529 193.431 177.788C184.299 189.046 168.065 190.333 161.587 180.995C157.804 175.545 163.087 127.388 157.501 121.484C151.915 115.581 167.545 97.67 169.317 100.767Z" fill="#FFCEB0"/>
<path d="M118.166 168.564C118.166 168.564 140.771 177.092 144.387 184.28C148.002 191.468 134.587 182.702 131.429 181.398C128.274 180.097 139.651 189.158 139.996 191.254C140.34 193.348 127.337 185.076 127.337 185.076C127.337 185.076 136.37 194.632 135.481 196.624C134.592 198.619 124.261 190.416 124.261 190.416C124.261 190.416 129.621 198.904 127.864 200.108C126.107 201.312 114.44 187.237 104.822 187.813C95.204 188.392 58.782 209.519 44.9268 188.293C31.0695 167.066 42.7619 156.962 69.5938 157.258C96.4257 157.556 110.715 165.439 118.166 168.564Z" fill="#FFCEB0"/>
<path d="M111.394 4.20841C111.153 4.20841 110.891 4.23647 110.606 4.29259C109.913 4.43166 109.464 4.76836 109.195 5.35271C107.993 7.9536 110.527 14.1484 112.337 17.8082C113.456 13.7483 114.797 6.9618 112.902 4.82326C112.537 4.41214 112.041 4.20841 111.394 4.20841ZM112.548 20.8629C112.247 20.8629 111.965 20.7007 111.816 20.4323C111.176 19.2843 105.623 9.08936 107.672 4.65003C108.165 3.58259 109.067 2.88967 110.278 2.64812C112.342 2.23701 113.528 2.99946 114.158 3.71068C117.449 7.42659 113.776 18.9818 113.346 20.2871C113.241 20.6031 112.961 20.8275 112.629 20.8593C112.602 20.8617 112.575 20.8629 112.548 20.8629Z" fill="#FFD310"/>
<path d="M122.7 8.33389C122.62 8.33389 122.54 8.33877 122.459 8.35097C119.625 8.72793 116.201 14.7385 114.391 18.5411C118.154 16.9564 124.123 13.9297 124.916 11.1775C125.094 10.5578 124.975 10.0101 124.542 9.45135C123.959 8.70109 123.355 8.33389 122.7 8.33389ZM112.782 20.9163C112.556 20.9163 112.335 20.826 112.175 20.6576C111.945 20.4161 111.879 20.0623 112.007 19.7549C112.536 18.4874 117.316 7.34453 122.237 6.6882C123.18 6.56255 124.575 6.76018 125.865 8.42172C126.624 9.39767 126.853 10.5115 126.528 11.6411C125.174 16.3391 114.303 20.4161 113.068 20.8662C112.974 20.9004 112.878 20.9163 112.782 20.9163Z" fill="#FFD310"/>
<path d="M97.0374 17.9538C101.111 20.5726 110.422 22.6094 117.697 17.9538" stroke="#FFD310" stroke-width="3.87"/>
<defs>
<linearGradient id="paint0_linear_96_1144" x1="16.6309" y1="163.799" x2="50.7906" y2="223.137" gradientUnits="userSpaceOnUse">
<stop stop-color="#FFC5C6"/>
<stop offset="1" stop-color="#FFF6F6"/>
</linearGradient>
<linearGradient id="paint1_linear_96_1144" x1="206.857" y1="97.1547" x2="69.2691" y2="8.47102" gradientUnits="userSpaceOnUse">
<stop stop-color="white"/>
<stop offset="1" stop-color="#FFD7D7"/>
</linearGradient>
<linearGradient id="paint2_linear_96_1144" x1="200.64" y1="67.7958" x2="155.497" y2="48.7378" gradientUnits="userSpaceOnUse">
<stop stop-color="#FFBEBF"/>
<stop offset="1" stop-color="#FFFBFC"/>
</linearGradient>
<linearGradient id="paint3_linear_96_1144" x1="212.614" y1="164.825" x2="16.8118" y2="87.8072" gradientUnits="userSpaceOnUse">
<stop stop-color="#FFD7D7"/>
<stop offset="1" stop-color="#FFF8F8"/>
</linearGradient>
<linearGradient id="paint4_linear_96_1144" x1="172.691" y1="126.221" x2="155.643" y2="75.3915" gradientUnits="userSpaceOnUse">
<stop stop-color="#FFC4A0"/>
<stop offset="1" stop-color="#FFCEB0"/>
</linearGradient>
</defs>
</svg>
