<svg viewBox="0 0 211 207" fill="none" xmlns="http://www.w3.org/2000/svg">
<path d="M80.3104 197.133C69.1814 201.067 57.9372 202.865 45.9296 200.535C32.5459 197.937 20.9067 186.392 14.3138 174.895C11.8641 170.625 9.90944 165.856 10.1466 160.948C10.6988 149.611 21.3494 148.378 30.3997 150.241C35.5014 151.288 40.1904 153.65 44.8262 155.99C52.5227 159.878 61.5422 161.806 68.4486 167.182C70.7661 168.991 72.5092 171.162 75.1995 172.481C79.3846 174.535 84.1572 175.514 88.4547 177.385C92.1241 178.99 96.2283 181.625 96.2469 185.637C96.2611 189.751 92 192.36 88.2538 193.986C85.602 195.145 82.9616 196.2 80.3104 197.133Z" fill="url(#paint0_linear_96_1423)"/>
<path d="M39.2598 50.8896C57.4164 23.8989 95.1091 13.1578 125.724 23.4243C140.487 28.3774 152.879 38.633 164.313 49.2748C174.391 58.6541 184.172 68.767 191.074 80.8055C195.786 89.0227 199.172 98.8657 201.57 108.052C205.155 121.808 201.999 139.507 184.333 138.153C180.188 137.836 176.598 136.326 172.718 135.002C169.58 133.929 166.51 134.557 163.253 134.027C155.056 132.697 147.154 129.637 139.679 126.06C124.446 118.762 110.517 108.87 94.8541 102.467C82.0186 97.2277 68.3209 94.5001 54.4997 94.4316C48.6689 94.4035 42.5393 94.7947 37.3149 92.1554C24.438 85.6445 30.1616 68.216 34.9304 58.4168C36.1938 55.8066 37.6406 53.2912 39.2598 50.8896Z" fill="url(#paint1_linear_96_1423)"/>
<path d="M182.578 55.3478C185.589 58.0902 197.407 65.5883 197.606 56.8338C197.652 54.6528 196.661 52.5319 195.316 50.9303C193.778 49.092 192.037 48.1248 190.834 45.985C189.361 43.4013 187.686 40.9721 185.831 38.7288C182.039 34.0599 177.615 29.7431 172.258 27.809C168.501 26.4541 162.148 26.7718 160.382 31.601C157.808 38.631 168.917 39.9557 172.312 42.5314C175.534 44.9694 177.368 49.1468 179.925 52.4702C180.733 53.5182 181.621 54.4815 182.578 55.3478Z" fill="url(#paint2_linear_96_1423)"/>
<path d="M126.605 46.5894C132.978 50.3759 137.768 56.0287 143.582 60.5875C153.261 68.1762 166.5 69.7644 177.589 75.0556C188.896 80.4543 197.448 88.8157 201.342 100.84C206.373 116.361 206.907 134.801 202.729 150.728C198.128 168.26 187.225 179.88 171.254 187.602C155.292 195.32 137.594 198.889 119.932 199.581C118.228 199.649 116.526 199.684 114.818 199.689C76.4449 199.792 25.3225 186.045 12.1213 144.542C12.0003 144.163 11.8843 143.784 11.7679 143.399C10.4065 138.776 9.59928 134.009 9.36348 129.199C8.4856 112.15 11.39 93.344 17.2795 77.3823C21.2406 66.6362 29.8167 57.5665 38.8638 51.1134C51.575 42.0477 67.1133 39.7729 82.5826 38.7293C94.0375 37.957 106.923 37.7024 117.772 42.1446C120.821 43.4029 123.774 44.8886 126.605 46.5894Z" fill="url(#paint3_linear_96_1423)"/>
<path d="M153.681 195.727C104.377 210.063 63.2898 196.239 48.9094 187.535L35.5562 177.295L40.1784 169.615L68.9393 167.055L116.703 164.495L155.222 172.175L195.282 158.863H199.39C193.227 179.753 166.349 192.143 153.681 195.727Z" fill="#FB4C47"/>
<path d="M46.5299 184.235H168.232C168.232 184.235 172.493 114.26 156.988 104.021C141.485 93.7839 72.3331 97.2921 57.2322 107.618C18.9397 133.8 46.5299 184.235 46.5299 184.235Z" fill="#FB4C47"/>
<path d="M66.7903 89.2773C66.6148 89.2773 66.4371 89.2202 66.2912 89.0976C65.955 88.8248 58.1518 82.2566 62.4214 69.0188C63.9122 64.3897 65.3734 61.1141 66.6634 58.2191C68.9874 53.0107 70.6665 49.2444 70.9837 41.196C71.0006 40.7582 71.3728 40.4305 71.8084 40.4326C72.2461 40.4516 72.5866 40.8196 72.5697 41.2573C72.2398 49.6103 70.4191 53.6958 68.1119 58.8662C66.8389 61.7231 65.3967 64.9607 63.927 69.5051C60.0064 81.673 66.9975 87.6237 67.2957 87.8711C67.6319 88.1502 67.6827 88.6493 67.4035 88.9855C67.247 89.178 67.0187 89.2773 66.7903 89.2773Z" fill="#000C3E"/>
<path d="M109.992 10.3265C109.787 15.8205 105.166 20.1048 99.6722 19.8997C94.1804 19.6945 89.894 15.074 90.0991 9.58217C90.3063 4.08824 94.9248 -0.198207 100.419 0.00691723C105.911 0.214156 110.197 4.83261 109.992 10.3265Z" fill="#000C3E"/>
<path d="M65.9002 85.4118C65.9002 85.4118 68.8206 91.4344 80.7431 93.5512C92.6678 95.6701 102.025 91.3561 111.23 94.6952C120.436 98.0322 133.735 93.6823 136.372 89.8145C139.007 85.9468 138.455 43.114 131.197 35.9305C123.937 28.7491 85.9072 22.754 77.6663 31.1577C69.4254 39.5635 60.6727 80.5882 65.9002 85.4118Z" fill="#000C3E"/>
<path d="M134.745 51.6186C134.066 69.7202 118.843 83.8463 100.741 83.1674C82.6394 82.4886 68.5134 67.2651 69.1922 49.1613C69.871 31.0597 85.0945 16.9358 103.196 17.6146C121.298 18.2913 135.424 33.517 134.745 51.6186Z" fill="#000C3E"/>
<path d="M115.422 79.0424C115.422 79.0424 117.552 104.586 115.422 107.423C113.293 110.261 99.8116 108.134 96.2653 107.423C92.7169 106.715 91.2979 79.0424 93.4253 79.0424C95.5548 79.0424 115.014 73.3475 115.422 79.0424Z" fill="#FFCEB0"/>
<path d="M75.1884 49.1601C75.1884 49.1601 76.5376 88.9731 103.453 90.6923C130.371 92.4095 130.343 36.3156 120.603 30.9803C110.861 25.6449 70.2126 26.6452 75.1884 49.1601Z" fill="#FFCEB0"/>
<path d="M102.826 57.6823C102.826 57.6823 107.967 69.9368 106.643 70.7489C105.321 71.5609 101.449 71.415 100.407 70.5141C99.3641 69.6133 100.724 56.312 102.826 57.6823Z" fill="#EE9B68"/>
<path d="M96.382 27.9286C96.382 27.9286 86.7306 32.5957 84.8951 41.3568C83.0574 50.12 84.009 72.5546 73.7825 71.5248C73.7825 71.5248 53.9828 27.1251 96.382 27.9286Z" fill="#000C3E"/>
<path d="M101.469 28.1184C100.594 28.7465 111.421 28.719 117.611 36.224C123.803 43.7268 125.272 62.4819 126.228 62.8287C127.186 63.1776 131.009 39.5905 124.221 32.5042C117.435 25.418 106.452 24.551 101.469 28.1184Z" fill="#000C3E"/>
<path d="M93.8 87.0612C93.8 87.0612 104.274 93.0161 115.146 87.4503C115.146 87.4503 115.991 94.1348 115.146 95.6764C114.3 97.218 97.0777 98.3197 93.6879 90.7217C93.6879 90.7217 92.8209 86.7313 93.8 87.0612Z" fill="#EE9B68"/>
<path d="M123.906 64.4287C123.906 64.4287 126.484 54.4623 130.978 58.0086C135.473 61.557 131.407 71.9718 126.964 72.917C122.521 73.8623 121.451 69.5674 123.906 64.4287Z" fill="#FFCEB0"/>
<path d="M81.4541 62.8381C81.4541 62.8381 79.6292 52.7067 74.8817 55.9083C70.1343 59.1079 73.4099 69.7997 77.7704 71.0748C82.1308 72.3478 83.5159 68.146 81.4541 62.8381Z" fill="#FFCEB0"/>
<path d="M112.809 52.0807C112.809 52.0807 117.277 49.0821 120.574 52.3599C123.473 55.2422 117.347 53.3072 115.236 53.9438C113.124 54.5803 110.258 54.705 112.809 52.0807Z" fill="#41294A"/>
<path d="M94.1832 52.7895C94.1832 52.7895 89.901 49.5308 86.416 52.6097C83.3519 55.3144 89.5796 53.7453 91.6499 54.5066C93.7201 55.2679 96.5749 55.5597 94.1832 52.7895Z" fill="#41294A"/>
<path d="M92.0261 56.1138C87.8687 56.1138 84.4894 59.3725 84.3308 63.5342C84.1722 67.7804 87.4986 71.3648 91.7449 71.5213L92.0409 71.5276C96.1984 71.5276 99.5776 68.2689 99.7362 64.1093C99.8948 59.861 96.5663 56.2766 92.3222 56.1201L92.0261 56.1138ZM92.0409 72.585L91.7047 72.5786C86.8748 72.3989 83.0937 68.3218 83.2735 63.4919C83.4532 58.7634 87.2977 55.0564 92.0261 55.0564L92.3624 55.0628C97.1902 55.2425 100.971 59.3196 100.794 64.1516C100.614 68.8801 96.7693 72.585 92.0409 72.585Z" fill="#FFFCF6"/>
<path d="M113.895 54.8852C109.736 54.8852 106.357 58.144 106.2 62.3056C106.122 64.3611 106.851 66.3256 108.251 67.8334C109.651 69.3433 111.556 70.2166 113.614 70.2928L113.91 70.2991C118.068 70.2991 121.447 67.0404 121.605 62.8787C121.682 60.8232 120.952 58.8587 119.552 57.3488C118.152 55.8411 116.249 54.9677 114.191 54.8916L113.895 54.8852ZM113.91 71.3564L113.574 71.3501C111.235 71.2634 109.07 70.2695 107.477 68.5545C105.885 66.8374 105.054 64.6043 105.143 62.2633C105.32 57.5349 109.165 53.8279 113.895 53.8279L114.232 53.8342C116.57 53.9209 118.736 54.9148 120.328 56.6298C121.921 58.347 122.749 60.5801 122.663 62.921C122.483 67.6494 118.639 71.3564 113.91 71.3564Z" fill="#FFFCF6"/>
<path d="M84.0617 62.2847C83.9983 62.2847 83.9306 62.272 83.8672 62.2466L80.6635 60.982C80.3907 60.8742 80.2574 60.5676 80.3653 60.2969C80.4731 60.0241 80.7755 59.893 81.0504 59.9987L84.2563 61.2654C84.5291 61.3711 84.6602 61.6799 84.5523 61.9505C84.4699 62.1578 84.2732 62.2847 84.0617 62.2847Z" fill="#FFFCF6"/>
<path d="M121.829 60.8857C121.601 60.8857 121.387 60.7356 121.322 60.5009C121.241 60.2217 121.404 59.9299 121.685 59.8496L126.139 58.5744C126.424 58.4962 126.714 58.6569 126.792 58.9381C126.873 59.2194 126.71 59.5112 126.428 59.5916L121.973 60.8646C121.926 60.8794 121.876 60.8857 121.829 60.8857Z" fill="#FFFCF6"/>
<path d="M99.6461 25.8379C99.6461 25.8379 100.86 47.4181 106.808 49.3763C112.757 51.3366 127.382 50.7995 128.088 48.4395C128.795 46.0774 116.747 27.0834 108.103 24.0383C92.9425 18.6966 79.8569 43.3453 81.5867 49.2833C83.3165 55.2234 96.3429 50.0255 99.1216 49.2621C101.902 48.4987 99.0899 30.1032 99.6461 25.8379Z" fill="#000C3E"/>
<path d="M100.268 64.1943C99.9929 64.1943 99.7624 63.9829 99.7412 63.708C99.7179 63.4161 99.9358 63.1624 100.225 63.1391L105.652 62.7162C105.977 62.6654 106.197 62.9128 106.218 63.2004C106.242 63.4923 106.026 63.746 105.734 63.7693L100.31 64.1922C100.295 64.1943 100.28 64.1943 100.268 64.1943Z" fill="#FFFCF6"/>
<path d="M93.8297 19.9141C93.7049 19.9141 93.5823 19.8845 93.466 19.8252C90.5562 18.3238 88.82 16.2303 88.3083 13.6039C87.1854 7.83927 92.4213 1.66019 92.6455 1.40008C92.931 1.06385 93.43 1.02578 93.7641 1.31549C94.0962 1.60097 94.1342 2.10004 93.8487 2.43204C93.798 2.49125 88.8877 8.29604 89.8668 13.3036C90.2813 15.4288 91.7383 17.1481 94.1934 18.4169C94.5825 18.6178 94.7348 19.0957 94.5339 19.4848C94.3943 19.7576 94.1173 19.9141 93.8297 19.9141Z" fill="#000C3E"/>
<path d="M105.308 21.686C105.083 21.686 104.857 21.5888 104.701 21.4006C104.419 21.0664 104.464 20.5674 104.8 20.2861C104.857 20.2354 110.658 15.3145 110.514 10.2139C110.455 8.05061 109.3 6.11568 107.086 4.462C106.735 4.19978 106.663 3.70284 106.925 3.3518C107.19 2.99865 107.682 2.93098 108.035 3.19108C110.658 5.15139 112.028 7.50079 112.1 10.1759C112.261 16.0462 106.079 21.2821 105.815 21.5021C105.667 21.6268 105.487 21.686 105.308 21.686Z" fill="#000C3E"/>
<path d="M133.732 88.6084C133.495 88.6084 133.26 88.5027 133.104 88.3018C132.835 87.955 132.896 87.458 133.243 87.1895C133.516 86.9759 139.936 81.8541 138.257 73.2263C137.599 69.847 136.394 66.1061 135.115 62.1454C132.888 55.2452 130.585 48.1081 130.545 41.2185C130.543 40.7808 130.896 40.4234 131.334 40.4213H131.338C131.774 40.4213 132.129 40.7745 132.131 41.2101C132.169 47.8544 134.434 54.873 136.623 61.659C137.917 65.6663 139.139 69.4494 139.814 72.9239C141.683 82.5287 134.521 88.2066 134.216 88.4435C134.07 88.5555 133.901 88.6084 133.732 88.6084Z" fill="#000C3E"/>
<path d="M136.376 52.4375C136.344 52.4375 136.312 52.4354 136.278 52.4312C135.845 52.3783 135.536 51.9828 135.589 51.5472C136.659 42.8348 134.999 35.7062 130.651 30.3603C123.647 21.7472 111.911 20.6751 111.792 20.6687C111.357 20.6307 111.033 20.2479 111.067 19.8102C111.105 19.3767 111.488 19.0489 111.924 19.087C112.431 19.1271 124.434 20.212 131.871 29.3474C136.507 35.0401 138.287 42.5768 137.162 51.7418C137.114 52.1414 136.771 52.4375 136.376 52.4375Z" fill="#000C3E"/>
<path d="M104.071 83.3813C102.584 83.3813 101.436 82.9098 101.362 82.8802C100.958 82.711 100.77 82.2479 100.939 81.844C101.106 81.4401 101.577 81.2582 101.973 81.4147C101.994 81.4232 104.157 82.3007 106.044 81.3597C106.431 81.1673 106.913 81.3217 107.107 81.7171C107.3 82.1083 107.141 82.5841 106.75 82.7808C105.838 83.2354 104.902 83.3813 104.071 83.3813Z" fill="#EE9B68"/>
<path d="M78.714 68.5972C78.6379 68.5972 78.5596 68.5866 78.4835 68.5612C78.0627 68.4343 77.8279 67.9924 77.9569 67.5737C79.3992 62.8347 75.9459 59.688 75.9121 59.6563C75.5864 59.3666 75.5568 58.8633 75.8486 58.5355C76.1383 58.2078 76.6374 58.1782 76.9694 58.4721C77.1428 58.6265 81.2093 62.3377 79.471 68.0347C79.3695 68.3772 79.0545 68.5972 78.714 68.5972Z" fill="#EE9B68"/>
<path d="M125.737 70.9204C125.714 70.9204 125.692 70.9204 125.667 70.9183C125.231 70.8781 124.908 70.4954 124.946 70.0576C125.468 64.1133 128.418 60.9793 128.543 60.8482C128.847 60.5352 129.344 60.5268 129.662 60.8271C129.979 61.1273 129.989 61.6285 129.689 61.9457C129.662 61.9753 126.997 64.8407 126.528 70.1972C126.49 70.6096 126.143 70.9204 125.737 70.9204Z" fill="#EE9B68"/>
<path d="M79.5311 106.302C79.5311 106.302 97.5375 127.829 111.425 122.069C125.31 116.308 138.319 100.694 131.338 98.6213C124.358 96.551 68.6151 97.6401 79.5311 106.302Z" fill="#FFCEB0"/>
<path d="M127.852 77.2969C127.852 77.2969 133.284 116.668 128.205 121.117C123.127 125.567 116.705 121.671 108.086 124.621C99.4663 127.569 99.1703 115.6 99.7624 109.459C100.355 103.318 103.165 64.3128 127.852 77.2969Z" fill="white"/>
<path d="M31.5267 138.233L20.8708 169.695L98.526 195.998C98.526 195.998 110.404 165.847 108.909 165.341C107.416 164.834 31.5267 138.233 31.5267 138.233Z" fill="#128E5A"/>
<path d="M46.8739 176.291C46.8739 176.291 60.152 167.117 59.6868 169.45C59.2237 171.784 54.0871 176.291 54.0871 176.291C54.0871 176.291 63.4149 169.071 64.024 172.681C64.633 176.291 61.3595 179.716 61.3595 179.716C61.3595 179.716 67.9213 174.487 68.9808 177.192C70.0402 179.896 61.5731 191.859 54.0871 191.512C46.6033 191.165 43.2134 178.735 46.8739 176.291Z" fill="#FFC6A6"/>
<path d="M51.7859 158.604L80.8584 170.446C80.8584 170.446 85.9189 155.059 84.9673 153.281C84.0135 151.5 73.5332 150.839 70.6594 148.013C67.7876 145.19 68.8238 141.739 64.0235 142.338C59.2232 142.936 51.7859 158.604 51.7859 158.604Z" fill="white"/>
<path d="M104.776 80.79C104.687 80.79 104.594 80.7752 104.505 80.7435C102.211 79.9124 101.073 78.8889 101.031 77.6159C100.963 75.5837 103.873 74.2007 104.456 73.9427C104.86 73.7693 105.326 73.9469 105.501 74.3487C105.679 74.7505 105.497 75.2179 105.095 75.3934C104.04 75.8607 102.593 76.8737 102.617 77.563C102.623 77.7534 102.818 78.4449 105.046 79.2506C105.457 79.4007 105.67 79.8554 105.522 80.2677C105.404 80.5891 105.099 80.79 104.776 80.79Z" fill="#EE9B68"/>
<path d="M95.2229 65.6484C95.0347 65.6484 94.8486 65.5829 94.6984 65.4497C91.3784 62.5187 89.0501 63.3033 88.955 63.335C88.5553 63.4788 88.0901 63.2758 87.9399 62.8698C87.7856 62.4616 87.9844 62.0112 88.3904 61.8526C88.5194 61.8018 91.647 60.6388 95.7473 64.2612C96.0751 64.5509 96.1068 65.0521 95.8171 65.3799C95.6606 65.5575 95.4428 65.6484 95.2229 65.6484Z" fill="#41294A"/>
<path d="M111.521 65.8281C111.301 65.8281 111.083 65.7372 110.926 65.5596C110.637 65.2318 110.669 64.7306 110.996 64.4409C115.088 60.8248 118.222 61.9794 118.351 62.0323C118.761 62.1909 118.964 62.6519 118.804 63.0579C118.647 63.466 118.188 63.6712 117.787 63.5126C117.67 63.4724 115.346 62.7132 112.045 65.6293C111.895 65.7626 111.709 65.8281 111.521 65.8281Z" fill="#41294A"/>
<path d="M162.976 172.52C162.976 172.52 172.723 184.923 187.784 176.064C203.706 162.62 207.274 145.055 200.753 131.752C192.36 117.641 171.625 102.06 166.318 102.086C161.009 102.115 142.505 152.484 162.976 172.52Z" fill="#D9423D"/>
<path d="M143.71 81.7488C143.71 81.7488 123.113 72.9327 115.5 74.9755C107.887 77.0182 122.665 78.9574 125.676 80.4165C128.687 81.8735 114.642 79.4628 112.884 80.5772C111.129 81.6896 125.655 85.8068 125.655 85.8068C125.655 85.8068 112.779 85.4304 111.901 87.3802C111.023 89.3299 123.754 91.5376 123.754 91.5376C123.754 91.5376 114.054 93.149 114.32 95.2214C114.585 97.2916 132.483 96.6467 138.332 104.056C144.179 111.468 152.473 151.876 177.031 148.171C201.587 144.466 201.354 129.329 183.644 109.899C165.933 90.4718 150.853 85.1598 143.71 81.7488Z" fill="#FFC6A6"/>
<path d="M103.749 3.15021C103.511 3.15021 103.252 3.17791 102.971 3.2333C102.287 3.37058 101.844 3.70294 101.578 4.27975C100.392 6.84709 102.893 12.962 104.68 16.5746C105.784 12.567 107.107 5.86808 105.237 3.75713C104.877 3.35131 104.387 3.15021 103.749 3.15021ZM104.888 19.5899C104.591 19.5899 104.313 19.4297 104.166 19.1648C103.533 18.0317 98.0519 7.9682 100.075 3.58613C100.561 2.53246 101.451 1.84847 102.647 1.61004C104.685 1.20423 105.855 1.95685 106.476 2.6589C109.725 6.32688 106.1 17.733 105.676 19.0215C105.572 19.3334 105.295 19.555 104.968 19.5863C104.941 19.5887 104.915 19.5899 104.888 19.5899Z" fill="#FFD310"/>
<path d="M114.908 7.22225C114.83 7.22225 114.75 7.22707 114.671 7.23911C111.873 7.6112 108.493 13.5443 106.706 17.2978C110.421 15.7335 116.313 12.7459 117.096 10.0292C117.272 9.4175 117.154 8.87682 116.726 8.32529C116.151 7.58471 115.554 7.22225 114.908 7.22225ZM105.118 19.6423C104.895 19.6423 104.677 19.5532 104.519 19.387C104.292 19.1486 104.227 18.7994 104.353 18.4959C104.876 17.2448 109.594 6.24564 114.451 5.59779C115.382 5.47375 116.759 5.66883 118.033 7.30895C118.782 8.27231 119.008 9.37174 118.687 10.4868C117.35 15.1242 106.619 19.1486 105.401 19.593C105.308 19.6267 105.213 19.6423 105.118 19.6423Z" fill="#FFD310"/>
<path d="M89.5767 16.7185C93.5978 19.3035 102.789 21.3141 109.97 16.7185" stroke="#FFD310" stroke-width="4.87"/>
<defs>
<linearGradient id="paint0_linear_96_1423" x1="9.16276" y1="162.51" x2="20.75" y2="202.932" gradientUnits="userSpaceOnUse">
<stop stop-color="#FFCBCB"/>
<stop offset="1" stop-color="#FFF1F1"/>
</linearGradient>
<linearGradient id="paint1_linear_96_1423" x1="181.027" y1="68.0652" x2="60.7963" y2="12.9436" gradientUnits="userSpaceOnUse">
<stop stop-color="white"/>
<stop offset="1" stop-color="#FFDDDD"/>
</linearGradient>
<linearGradient id="paint2_linear_96_1423" x1="197.911" y1="56.6812" x2="163.741" y2="31.2381" gradientUnits="userSpaceOnUse">
<stop stop-color="#FFDDDD"/>
<stop offset="1" stop-color="#FFFBFC"/>
</linearGradient>
<linearGradient id="paint3_linear_96_1423" x1="187.901" y1="182.304" x2="8.38496" y2="79.3476" gradientUnits="userSpaceOnUse">
<stop stop-color="#FFE6E6"/>
<stop offset="1" stop-color="#FFF5F5"/>
</linearGradient>
</defs>
</svg>
