<svg viewBox="0 0 118 120" fill="none" xmlns="http://www.w3.org/2000/svg">
<path d="M98.7539 22.7877C97.3039 23.9732 97.0471 26.1379 98.0225 27.9597C95.9851 30.0331 93.5363 32.2632 90.6387 34.47C89.0247 35.6946 87.4324 36.7922 85.9003 37.7693C85.6766 37.4966 85.4468 37.2244 85.2133 36.9555C84.0771 35.6471 82.8663 34.4427 81.6006 33.3347C81.8226 32.193 82.1934 30.8735 82.819 29.4752C83.8951 27.0465 85.3317 25.2684 86.5681 24.0419C88.5078 24.9769 90.7397 24.5626 91.8246 22.9567C93.0489 21.1467 92.3635 18.5122 90.2865 17.0774C88.213 15.6389 85.5414 15.9342 84.3171 17.7442C83.2042 19.3939 83.6748 21.7278 85.338 23.2178C84.7706 24.8805 83.6915 27.0855 81.6249 28.9735C80.608 29.9059 79.5703 30.5563 78.6694 31.015C76.5032 29.4698 74.2049 28.1826 71.8113 27.1653C71.991 25.5346 72.2923 23.7097 72.8046 21.7557C73.5428 18.9229 74.526 16.5012 75.5137 14.5175C77.5678 14.8476 79.521 13.8542 80.1242 12.0429C80.8187 9.96454 79.4579 7.59275 77.0937 6.746C74.7298 5.89963 72.2468 6.90569 71.5544 8.98639C70.9526 10.7917 71.8977 12.8216 73.7084 13.874C73.2961 16.0797 72.6305 18.6089 71.5334 21.3019C70.7914 23.1357 69.9647 24.758 69.1511 26.1525C66.8036 25.3554 64.393 24.8044 61.9576 24.506C60.8973 22.3207 59.9061 19.5544 59.4776 16.2892C59.0835 13.2308 59.2831 10.5751 59.6335 8.5258C61.7092 8.21265 63.279 6.61827 63.2667 4.66771C63.2572 2.45456 61.2305 0.621989 58.7335 0.579179C56.2413 0.526757 54.2283 2.27897 54.2419 4.48925C54.2542 6.4398 55.826 8.09777 57.9143 8.4901C58.2822 10.5008 58.5249 13.1799 58.1433 16.264C57.7221 19.6669 56.6901 22.3817 55.7518 24.278C52.9338 24.4199 50.1382 24.8913 47.4209 25.7035C47.0042 24.6542 46.6772 23.5183 46.4788 22.295C46.3258 21.3215 46.2689 20.3978 46.2765 19.541C48.2991 18.8705 49.5778 16.9788 49.1994 15.032C48.7835 12.8521 46.4585 11.4203 44.0106 11.8364C41.5623 12.2521 39.9181 14.3531 40.3363 16.5357C40.7069 18.4508 42.5489 19.7897 44.6507 19.8027C44.9867 20.6908 45.2919 21.6497 45.5486 22.6743C45.8495 23.8485 46.0607 24.9877 46.1963 26.0931C45.9265 26.1849 45.6631 26.2764 45.4006 26.3766C42.3034 27.5032 39.3372 29.0918 36.5889 31.144C35.1469 30.3417 33.6513 29.3637 32.154 28.1635C29.1016 25.7119 27.0009 23.0954 25.5941 20.9819C26.8539 19.3648 26.9286 17.1575 25.6576 15.6939C24.1928 14.0073 21.4978 13.9491 19.637 15.5652C17.7723 17.1845 17.4484 19.8643 18.9132 21.551C20.206 23.0396 22.4581 23.256 24.2493 22.1748C26.215 23.7549 28.7147 26.1851 30.8364 29.6762C31.7656 31.217 32.4828 32.7338 33.0432 34.1841C30.6899 36.4785 28.7354 39.0348 27.1725 41.7761C26.4182 41.5378 25.6719 41.2479 24.8723 40.836C23.2913 40.0179 22.0606 39.0336 21.128 38.1344C21.9087 36.0946 21.2425 33.8164 19.4803 32.8199C17.5406 31.7254 15.0099 32.6006 13.8268 34.7769C12.6475 36.95 13.2613 39.6007 15.205 40.6924C16.8808 41.6348 18.9913 41.1111 20.2966 39.5538C21.5502 40.1013 22.9088 40.8076 24.3006 41.742C25.0428 42.2321 25.7238 42.7505 26.3626 43.2811C25.041 45.8826 24.0659 48.625 23.4297 51.4462C21.909 51.5632 20.2701 51.5896 18.5236 51.4695C14.5036 51.1916 11.1537 50.235 8.67738 49.2896C8.69332 47.1969 7.40407 45.3403 5.51302 44.9321C3.34762 44.4661 1.21388 46.0718 0.746538 48.518C0.28329 50.9613 1.66008 53.3211 3.82139 53.79C5.73852 54.1978 7.62113 52.994 8.35849 51.0182C10.8058 51.0873 14.2898 51.5225 18.1214 53.1704C19.8757 53.9224 21.4072 54.8051 22.737 55.7135C22.6859 56.2242 22.6383 56.7467 22.6068 57.2647C22.4602 59.8676 22.5879 62.4978 23.0038 65.1028C22.2246 65.4585 21.3893 65.7953 20.4959 66.0954C17.5903 67.0704 14.9551 67.3849 12.9006 67.4491C12.0876 65.4802 10.159 64.2694 8.26866 64.6593C6.12453 65.0988 4.83742 67.4439 5.39643 69.8949C5.95101 72.3484 8.14381 73.9773 10.2951 73.5309C12.181 73.1434 13.4021 71.2842 13.2912 69.1746C15.1988 68.4248 17.7387 67.6742 20.7974 67.4069C21.7108 67.3273 22.5855 67.3017 23.4283 67.3078C24.3248 71.3397 25.9194 75.2716 28.2213 78.917C27.0367 80.1424 25.7001 81.3978 24.1743 82.6404C21.9962 84.4151 19.8615 85.8222 17.9008 86.9438C16.4018 85.2936 14.0808 84.8384 12.4529 85.971C10.6606 87.218 10.3882 89.9037 11.8411 91.9717C13.2979 94.0364 15.9272 94.7023 17.7151 93.4578C19.3099 92.3479 19.6945 90.1026 18.7403 88.161C20.4854 86.7077 22.5467 85.1933 24.9527 83.7493C26.6212 82.747 28.2378 81.9128 29.7882 81.1997C30.3627 81.9827 30.9781 82.7445 31.6272 83.4919C33.1686 85.2668 34.8376 86.8621 36.6148 88.2706C36.0298 90.4675 35.0231 93.2571 33.1965 96.1883C31.5961 98.7574 29.8287 100.694 28.3039 102.104C26.4405 101.098 24.2313 101.379 23.0572 102.89C21.7222 104.61 22.24 107.279 24.2207 108.846C26.2018 110.414 28.8936 110.286 30.2287 108.566C31.387 107.075 31.1514 104.882 29.7867 103.303C30.9276 101.374 32.3863 99.2269 34.2567 97.0294C36.4045 94.5059 38.5794 92.5225 40.5239 90.9798C43.2888 92.6525 46.2359 93.9197 49.267 94.7902C49.0855 95.8189 48.8306 96.8999 48.4577 98.0273C47.75 100.181 46.8143 101.952 45.8952 103.369C43.8908 102.731 41.7892 103.44 40.932 105.156C39.9595 107.112 40.9775 109.643 43.2121 110.804C44.6156 111.532 46.168 111.55 47.3691 110.974C48.0791 110.637 48.6676 110.092 49.0309 109.364C49.1354 109.15 49.2214 108.923 49.278 108.692C49.7343 106.969 48.847 104.991 47.0785 103.904C47.7048 102.286 48.5316 100.504 49.6537 98.6526C50.379 97.4604 51.1305 96.3969 51.8778 95.4424C53.6408 95.8171 55.4283 96.053 57.2115 96.1547C57.3797 96.1662 57.5517 96.1743 57.7145 96.1796C58.3599 98.244 58.9541 100.918 59.0701 104.051C59.1824 107.119 58.812 109.745 58.3436 111.78C56.2632 111.959 54.6076 113.432 54.484 115.362C54.3403 117.566 56.2441 119.53 58.7361 119.75C61.218 119.973 63.3552 118.363 63.4948 116.162C63.6203 114.249 62.2 112.515 60.1941 111.952C60.0331 109.746 60.0288 107.106 60.4021 104.172C60.8085 101.018 61.5485 98.3011 62.3331 96.0911C65.6601 95.8064 68.9559 95.0528 72.1052 93.8269C72.8166 94.8358 73.5235 95.9763 74.1693 97.2591C75.5784 100.051 76.3073 102.637 76.6947 104.67C74.8742 105.695 73.9759 107.744 74.6555 109.582C75.4303 111.666 77.9502 112.692 80.2855 111.873C82.6172 111.057 83.8814 108.701 83.1117 106.607C82.4394 104.792 80.45 103.778 78.4051 104.088C77.3637 102.137 76.2821 99.6996 75.4187 96.8222C75.0018 95.4157 74.6884 94.0753 74.4573 92.8068C76.756 91.71 78.9572 90.3492 81.0249 88.7055C82.7354 90.022 84.5507 91.5807 86.3745 93.4226C89.0893 96.1614 91.1691 98.8676 92.7427 101.226C91.492 102.839 91.421 105.043 92.6891 106.503C94.1539 108.19 96.8485 108.247 98.7169 106.625C100.578 105.009 100.898 102.333 99.4334 100.646C98.1704 99.1915 95.9877 98.9488 94.2186 99.9492C92.0811 97.9966 89.7171 95.5479 87.3707 92.5574C85.7892 90.5389 84.4537 88.5683 83.3229 86.7194C85.3349 84.8294 87.0693 82.7487 88.5231 80.5272C88.9415 80.6748 89.3661 80.8372 89.7944 81.0113C92.6265 82.1539 94.8623 83.5894 96.5048 84.8656C95.8563 86.8298 96.5201 88.9762 98.2072 89.9393C100.136 91.051 102.675 90.193 103.875 88.0292C105.07 85.8664 104.478 83.2102 102.546 82.1017C100.833 81.1168 98.6409 81.6832 97.3303 83.333C95.5148 82.6929 93.0231 81.5095 90.612 79.3179C90.3115 79.0478 90.0275 78.774 89.7592 78.4954C91.244 75.8691 92.3639 73.0732 93.12 70.185C95.1878 70.1437 97.4875 70.2403 99.9744 70.5676C103.8 71.0693 107.072 71.9976 109.674 72.9427C109.67 75.0196 110.956 76.857 112.834 77.2656C115.002 77.7271 117.132 76.1239 117.599 73.6778C118.063 71.2356 116.688 68.8769 114.525 68.4061C112.653 68.0057 110.804 69.1493 110.039 71.0477C107.222 70.7957 103.888 70.2753 100.228 69.2569C97.8617 68.5981 95.712 67.8313 93.7923 67.0256C94.0027 65.7568 94.1452 64.4781 94.2235 63.1862C94.3436 61.0767 94.2844 58.9506 94.0333 56.8391C96.1126 55.8693 98.6395 54.8988 101.587 54.1768C104.427 53.4756 107.027 53.1586 109.242 53.0436C110.041 54.9742 111.921 56.1821 113.789 55.8274C115.946 55.4248 117.273 53.1026 116.759 50.6436C116.244 48.1819 114.076 46.5207 111.919 46.9234C110.037 47.2765 108.779 49.1012 108.845 51.1967C106.872 51.9017 104.326 52.5847 101.312 52.8578C98.1826 53.1424 95.4356 52.918 93.2685 52.5488C92.7919 50.5648 92.1451 48.6051 91.3268 46.6908C92.1482 46.0268 93.0573 45.365 94.0463 44.7421C96.5999 43.134 99.0426 42.1575 101.051 41.5537C102.314 43.2587 104.464 43.9572 106.177 43.1131C108.136 42.1492 108.8 39.5423 107.661 37.2886C106.517 35.0378 104.007 33.993 102.045 34.9603C100.325 35.8045 99.6022 37.9267 100.229 39.9621C98.5871 41.1621 96.3215 42.5249 93.4355 43.5376C92.3411 43.9177 91.2754 44.2092 90.2626 44.4251C89.4006 42.7415 88.4022 41.1059 87.2562 39.5357C88.5437 38.2162 89.9542 36.8635 91.5041 35.5121C94.2339 33.1272 96.8976 31.1674 99.3398 29.5676C100.939 30.8774 103.11 31.0463 104.559 29.8671C106.247 28.4845 106.317 25.7788 104.709 23.8285C103.105 21.875 100.438 21.4087 98.7539 22.7877Z" fill="#FFE1E1"/>
</svg>
