<svg viewBox="0 0 298 258" fill="none" xmlns="http://www.w3.org/2000/svg">
<g opacity="0.67">
<path d="M69.1684 111.166L63.4062 113.086L69.0613 109.532C69.0151 108.989 68.9581 108.443 68.8892 107.892L65.8465 108.477L68.7262 106.694C68.0674 102.447 66.601 97.1163 64.5893 91.6749L53.3739 96.0038L64.0913 90.3528C61.2771 83.0423 57.517 75.6781 53.4366 70.5993L47.4083 74.8541L52.2148 69.1575C48.5014 65.0275 44.5799 62.9252 40.9007 64.5505C36.4305 66.5257 35.1494 76.1033 36.5257 87.6521L39.545 87.5985L36.5929 88.1889C37.2278 93.2433 38.3653 98.6527 39.9616 103.957L51.4756 100.071L40.4824 105.636C42.9142 113.217 46.2833 120.472 50.4606 126.032L55.0004 121.492L51.3121 127.127C54.8294 131.498 58.883 134.667 63.4062 135.863C63.4062 135.863 69.8067 125.107 69.1684 111.166Z" fill="#03673D"/>
<path d="M64.5055 135.863C64.5055 135.863 70.9059 125.107 70.2677 111.166L64.5055 113.086L70.1605 109.532C70.1144 108.989 70.0574 108.443 69.9884 107.892L66.9458 108.477L69.8254 106.694C69.1666 102.447 67.7003 97.1163 65.6886 91.6755L54.4732 96.0038L65.1905 90.3534C62.3764 83.0423 58.6163 75.6782 54.5359 70.5993L48.5076 74.8547L53.314 69.1575C49.6006 65.0275 45.6792 62.9252 42 64.5505C42 64.5505 58.7365 104.449 64.1801 135.768C64.2889 135.799 64.3967 135.834 64.5055 135.863Z" fill="#04AD66"/>
<path d="M57.6421 134.904L53.3782 135.899L57.2723 133.789C56.8716 132.645 56.3935 131.452 55.8185 130.205C54.6343 127.64 52.94 124.705 50.9773 121.867L47.1413 124.782L49.8438 120.278C43.8941 112.214 36.0735 105.694 32.2285 112.038C30.6482 114.645 30.5439 118.796 31.6352 123.461L40.3625 123.155L31.9487 124.697C32.82 127.881 34.2185 131.255 36.0621 134.512L39.0073 133.188L36.4696 135.217C38.4124 138.516 40.8104 141.667 43.5761 144.348L49.5816 137.797L44.4065 145.129C48.0441 148.442 52.2698 150.929 56.903 151.897C56.903 151.897 61.1202 145.982 57.6421 134.904Z" fill="#10794D"/>
<path d="M56.5597 151.817C56.6748 151.843 56.7888 151.873 56.9044 151.896C56.9044 151.896 61.1216 145.982 57.6436 134.904L53.3791 135.899L57.2737 133.789C56.8731 132.645 56.395 131.452 55.8194 130.205C54.6357 127.64 52.9414 124.705 50.9787 121.866L47.1428 124.782L49.8447 120.278C44.2369 112.676 36.9674 106.452 32.9309 111.076C36.1639 115.436 49.786 134.321 56.5597 151.817Z" fill="#04AD66"/>
<path d="M44.5115 147.083C42.1311 144.834 37.8837 142.074 32.9526 139.536C30.8142 142.695 28.427 146.264 28.0162 147.045C27.9575 147.185 27.9357 147.233 27.9622 147.161C27.9715 147.134 27.9903 147.095 28.0162 147.045C28.3619 146.226 30.0356 142.1 31.3914 138.752C28.4333 137.3 25.2842 135.952 22.1776 134.852L20.4868 142.875L21.2658 134.536C11.578 131.249 2.54537 130.54 1.39493 136.903C1.07694 138.662 1.69361 140.616 3.01526 142.661C6.7284 142.444 12.0998 142.095 12.0998 142.095L4.2688 144.371C7.14084 147.91 11.859 151.629 17.3297 155.028L22.0293 145.907L18.1878 155.553C23.95 159.049 30.4548 162.167 36.47 164.348C36.9802 162.098 37.3533 160.468 37.3533 160.468L37.4291 164.688C38.587 165.093 39.7233 165.459 40.8298 165.786L41.3275 163.841L41.6539 166.023C47.1636 167.568 51.8485 168.05 54.5329 166.929C54.5329 166.929 56.6672 158.565 44.5115 147.083Z" fill="#007248"/>
<path d="M79.2605 86.0277C85.0654 71.728 93.0057 68.743 96.2503 69.0379C101.631 68.33 101.913 77.7098 101.382 82.4882H93.2414L101.382 84.081C101.241 91.7264 99.1996 99.8909 98.1967 103.018L88.109 101.071L98.1967 104.433C95.6483 114.061 91.8256 122.957 90.2328 126.202L79.9681 121.423L89.7018 127.263L88.463 129.387L85.6314 128.856L88.109 130.095C83.72 139.015 75.5437 142.66 72.0041 143.368C69.0309 139.829 68.1696 133.045 68.1106 130.095L73.4199 128.856H68.1106C67.5443 123.759 69.2904 114.934 70.2343 111.158L74.3048 112.928L70.4113 110.274L70.9422 108.504L79.6141 111.158L71.6501 106.203C72.4996 101.248 76.6055 91.514 78.5522 87.2666L84.0385 87.9745L79.2605 86.0277Z" fill="#096B42"/>
<path d="M88.1944 130.396C83.7138 139.225 75.5652 142.97 72.051 143.739C77.3223 107.367 91.2693 78.8359 97.5838 69.1169C101.933 69.9076 102.031 78.5613 101.537 82.7894L93.4657 82.4599L101.537 83.9425C101.01 92.6401 99.3409 100.415 98.5722 103.216L87.7002 100.909L98.078 104.369C95.5742 115.175 91.7635 123.477 90.1711 126.278L80.1227 121.336L89.8416 127.266L88.5238 129.572L85.7234 128.913L88.1944 130.396Z" fill="#0EA867"/>
<path fill-rule="evenodd" clip-rule="evenodd" d="M65.7011 195.596C65.7011 195.596 65.7011 195.597 65.0359 195.552L65.7011 195.597C65.6776 195.948 65.3854 196.22 65.0335 196.219C64.6816 196.218 64.3913 195.943 64.3704 195.592C63.166 175.383 51.8935 162.235 40.228 153.844C30.4113 146.783 20.3849 143.133 15.8567 141.484L15.8567 141.484L15.8564 141.484C14.9935 141.17 14.3303 140.928 13.9063 140.75C13.6631 140.647 13.5124 140.418 13.4991 140.171C9.07784 138.749 5.01535 137.74 1.6129 137.03C1.61709 136.997 1.6202 136.964 1.62332 136.93C1.62835 136.876 1.63338 136.822 1.64293 136.769C2.78301 130.633 11.7738 131.326 21.4183 134.504L20.7136 141.888C20.738 141.898 20.7624 141.907 20.7869 141.917L22.3262 134.809C25.4191 135.874 28.5546 137.177 31.5006 138.579C30.4995 140.978 29.3255 143.788 28.6476 145.398C28.7742 145.46 28.9012 145.523 29.0286 145.587C29.9958 144.109 31.697 141.626 33.2662 139.355C38.2378 141.861 42.5201 144.586 44.9204 146.805C56.3921 157.413 55.2471 165.317 55.0534 166.286C59.457 172.131 62.9618 179.155 64.6715 187.564C64.6907 186.665 64.7071 185.698 64.7192 184.668C64.7992 177.846 64.6902 168.233 63.9337 157.074C62.4201 134.745 58.3171 106.27 47.9801 81.576C47.8379 81.2364 47.998 80.8458 48.3376 80.7037C48.6773 80.5615 49.0678 80.7216 49.21 81.0612C59.6288 105.95 63.7462 134.592 65.264 156.984C66.0233 168.185 66.1328 177.834 66.0524 184.684C66.0122 188.109 65.9245 190.834 65.8468 192.705C65.808 193.64 65.7716 194.362 65.7449 194.85C65.7316 195.095 65.7207 195.28 65.7131 195.406L65.7042 195.548L65.7019 195.584L65.7013 195.593L65.7011 195.596Z" fill="#128E5A"/>
<path d="M50.5 137C50.5 137 64 168.261 64 207.849C67.5253 138.706 85.4461 92.1791 85.4461 92.1791" stroke="#014D2D" stroke-miterlimit="10" stroke-linecap="round" stroke-linejoin="round"/>
<path d="M69.9543 198.328H51.2507C51.2507 198.328 46.2148 238.199 62.401 242.827C78.5866 247.454 69.9543 198.328 69.9543 198.328Z" fill="#F52D29"/>
<path d="M73.2421 198.328H55.7058C55.7058 198.328 51.7381 238.199 64.491 242.826C84.7731 245.111 73.2421 198.328 73.2421 198.328Z" fill="#F80700"/>
</g>
<g opacity="0.76">
<path d="M82.2218 12.7659H76.1724V36.5708H82.2218V12.7659Z" fill="#FF1F55"/>
<path d="M89.391 12.7659H83.3418V36.5708H89.391V12.7659Z" fill="#FFC702"/>
<path d="M93.8624 13.192L88.7385 16.4087L101.409 36.5715L106.533 33.3548L93.8624 13.192Z" fill="#3D99EE"/>
<path d="M141.064 41.8187H75.7853C74.3928 41.8187 73.0573 41.2658 72.0727 40.2817C71.0881 39.2976 70.5349 37.9628 70.5349 36.571H146.314C146.314 37.9627 145.761 39.2974 144.776 40.2815C143.792 41.2656 142.456 41.8185 141.064 41.8187Z" fill="#6F2A1A"/>
<path d="M142.305 13.6475H113.405V36.5707H142.305V13.6475Z" fill="#BDD8F5"/>
<path d="M140.374 15.8997H115.339V34.3151H140.374V15.8997Z" fill="#FB4C47"/>
<path d="M127.856 31.0166C131.12 31.0166 133.766 28.3721 133.766 25.1099C133.766 21.8477 131.12 19.2031 127.856 19.2031C124.592 19.2031 121.947 21.8477 121.947 25.1099C121.947 28.3721 124.592 31.0166 127.856 31.0166Z" fill="#FFC700"/>
<path d="M134.989 34.3148H115.339V25.4971C118.732 25.3687 123.742 25.7811 128.476 28.501C131.027 29.9664 133.245 31.9463 134.989 34.3148Z" fill="#1DB776"/>
<path d="M140.675 22.2036V34.315H124.92C125.93 32.2078 127.228 30.2511 128.776 28.5012C131.466 25.4783 135.303 22.8741 140.675 22.2036Z" fill="#11915B"/>
<path d="M85.8609 46.3746H81.1501L81.8008 36.571H85.2102L85.8609 46.3746Z" fill="#592A3C"/>
<path d="M148.002 46.3744H143.291L143.942 36.5708H147.351L148.002 46.3744Z" fill="#592A3C"/>
<path d="M247.078 31.4274H179.899V0H247.078V31.4274ZM182.78 28.549H244.198V2.87918H182.779L182.78 28.549Z" fill="#925C50"/>
<path d="M244.197 2.87866H182.778V28.5485H244.197V2.87866Z" fill="white"/>
<path d="M196.436 21.8658C201.612 20.6538 204.824 15.4778 203.612 10.3049C202.399 5.13197 197.221 1.92098 192.045 3.13294C186.869 4.3449 183.657 9.52088 184.869 14.6938C186.082 19.8667 191.261 23.0777 196.436 21.8658Z" fill="#FFC700"/>
<path d="M182.778 20.4449L201.036 12.2953C202.491 11.646 204.095 11.4059 205.677 11.6011C207.258 11.7963 208.755 12.4194 210.008 13.403L229.304 28.5489H182.779L182.778 20.4449Z" fill="#11915B"/>
<path d="M215.422 17.052L229.175 12.5075C230.645 12.0215 232.219 11.9344 233.734 12.2552C235.249 12.5759 236.652 13.293 237.799 14.3331L244.962 20.8266V28.5504H230.068L215.422 17.052Z" fill="#1DB776"/>
</g>
<path d="M272.595 95.5314V242" stroke="#925D51" stroke-width="5.81" stroke-miterlimit="10"/>
<path d="M247.053 95.0105C247.053 95.0105 269.338 105.579 297.908 93.7672L282.48 54.6025L259.625 53.9805L247.053 95.0105Z" fill="#AC6352"/>
<path d="M288.528 69.9562C279.549 81.3321 264.965 86.1226 249.663 86.4921L247.053 95.0105C247.053 95.0105 269.338 105.579 297.909 93.7672L288.528 69.9562Z" fill="#984B39"/>
<rect x="51.3765" y="242.2" width="230.797" height="5.38209" rx="2.69104" fill="#925D51"/>
<path fill-rule="evenodd" clip-rule="evenodd" d="M166.973 125.078C166.717 125.038 166.457 125.019 166.194 125.019H107.54H107.489C103.437 125.018 100.161 125.018 100.161 139.9V219.668C100.161 217.663 101.197 218.225 102.824 219.107C104.103 219.801 105.746 220.693 107.54 220.693H166.194C166.756 220.693 167.304 220.605 167.83 220.463H237.597C240.089 220.463 242.374 219.574 244.152 218.882C246.413 218.002 247.853 217.442 247.853 219.441V139.914C247.853 125.077 243.299 125.078 237.668 125.078H237.597H166.973Z" fill="#F5C827"/>
<g opacity="0.699997">
<g opacity="0.699997">
<path d="M104.877 166.569V219.522C104.877 215.717 107.843 220.612 111.502 220.612H164.171C166.837 220.612 169.134 218.017 170.185 218.078V219.522C170.185 218.798 170.292 218.39 170.489 218.203C170.688 218.39 170.796 218.798 170.796 219.522V218.077C171.84 218.026 174.111 220.612 176.747 220.612H228.919C232.544 220.612 235.482 215.717 235.482 219.522V134.743C235.482 133.895 235.472 133.101 235.455 132.341L104.877 166.569Z" fill="#DCB21D"/>
</g>
</g>
<path d="M110.731 205.927C110.731 211.302 107.659 215.658 103.869 215.658H88.7712C84.981 215.658 81.9082 211.302 81.9082 205.927V170.895C81.9082 165.521 84.981 161.164 88.7712 161.164H103.869C107.659 161.164 110.731 165.521 110.731 170.895V205.927Z" fill="#EBAFB2"/>
<path d="M117.008 209.808C117.008 215.653 112.55 220.392 107.051 220.392H85.1456C79.6463 220.392 75.1885 215.653 75.1885 209.808V171.706C75.1885 165.861 79.6463 161.122 85.1456 161.122H107.051C112.55 161.122 117.008 165.861 117.008 171.706V209.808Z" fill="#CAA41E"/>
<path d="M268.805 209.899C268.805 215.762 264.409 220.516 258.986 220.516H237.384C231.961 220.516 227.564 215.762 227.564 209.899V171.677C227.564 165.814 231.961 161.06 237.384 161.06H258.986C264.409 161.06 268.805 165.814 268.805 171.677V209.899Z" fill="#CAA41E"/>
<path d="M91.435 254.636C91.435 256.494 90.2227 258 88.7276 258C87.2318 258 86.0195 256.494 86.0195 254.636V243.012C86.0195 241.154 87.2318 239.647 88.7276 239.647C90.2227 239.647 91.435 241.154 91.435 243.012V254.636Z" fill="#925D51"/>
<path d="M264.682 254.034C264.682 255.892 263.47 257.398 261.974 257.398C260.479 257.398 259.267 255.892 259.267 254.034V242.41C259.267 240.552 260.479 239.046 261.974 239.046C263.47 239.046 264.682 240.552 264.682 242.41V254.034Z" fill="#925D51"/>
<path d="M266.148 161.122H258.555C254.743 161.122 251.653 165.481 251.653 170.858V219.537H97.3833V170.858C97.3833 165.481 94.2931 161.122 90.4809 161.122H82.8885C79.0763 161.122 75.9861 165.481 75.9861 170.858V237.548C75.9861 240.362 76.8376 242.89 78.1911 244.668C79.4507 246.572 81.2413 247.771 83.2339 247.771L266.148 247.284C269.96 247.284 273.051 242.925 273.051 237.548V170.858C273.051 165.481 269.96 161.122 266.148 161.122Z" fill="#F5C827"/>
<path d="M134.701 166.237H106.609C105.54 166.237 104.674 167.247 104.674 168.494V201.269C104.674 202.516 105.54 203.526 106.609 203.526H134.701C135.77 203.526 136.637 202.516 136.637 201.269V168.494C136.637 167.247 135.77 166.237 134.701 166.237Z" fill="white"/>
<path d="M256.479 169.799L230.933 165.341C229.961 165.171 228.999 166.031 228.783 167.262L223.131 199.616C222.916 200.846 223.53 201.982 224.501 202.151L250.048 206.61C251.02 206.78 251.982 205.919 252.197 204.689L257.85 172.335C258.065 171.104 257.451 169.969 256.479 169.799Z" fill="white"/>
<path fill-rule="evenodd" clip-rule="evenodd" d="M166.376 226.974C166.366 226.974 166.356 226.974 166.345 226.974H101.877C98.1877 226.974 95.1968 222.233 95.1968 216.384V206.854C95.1968 201.005 98.1877 196.264 101.877 196.264H166.345C166.907 196.264 167.452 196.374 167.973 196.581H252.812C257.999 196.581 262.204 201.273 262.204 207.061V216.493C262.204 222.282 257.999 226.974 252.812 226.974H166.376Z" fill="#FFE792"/>
<path d="M162.504 109.305C161.542 109.228 160.646 108.789 159.987 108.083C158.266 106.237 155.801 101.944 159.331 94.3198C165.903 80.1216 189.939 82.2517 195.671 92.5686C199.75 99.9082 203.808 101.364 201.619 103.573C199.506 105.704 174.473 110.272 162.504 109.305Z" fill="#FF504A"/>
<path d="M204.867 194.606C204.841 194.609 204.814 194.613 204.788 194.617C199.59 195.374 194.319 196.069 189.032 196.478C188.73 196.5 188.426 196.524 188.122 196.542C182.528 196.94 176.919 197 171.369 196.454C169.548 196.275 167.732 196.028 165.935 195.699C161.919 194.965 159.212 191.169 159.862 187.139C160.475 183.356 160.875 179.771 161.138 176.402C161.177 175.901 161.215 175.406 161.247 174.916C161.513 170.983 161.6 167.361 161.628 164.07C161.629 163.79 161.632 163.514 161.633 163.24C161.633 163.116 161.635 162.993 161.635 162.872C161.637 162.684 161.637 162.498 161.637 162.314C161.639 162.188 161.639 162.065 161.639 161.944C161.639 161.687 161.64 161.437 161.639 161.187C161.643 160.417 161.64 159.67 161.643 158.945V158.752C161.644 156.241 161.654 153.993 161.755 152.023C161.759 151.933 161.762 151.845 161.77 151.757C161.792 151.348 161.812 150.942 161.832 150.542C161.85 150.154 161.869 149.769 161.883 149.389C161.925 148.322 161.953 147.294 161.97 146.312C161.98 145.486 161.98 144.694 161.968 143.943C161.952 143.11 161.922 142.329 161.875 141.605C161.857 141.366 161.841 141.119 161.822 140.865C161.792 140.481 161.76 140.082 161.727 139.672C161.707 139.423 161.686 139.173 161.66 138.918C161.649 138.806 161.64 138.693 161.629 138.579C161.628 138.551 161.625 138.524 161.623 138.498C161.608 138.34 161.594 138.183 161.58 138.023C161.564 137.867 161.548 137.712 161.533 137.555C161.508 137.281 161.481 137.002 161.451 136.72C161.322 135.407 161.171 134.028 161.018 132.614C160.968 132.171 160.919 131.722 160.87 131.272C160.791 130.574 160.711 129.869 160.634 129.168C160.58 128.714 160.529 128.261 160.478 127.809C159.703 120.993 158.974 114.467 159.233 112.396C159.682 108.811 177.049 99.3457 177.049 99.3457L187.473 99.0182C187.473 99.0182 202.106 104.912 204.805 108.47C204.82 108.488 204.832 108.506 204.845 108.522C205.457 109.36 205.843 110.525 206.063 111.964C206.261 113.23 206.331 114.706 206.316 116.362C206.31 117.54 206.258 118.81 206.182 120.157C206.102 121.585 205.993 123.101 205.872 124.687C205.838 125.149 205.802 125.617 205.765 126.09C205.728 126.571 205.692 127.056 205.655 127.548C205.632 127.865 205.608 128.185 205.585 128.506C205.521 129.354 205.459 130.218 205.403 131.093C205.385 131.375 205.365 131.66 205.347 131.946C205.335 132.126 205.324 132.309 205.315 132.491C205.303 132.676 205.292 132.861 205.282 133.048V133.051C205.272 133.223 205.261 133.393 205.254 133.564C205.241 133.75 205.232 133.937 205.223 134.124C205.206 134.467 205.188 134.811 205.174 135.158C205.159 135.444 205.148 135.732 205.137 136.021C205.133 136.071 205.131 136.125 205.131 136.177C205.121 136.363 205.114 136.55 205.109 136.735L205.106 136.832L205.104 136.879C205.096 137.122 205.088 137.37 205.081 137.615C205.072 137.91 205.064 138.205 205.057 138.498C205.054 138.633 205.053 138.773 205.051 138.91C205.047 139.032 205.046 139.158 205.043 139.281C205.043 139.344 205.042 139.404 205.042 139.468C205.038 139.638 205.036 139.808 205.034 139.982C205.032 140.272 205.031 140.565 205.031 140.865V141.34C205.032 142.171 205.041 143.039 205.057 143.943C205.063 144.316 205.072 144.694 205.08 145.078C205.089 145.484 205.1 145.895 205.11 146.312C205.137 147.187 205.165 148.08 205.201 148.99C205.205 149.123 205.209 149.255 205.215 149.389C205.217 149.444 205.219 149.497 205.221 149.552C205.232 149.848 205.243 150.146 205.257 150.448C205.276 150.881 205.296 151.319 205.313 151.757C205.333 152.231 205.366 152.733 205.408 153.262C205.459 153.924 205.525 154.627 205.605 155.369C205.622 155.542 205.642 155.718 205.663 155.894C205.696 156.179 205.728 156.469 205.768 156.763C205.79 156.948 205.811 157.132 205.836 157.32C205.851 157.438 205.866 157.557 205.883 157.677C205.94 158.123 206.002 158.582 206.068 159.048C206.075 159.1 206.083 159.151 206.089 159.203C206.123 159.44 206.16 159.677 206.193 159.919C206.26 160.379 206.332 160.849 206.405 161.326C206.427 161.459 206.447 161.595 206.468 161.73C206.595 162.541 206.732 163.372 206.874 164.222C206.899 164.371 206.926 164.523 206.952 164.674C207.008 165.009 207.067 165.346 207.126 165.686C207.331 166.869 207.549 168.08 207.776 169.309C208.041 170.731 208.317 172.178 208.604 173.635C208.838 174.834 209.081 176.04 209.326 177.245C209.9 180.066 210.498 182.884 211.087 185.604C212.006 189.839 209.155 193.98 204.867 194.606Z" fill="white"/>
<path d="M206.064 111.964C198.449 113.596 191.383 114.062 185.803 114.062C184.789 114.062 183.824 114.047 182.914 114.021C174.292 113.769 168.685 112.52 168.45 112.468L168.856 110.673L169.261 108.879H169.262C169.372 108.904 174.872 110.114 183.119 110.347C188.689 110.503 196.387 110.224 204.806 108.47C204.82 108.488 204.833 108.505 204.846 108.522C205.458 109.36 205.844 110.525 206.064 111.964Z" fill="#1DB776" fill-opacity="0.56"/>
<path d="M206.317 116.362C206.309 117.54 206.258 118.81 206.182 120.157C198.733 121.74 191.789 122.207 186.199 122.207C184.814 122.207 183.513 122.178 182.308 122.131C173.692 121.793 168.099 120.488 167.865 120.433L168.712 116.852C168.767 116.865 174.266 118.142 182.55 118.457C188.568 118.688 197.078 118.434 206.317 116.362Z" fill="#1DB776" fill-opacity="0.56"/>
<path d="M205.873 124.688C205.838 125.15 205.802 125.617 205.766 126.09C205.728 126.571 205.693 127.057 205.656 127.548C205.632 127.865 205.609 128.185 205.585 128.507C198.567 129.925 192.005 130.36 186.601 130.36C184.836 130.36 183.197 130.314 181.704 130.241C173.095 129.818 167.516 128.456 167.282 128.399L168.165 124.827C168.219 124.84 173.704 126.171 181.982 126.57C188.021 126.861 196.573 126.69 205.873 124.688Z" fill="#1DB776" fill-opacity="0.56"/>
<path d="M205.283 133.048V133.052C205.274 133.224 205.263 133.393 205.255 133.564C205.243 133.751 205.234 133.937 205.225 134.124C205.207 134.468 205.19 134.811 205.175 135.158C205.161 135.444 205.149 135.733 205.139 136.021C205.135 136.072 205.132 136.126 205.132 136.178C205.122 136.364 205.116 136.551 205.111 136.735L205.107 136.833C198.466 138.116 192.236 138.523 187.004 138.523C184.854 138.523 182.874 138.455 181.1 138.35C172.497 137.841 166.931 136.423 166.699 136.364L167.617 132.801H167.618C167.669 132.814 169.058 133.164 171.465 133.571C173.872 133.979 177.295 134.443 181.414 134.683C187.441 135.034 195.98 134.949 205.283 133.048Z" fill="#1DB776" fill-opacity="0.56"/>
<path d="M167.069 140.776L166.593 142.552L167.071 140.776H167.069ZM205.059 143.943C205.043 143.04 205.034 142.171 205.033 141.341C195.593 143.206 186.935 143.211 180.848 142.794C172.614 142.233 167.17 140.802 167.071 140.776L166.593 142.552L166.116 144.329C166.348 144.39 171.898 145.864 180.495 146.458C182.541 146.601 184.864 146.696 187.406 146.696C192.575 146.696 198.641 146.299 205.082 145.078C205.074 144.694 205.065 144.316 205.059 143.943Z" fill="#1DB776" fill-opacity="0.56"/>
<path d="M205.409 153.262C199.03 154.476 192.998 154.88 187.806 154.88C184.868 154.88 182.2 154.75 179.89 154.568C171.299 153.885 165.764 152.357 165.532 152.293L166.027 150.522L166.521 148.75H166.522C166.61 148.775 172.042 150.262 180.279 150.908C186.522 151.397 195.475 151.47 205.222 149.552C205.233 149.849 205.245 150.147 205.259 150.448C205.277 150.881 205.297 151.319 205.315 151.757C205.335 152.23 205.368 152.733 205.409 153.262Z" fill="#1DB776" fill-opacity="0.56"/>
<path d="M206.406 161.326C199.839 162.636 193.598 163.073 188.202 163.073C184.866 163.073 181.855 162.905 179.285 162.676C170.7 161.908 165.179 160.325 164.948 160.258L165.973 156.725V156.724C166.027 156.74 171.453 158.29 179.71 159.02C186.204 159.595 195.645 159.748 205.884 157.677C205.941 158.123 206.003 158.581 206.069 159.048C206.077 159.1 206.084 159.151 206.091 159.203C206.124 159.44 206.161 159.677 206.194 159.919C206.261 160.38 206.333 160.849 206.406 161.326Z" fill="#1DB776" fill-opacity="0.56"/>
<path d="M207.777 169.309C200.885 170.784 194.299 171.274 188.593 171.274C184.859 171.274 181.501 171.065 178.679 170.784C170.099 169.93 164.594 168.292 164.363 168.222L165.424 164.7C165.478 164.715 170.89 166.32 179.14 167.133C186.008 167.809 196.178 168.048 207.126 165.686C207.332 166.869 207.549 168.08 207.777 169.309Z" fill="#1DB776" fill-opacity="0.56"/>
<path d="M209.327 177.246C202.046 178.93 195.049 179.488 188.981 179.488C184.845 179.488 181.142 179.229 178.073 178.892C169.501 177.952 164.009 176.259 163.78 176.187L164.329 174.431L164.876 172.675L164.877 172.676C164.962 172.701 170.353 174.352 178.572 175.246C185.855 176.037 196.863 176.372 208.604 173.635C208.838 174.834 209.081 176.04 209.327 177.246Z" fill="#1DB776" fill-opacity="0.56"/>
<path d="M181.292 189.656C181.644 174.487 179.047 156.836 179.069 141.663C179.089 128.058 180.083 114.551 180.072 100.946C176.826 101.19 175.432 101.745 175.432 101.745C175.432 101.745 172.329 104.393 162.23 107.683C152.707 110.786 154.477 145.959 155.056 165.645C155.634 185.332 155.405 197.814 174.125 200.206C175.884 200.431 177.611 200.629 179.302 200.795C179.331 196.293 181.188 194.169 181.292 189.656Z" fill="#FB4C47"/>
<path d="M160.983 149.659C160.782 149.659 160.601 149.518 160.557 149.313C160.506 149.078 160.657 148.846 160.893 148.795C161.131 148.743 166.75 147.464 168.688 140.736C168.754 140.504 168.996 140.371 169.228 140.437C169.459 140.503 169.594 140.746 169.527 140.977C167.441 148.225 161.333 149.594 161.074 149.649C161.044 149.656 161.013 149.659 160.983 149.659Z" fill="#B63A37"/>
<path d="M177.326 186.668C177.144 186.668 176.992 186.527 176.982 186.343C175.475 159.18 174.276 132.628 176.135 106.421C176.149 106.231 176.314 106.089 176.503 106.102C176.693 106.115 176.836 106.28 176.822 106.47C174.965 132.637 176.164 159.165 177.67 186.305C177.68 186.495 177.535 186.658 177.345 186.668C177.338 186.668 177.332 186.668 177.326 186.668Z" fill="#B63A37"/>
<path d="M213.786 121.461C214.238 107.447 207.488 103.749 194.018 101.729C193.965 101.721 193.914 101.713 193.861 101.706C193.645 104.021 193.724 106.372 193.875 108.683C194.117 112.38 194.546 116.055 194.695 119.757C195.317 135.208 196.829 145.701 195.588 165.98C194.654 181.221 197.091 189.221 197.517 200.77C205.164 199.601 211.182 196.489 214.888 190.174C221.84 178.326 213.336 135.475 213.786 121.461Z" fill="#FB4C47"/>
<path d="M212.205 149.186C212.172 149.186 212.14 149.183 212.107 149.175C212.017 149.155 203.061 146.957 201.547 133.932C201.519 133.693 201.691 133.476 201.931 133.448C202.172 133.419 202.387 133.592 202.414 133.832C203.858 146.251 212.217 148.305 212.302 148.324C212.537 148.378 212.684 148.612 212.63 148.847C212.584 149.049 212.404 149.186 212.205 149.186Z" fill="#B63A37"/>
<path d="M198.545 184.177C198.379 184.177 198.233 184.057 198.205 183.888C197.574 180.053 197.816 169.764 198.051 159.816C198.23 152.247 198.398 145.098 198.201 140.792C197.536 126.212 195.544 105.849 195.524 105.645C195.505 105.456 195.643 105.287 195.832 105.268C196.02 105.25 196.191 105.388 196.209 105.577C196.229 105.781 198.223 126.161 198.89 140.76C199.087 145.09 198.919 152.251 198.74 159.832C198.506 169.749 198.264 180.005 198.885 183.776C198.916 183.963 198.789 184.141 198.601 184.172C198.583 184.175 198.564 184.177 198.545 184.177Z" fill="#B63A37"/>
<path d="M186.299 69.5882L179.675 71.9938C179.675 71.9938 177.688 74.7336 175.083 74.1686C174.038 73.9414 172.895 73.183 171.739 71.5049C167.701 65.6386 177.44 57.511 183.294 58.8767C186.165 59.5462 186.943 62.1374 186.989 64.6035C187.038 67.1638 186.299 69.5882 186.299 69.5882Z" fill="#002014"/>
<path d="M186.298 69.5882L179.675 71.9938C179.675 71.9938 177.688 74.7336 175.083 74.1686C175.083 71.1303 179.345 65.5751 186.989 64.6035C187.038 67.1638 186.298 69.5882 186.298 69.5882Z" fill="#FFD339"/>
<path d="M186.188 57.869C186.068 57.869 185.938 57.8829 185.797 57.9107C185.454 57.9796 185.232 58.1464 185.098 58.4358C184.503 59.7242 185.758 62.7927 186.655 64.6055C187.209 62.5945 187.873 59.2329 186.935 58.1736C186.754 57.9699 186.508 57.869 186.188 57.869ZM186.759 66.1187C186.61 66.1187 186.471 66.0383 186.397 65.9053C186.08 65.3367 183.329 60.2867 184.344 58.0878C184.588 57.559 185.035 57.2158 185.635 57.0961C186.657 56.8925 187.245 57.2702 187.556 57.6225C189.187 59.4631 187.367 65.1869 187.155 65.8334C187.103 65.9899 186.964 66.1011 186.799 66.1168C186.786 66.118 186.773 66.1187 186.759 66.1187Z" fill="#FFD339"/>
<path d="M191.789 59.9125C191.749 59.9125 191.71 59.9149 191.67 59.9209C190.266 60.1077 188.57 63.0849 187.673 64.9685C189.537 64.1835 192.494 62.6843 192.887 61.3211C192.975 61.0141 192.916 60.7428 192.701 60.466C192.412 60.0944 192.113 59.9125 191.789 59.9125ZM186.876 66.145C186.764 66.145 186.655 66.1003 186.576 66.0169C186.461 65.8973 186.429 65.722 186.492 65.5697C186.754 64.9419 189.122 59.4224 191.56 59.0973C192.027 59.0351 192.717 59.133 193.357 59.956C193.733 60.4394 193.846 60.9911 193.685 61.5507C193.014 63.8778 187.629 65.8973 187.018 66.1202C186.971 66.1372 186.924 66.145 186.876 66.145Z" fill="#FFD339"/>
<path d="M174.582 75.0308C173.135 74.8145 171.508 74.0434 170.487 71.9133C168.075 66.8851 173.843 62.6419 173.902 62.5996C174.02 62.5144 174.184 62.5415 174.269 62.6588C174.355 62.7766 174.328 62.9416 174.21 63.0268C174.155 63.0667 168.741 67.0555 170.961 71.6855C172.943 75.8164 177.305 74.3631 177.49 74.2984C177.628 74.2513 177.777 74.3244 177.825 74.4616C177.872 74.5987 177.8 74.7486 177.662 74.7963C177.636 74.8054 176.225 75.2761 174.582 75.0308Z" fill="#002014"/>
<path d="M193.772 75.6525C193.772 75.6525 196.357 86.5072 192.767 93.5331C189.177 100.559 185.569 102.473 190.725 104.656C195.88 106.838 201.746 102.681 205.683 104.843C210.435 107.453 205.106 85.5476 202.731 76.2773C200.3 66.7919 188.756 65.7302 188.756 65.7302L193.772 75.6525Z" fill="#002014"/>
<path d="M200.606 83.4519C200.606 83.4519 205.225 72.8728 196.564 67.8929C187.903 62.913 179.155 66.6741 176.824 72.4075C174.493 78.1409 178.062 81.9122 178.062 81.9122L200.606 83.4519Z" fill="#002014"/>
<path d="M185.762 105.789C188.262 106.483 189.262 105.375 190.03 104.551L190.546 100.069L190.848 97.4548L190.911 97.0699L189.762 96.9424L181.281 94.4963L180.134 99.881L179.589 102.434C180.679 103.463 182.128 104.78 185.762 105.789Z" fill="#FBB990"/>
<path d="M190.545 100.068C187.917 101.253 182.734 100.715 180.134 99.8805C180.125 99.8793 180.118 99.8763 180.109 99.8733L181.281 94.4958L189.761 96.9419L190.91 97.0694L190.848 97.4544L190.545 100.068Z" fill="#181818"/>
<path d="M197.47 83.5173C197.47 83.5173 202.505 82.0537 201.517 86.5024C200.429 91.4007 196.42 90.0103 195.73 89.693L197.47 83.5173Z" fill="#FB9476"/>
<path d="M193.852 91.6527C193.573 93.5163 194.863 95.259 196.726 95.5376C198.59 95.8162 200.333 94.5266 200.612 92.6624C200.849 91.0726 199.943 89.574 198.517 88.9938C198.514 88.9969 198.512 89.0005 198.509 89.0059C198.269 89.0688 198.219 89.2537 198.197 89.4549C199.462 89.9051 200.276 91.2043 200.071 92.5821C199.837 94.1465 198.373 95.2306 196.807 94.9968C195.243 94.7629 194.159 93.2981 194.392 91.7337C194.498 91.0266 194.854 90.4187 195.357 89.9867C195.488 89.8755 195.628 89.7752 195.776 89.6882C195.644 89.5691 195.519 89.4307 195.409 89.2724C195.273 89.357 195.14 89.4531 195.018 89.5582C194.41 90.0737 193.978 90.8037 193.852 91.6527Z" fill="white"/>
<path d="M198.033 88.2384C198.023 88.2372 198.014 88.2348 198.004 88.2324C197.858 88.1943 197.77 88.0451 197.808 87.8988C198.368 85.7397 199.958 84.9916 200.025 84.9608C200.162 84.8986 200.325 84.9584 200.388 85.0962C200.45 85.2333 200.39 85.3953 200.254 85.4581C200.194 85.4859 198.829 86.1404 198.338 88.0366C198.302 88.1732 198.17 88.259 198.033 88.2384Z" fill="#FA7764"/>
<path d="M199.834 87.3293C199.757 87.3178 199.685 87.2737 199.642 87.2018C199.634 87.1897 199.297 86.6555 198.816 86.6495C198.665 86.6489 198.544 86.5244 198.545 86.3733C198.547 86.2223 198.671 86.1014 198.822 86.1032C199.607 86.1111 200.088 86.8839 200.108 86.9166C200.187 87.0459 200.146 87.2139 200.017 87.2924C199.96 87.3269 199.895 87.3384 199.834 87.3293Z" fill="#FA7764"/>
<path d="M200.231 82.9071C199.918 84.6764 199.436 86.3956 198.836 88.0078C198.566 88.7384 198.268 89.446 197.954 90.1264C195.735 94.922 192.545 98.3772 189.998 98.6764C185.964 99.1507 181.385 97.1802 179.141 91.9199C178.774 91.0606 178.389 90.0225 178.206 88.7994C178.181 88.6296 178.157 88.4556 178.136 88.2779C177.478 82.8128 178.864 75.0218 178.864 75.0218C182.17 70.086 189.278 71.4016 193.401 72.0802C197.527 72.76 201.668 74.8103 200.231 82.9071Z" fill="#FFC29C"/>
<path d="M188.882 95.8517C188.006 95.7211 187.489 95.3241 187.467 95.3072C187.348 95.2141 187.326 95.0425 187.419 94.9235C187.511 94.8044 187.682 94.7827 187.801 94.8751C187.81 94.8818 188.274 95.2274 189.047 95.3223C189.835 95.4184 190.363 95.2365 190.368 95.2347C190.51 95.1845 190.666 95.2589 190.717 95.4003C190.768 95.5417 190.695 95.6982 190.553 95.7489C190.527 95.7586 189.906 95.978 188.981 95.865C188.947 95.8613 188.914 95.8565 188.882 95.8517Z" fill="#FB9476"/>
<path d="M173.53 148.304C173.354 148.304 173.191 148.193 173.134 148.017C172.54 146.188 172.131 144.124 172.113 144.037C172.069 143.812 172.215 143.593 172.441 143.549C172.665 143.505 172.884 143.651 172.928 143.876C172.932 143.897 173.346 145.979 173.925 147.761C173.995 147.979 173.876 148.213 173.658 148.284C173.615 148.298 173.572 148.304 173.53 148.304Z" fill="#108A57"/>
<path d="M175.747 147.56C175.574 147.56 175.412 147.451 175.354 147.278C174.736 145.457 174.299 143.4 174.281 143.314C174.233 143.089 174.377 142.868 174.602 142.821C174.826 142.773 175.046 142.917 175.093 143.141C175.098 143.162 175.539 145.238 176.141 147.011C176.214 147.228 176.098 147.464 175.881 147.537C175.836 147.553 175.791 147.56 175.747 147.56Z" fill="#108A57"/>
<path d="M177.967 146.816C177.796 146.816 177.636 146.71 177.576 146.539C176.934 144.727 176.47 142.677 176.451 142.59C176.4 142.367 176.541 142.144 176.765 142.094C176.988 142.044 177.211 142.184 177.261 142.408C177.266 142.429 177.734 144.497 178.359 146.262C178.436 146.478 178.322 146.715 178.106 146.792C178.06 146.808 178.013 146.816 177.967 146.816Z" fill="#108A57"/>
<path d="M180.184 146.071C180.015 146.071 179.857 145.967 179.794 145.799C179.129 143.996 178.638 141.952 178.617 141.866C178.564 141.643 178.701 141.419 178.925 141.366C179.148 141.312 179.371 141.45 179.425 141.673C179.43 141.694 179.926 143.755 180.574 145.511C180.653 145.727 180.543 145.966 180.328 146.045C180.281 146.063 180.232 146.071 180.184 146.071Z" fill="#108A57"/>
<path d="M182.404 145.327C182.237 145.327 182.079 145.226 182.016 145.061C181.327 143.266 180.808 141.229 180.787 141.143C180.73 140.921 180.865 140.695 181.087 140.639C181.31 140.583 181.536 140.717 181.592 140.94C181.597 140.96 182.12 143.015 182.791 144.763C182.873 144.977 182.767 145.217 182.553 145.3C182.504 145.318 182.454 145.327 182.404 145.327Z" fill="#108A57"/>
<path d="M184.622 144.583C184.457 144.583 184.301 144.484 184.236 144.321C183.522 142.535 182.977 140.504 182.954 140.419C182.895 140.198 183.027 139.97 183.249 139.91C183.47 139.851 183.698 139.983 183.757 140.205C183.762 140.225 184.313 142.274 185.007 144.013C185.092 144.226 184.988 144.468 184.776 144.553C184.725 144.573 184.673 144.583 184.622 144.583Z" fill="#108A57"/>
<path d="M186.84 143.839C186.677 143.839 186.523 143.742 186.456 143.582C185.719 141.805 185.147 139.781 185.123 139.696C185.06 139.475 185.189 139.245 185.41 139.183C185.631 139.121 185.86 139.25 185.922 139.471C185.928 139.491 186.505 141.534 187.224 143.264C187.311 143.475 187.211 143.719 186.999 143.807C186.947 143.828 186.893 143.839 186.84 143.839Z" fill="#108A57"/>
<path d="M198.793 99.5548C198.709 100.638 198.508 101.72 198.138 102.731C198.045 102.99 197.939 103.243 197.82 103.49V103.492C197.225 104.751 196.325 105.86 195.001 106.672C195.001 106.672 188.548 109.415 180.947 106.048H180.945C180.514 105.857 180.078 105.645 179.639 105.412C179.255 105.209 178.871 104.99 178.485 104.753C175.184 102.731 173.875 100.005 173.517 97.409C173.485 97.1776 173.46 96.9485 173.443 96.7183C173.302 94.8879 173.598 93.1633 173.951 91.849C173.976 91.762 173.999 91.6762 174.023 91.5934C174.405 90.2543 174.824 89.4023 174.824 89.4023C174.824 89.4023 176.533 88.6596 178.775 88.3188C179.627 88.1895 180.557 88.1182 181.5 88.1683C182.57 88.2239 183.657 88.4366 184.666 88.8971C191.874 92.1856 195.525 93.654 197.616 90.8314C197.616 90.8314 197.979 91.8816 198.311 93.4637C198.358 93.6884 198.403 93.9223 198.448 94.1664C198.57 94.8372 198.68 95.5774 198.752 96.3576C198.847 97.3794 198.879 98.4665 198.793 99.5548Z" fill="#0CAD69"/>
<path d="M198.449 94.1662C198.353 94.3148 198.245 94.4653 198.126 94.6151C197.213 95.7687 195.439 97.0969 192.109 97.0969C191.904 97.0969 191.695 97.0921 191.48 97.0812C188.25 96.9271 185.733 95.5941 183.298 94.3051C180.391 92.7673 177.645 91.3134 174.001 92.0808L173.952 91.8487L173.904 91.6167C173.944 91.6089 173.985 91.6004 174.024 91.5931C177.774 90.8456 180.566 92.3231 183.519 93.8864C185.909 95.1499 188.38 96.4582 191.502 96.6062C194.332 96.7428 196.43 95.979 197.74 94.3384C197.975 94.0441 198.162 93.7462 198.311 93.4634C198.359 93.6876 198.404 93.922 198.449 94.1662Z" fill="#108E59"/>
<path d="M198.137 102.73C198.044 102.989 197.938 103.242 197.82 103.49V103.491C196.612 104.184 195.166 104.659 193.492 104.911C192.541 105.055 191.517 105.125 190.424 105.125C189.001 105.125 187.462 105.004 185.819 104.763C180.891 104.034 176.678 102.443 176.635 102.427L176.805 101.983C176.847 101.999 181.018 103.574 185.896 104.294C189.777 104.864 194.806 104.984 198.137 102.73Z" fill="#108E59"/>
<path d="M186.744 140.754L172.132 145.525C172.132 145.525 171.939 144.673 171.64 143.226C171.573 142.903 171.501 142.549 171.425 142.169C171.219 141.141 170.981 139.915 170.73 138.547C170.667 138.2 170.604 137.846 170.54 137.481C170.337 136.337 170.129 135.113 169.927 133.833C169.872 133.478 169.815 133.12 169.761 132.756C169.58 131.56 169.404 130.326 169.244 129.073C169.197 128.71 169.151 128.346 169.107 127.98C168.957 126.74 168.824 125.491 168.714 124.251C168.68 123.88 168.649 123.51 168.621 123.141C168.52 121.849 168.446 120.576 168.409 119.345C168.398 118.966 168.39 118.592 168.386 118.221C168.369 116.842 168.403 115.527 168.502 114.313C168.534 113.915 168.573 113.529 168.62 113.156C168.652 112.885 168.69 112.621 168.73 112.363C168.921 111.161 169.185 110.07 169.505 109.08C169.638 108.664 169.782 108.267 169.933 107.887C172.638 101.094 177.95 99.7549 177.95 99.7549C181.885 100.145 183.614 104.349 183.614 104.349C182.789 105.135 182.194 106.215 181.785 107.511C181.679 107.847 181.586 108.197 181.505 108.56C181.286 109.533 181.154 110.602 181.092 111.738C181.072 112.091 181.06 112.451 181.054 112.815C181.036 113.878 181.073 114.988 181.155 116.13C181.18 116.486 181.209 116.845 181.242 117.205C181.345 118.304 181.483 119.426 181.651 120.552C181.705 120.911 181.76 121.268 181.818 121.626C182.001 122.747 182.209 123.868 182.434 124.975C182.505 125.33 182.58 125.684 182.655 126.037C182.898 127.175 183.157 128.291 183.421 129.369C183.507 129.721 183.594 130.067 183.682 130.409C183.974 131.566 184.273 132.67 184.56 133.696C184.658 134.048 184.757 134.392 184.853 134.725C185.208 135.955 185.54 137.046 185.824 137.95C185.941 138.323 186.049 138.663 186.148 138.97C186.515 140.102 186.744 140.754 186.744 140.754Z" fill="#0CAD69"/>
<path d="M181.783 107.511C181.678 107.847 181.584 108.197 181.504 108.56C178.917 108.241 174.22 107.945 169.503 109.081C169.636 108.665 169.78 108.267 169.932 107.888C172.276 107.381 174.527 107.212 176.385 107.193C178.579 107.17 180.466 107.34 181.783 107.511Z" fill="#108E59"/>
<path d="M181.091 111.739C181.071 112.091 181.059 112.451 181.053 112.815C177.966 112.683 173.118 112.807 168.501 114.313C168.533 113.916 168.572 113.53 168.619 113.156C171.679 112.215 174.731 111.857 177.127 111.745C178.62 111.675 179.97 111.69 181.091 111.739Z" fill="#108E59"/>
<path d="M181.241 117.205C177.947 117.261 173 117.673 168.408 119.345C168.397 118.967 168.389 118.591 168.384 118.221C171.764 117.037 175.219 116.517 177.867 116.296C179.072 116.195 180.183 116.148 181.153 116.13C181.178 116.486 181.208 116.844 181.241 117.205Z" fill="#108E59"/>
<path d="M181.818 121.627C178.416 121.856 173.35 122.496 168.714 124.252C168.68 123.88 168.649 123.51 168.621 123.141C173.283 121.414 178.254 120.781 181.651 120.552C181.705 120.911 181.76 121.268 181.818 121.627Z" fill="#108E59"/>
<path d="M182.654 126.037C179.196 126.428 173.977 127.274 169.243 129.074C169.196 128.711 169.15 128.346 169.106 127.979C173.863 126.2 178.983 125.363 182.433 124.974C182.504 125.331 182.579 125.684 182.654 126.037Z" fill="#108E59"/>
<path d="M183.681 130.409C180.215 130.956 174.808 132.014 169.927 133.833C169.871 133.478 169.815 133.12 169.76 132.757C174.626 130.97 179.951 129.921 183.421 129.369C183.507 129.721 183.593 130.067 183.681 130.409Z" fill="#108E59"/>
<path d="M184.855 134.725C181.426 135.423 175.802 136.715 170.732 138.547C170.669 138.201 170.605 137.846 170.541 137.482C175.589 135.674 181.13 134.397 184.562 133.695C184.66 134.047 184.759 134.392 184.855 134.725Z" fill="#108E59"/>
<path d="M186.147 138.97C182.827 139.806 176.95 141.373 171.64 143.226C171.573 142.903 171.501 142.55 171.425 142.17C176.704 140.335 182.501 138.789 185.824 137.95C185.941 138.323 186.049 138.664 186.147 138.97Z" fill="#108E59"/>
<path d="M180.946 106.048H180.945C180.837 106.042 180.726 106.03 180.61 106.008C180.259 105.941 179.937 105.733 179.638 105.412C177.126 102.702 176.479 92.009 176.479 92.009C176.479 92.009 177.42 89.682 178.775 88.3193C179.627 88.19 180.557 88.1187 181.5 88.1688C181.695 90.1769 182.371 96.5786 183.156 98.3401C184.06 100.363 183.944 106.208 180.946 106.048Z" fill="#128E5A"/>
<path d="M198.793 99.5547C195.122 102.403 187.111 100.763 179.795 98.6078C177.296 97.8712 175.214 97.5274 173.516 97.4095C173.486 97.1781 173.46 96.9485 173.443 96.7188C176.622 96.9176 180.883 97.8114 186.16 99.0103C193.986 100.787 197.552 97.7878 198.752 96.3581C198.847 97.3799 198.879 98.4676 198.793 99.5547Z" fill="#108E59"/>
<path d="M193.489 85.0641C193.368 85.8363 193.618 86.5174 194.049 86.585C194.481 86.6533 194.929 86.0811 195.05 85.3082C195.098 85.0036 195.087 84.7148 195.032 84.4707C195.799 84.6242 196.129 84.183 196.129 84.183C195.619 84.1752 194.97 83.9637 194.663 83.8537C194.555 83.8132 194.489 83.7872 194.489 83.7872C194.058 83.7189 193.611 84.29 193.489 85.0641Z" fill="#181818"/>
<path d="M194.489 83.7866C194.489 83.7866 194.555 83.8127 194.664 83.8533C194.61 83.8194 194.552 83.7963 194.489 83.7866Z" fill="#181818"/>
<path d="M198.837 88.0071C198.566 88.7377 198.27 89.4453 197.955 90.1257C197.608 90.1287 197.236 90.1046 196.852 90.0502C195.138 89.8079 193.827 89.0574 193.924 88.3745C194.022 87.6923 195.49 87.3364 197.202 87.5781C197.813 87.6645 198.374 87.8156 198.837 88.0071Z" fill="#FD9B7E"/>
<path d="M186.255 87.0346C186.157 87.7247 184.674 88.0843 182.942 87.8389C181.21 87.593 179.886 86.8352 179.984 86.1451C180.081 85.4556 181.565 85.0955 183.296 85.3408C185.028 85.5868 186.353 86.3445 186.255 87.0346Z" fill="#FD9B7E"/>
<path d="M179.105 82.6723C179.199 82.0191 178.921 81.3713 178.388 80.9833C177.066 80.0219 175.296 79.4775 174.419 81.225C172.792 84.4688 175.749 88.816 178.308 88.2432L179.105 82.6723Z" fill="#FBB990"/>
<path d="M179.641 88.0306C179.592 88.0765 179.543 88.1206 179.492 88.1611C179.346 88.2825 179.196 88.3859 179.043 88.4717C178.763 88.6306 178.479 88.7339 178.207 88.7998C178.181 88.6288 178.157 88.4554 178.138 88.2777C178.332 88.2312 178.532 88.1635 178.73 88.0638C178.89 87.9883 179.05 87.8922 179.202 87.7731C179.263 87.7254 179.325 87.6734 179.382 87.6196C179.477 87.5266 179.614 87.5471 179.685 87.6632C179.757 87.7768 179.739 87.9435 179.641 88.0306Z" fill="#FB9476"/>
<path d="M177.165 85.988C177.031 85.968 176.929 85.8502 176.932 85.7112C176.986 83.5213 175.596 82.352 175.582 82.3405C175.466 82.2444 175.449 82.0728 175.544 81.9562C175.64 81.839 175.811 81.8214 175.929 81.9169C175.994 81.9707 177.539 83.2566 177.479 85.7239C177.476 85.875 177.35 85.9946 177.199 85.9904C177.187 85.9904 177.176 85.9892 177.165 85.988Z" fill="#FB9476"/>
<path d="M175.42 84.454C175.357 84.4443 175.297 84.4135 175.253 84.3621C175.155 84.2479 175.167 84.0763 175.281 83.9772C175.313 83.9494 176.081 83.2949 176.944 83.5234C177.089 83.562 177.176 83.7119 177.137 83.8581C177.098 84.0038 176.948 84.0896 176.803 84.0521C176.223 83.8986 175.644 84.3863 175.638 84.3911C175.575 84.4449 175.495 84.4654 175.42 84.454Z" fill="#FB9476"/>
<path d="M191.491 87.9884H191.492H191.491ZM190.118 89.3685C190.008 89.3522 189.91 89.2688 189.888 89.1401C189.866 89.0193 189.937 88.9008 190.048 88.8477C190.721 88.5286 191.369 88.1183 191.482 87.9449C191.389 87.4463 191.02 85.4655 190.885 84.7404C190.857 84.5917 190.955 84.4503 191.104 84.4225C191.252 84.3947 191.395 84.492 191.422 84.6401C191.562 85.3894 191.951 87.4747 192.028 87.8875C192.055 88.0301 192.136 88.4633 190.275 89.345C190.225 89.3692 190.17 89.3764 190.118 89.3685Z" fill="#FB9476"/>
<path d="M186.647 84.0417C186.536 84.8158 186.098 85.3935 185.667 85.3331C185.234 85.272 184.972 84.5934 185.082 83.8187C185.126 83.5142 185.22 83.2404 185.345 83.0235C184.566 82.9462 184.38 82.4277 184.38 82.4277C184.869 82.5691 185.553 82.557 185.878 82.5413C185.993 82.534 186.064 82.528 186.064 82.528C186.495 82.589 186.757 83.2658 186.647 84.0417Z" fill="#181818"/>
<path d="M186.065 82.5281C186.065 82.5281 185.995 82.5341 185.879 82.5408C185.94 82.5244 186.002 82.5184 186.065 82.5281Z" fill="#181818"/>
<path d="M197.439 83.8278C197.282 83.5045 197.077 83.1824 196.855 82.8924C196.631 82.6005 196.38 82.3352 196.111 82.102C195.844 81.8651 195.55 81.6711 195.246 81.5158C194.947 81.3503 194.619 81.2596 194.303 81.178L194.27 81.1702C193.927 81.082 193.72 80.7315 193.808 80.3882C193.896 80.0444 194.246 79.8371 194.59 79.9254C194.629 79.9356 194.67 79.9507 194.706 79.9677C195.105 80.1574 195.492 80.3659 195.823 80.6438C196.158 80.9121 196.457 81.2149 196.707 81.5466C196.96 81.8754 197.175 82.224 197.353 82.5872C197.53 82.9528 197.673 83.3196 197.775 83.719C197.799 83.8139 197.742 83.91 197.647 83.9342C197.564 83.9553 197.48 83.9142 197.445 83.8399L197.439 83.8278Z" fill="#111111"/>
<path d="M182.711 81.4839C182.986 81.1074 183.292 80.7805 183.632 80.4711C183.972 80.1641 184.344 79.8879 184.748 79.6493C185.149 79.4063 185.589 79.2148 186.05 79.0746C186.512 78.9211 187.003 78.8649 187.498 78.8329C187.851 78.8099 188.156 79.0782 188.179 79.4317C188.201 79.7852 187.934 80.0904 187.58 80.1133C187.545 80.1158 187.51 80.1146 187.476 80.1115L187.435 80.1073C187.057 80.068 186.665 80.036 186.273 80.0958C185.881 80.1417 185.485 80.2342 185.103 80.3829C184.719 80.5267 184.343 80.7116 183.985 80.9352C183.631 81.1581 183.283 81.421 182.985 81.7068L182.976 81.7159C182.906 81.7836 182.794 81.7806 182.726 81.7105C182.666 81.6476 182.661 81.5515 182.711 81.4839Z" fill="#111111"/>
<path d="M182.4 74.4075C182.4 74.4075 187.47 81.3271 199.315 80.9887C205.688 80.8068 200.154 70.8555 190.654 70.296C181.154 69.737 182.4 74.4075 182.4 74.4075Z" fill="#002014"/>
<path d="M199.346 79.9057C199.346 79.9057 200.058 85.1829 198.837 88.0073C198.837 88.0073 201.127 83.2837 200.413 80.2979C199.698 77.3122 199.346 79.9057 199.346 79.9057Z" fill="#181818"/>
<path d="M185.577 74.4282C185.577 74.4282 179.931 84.0526 181.313 91.8218C182.693 99.5904 184.709 105.775 179.141 106.355C173.63 106.93 169.974 104.766 165.04 106.717H165.039C164.987 106.738 164.937 106.758 164.884 106.78C164.755 106.833 164.639 106.865 164.532 106.879C163.677 106.989 163.514 105.874 163.834 103.97C163.948 103.297 164.121 102.527 164.346 101.677C165.385 97.7401 167.523 92.1076 169.845 86.6945C171.669 82.4434 173.607 78.327 175.218 75.2742C175.805 74.1623 176.348 73.1931 176.826 72.4069C181.923 64.0467 193.274 66.404 193.274 66.404L185.577 74.4282Z" fill="#002014"/>
<path d="M175.556 75.6395C175.504 75.7344 172.629 81.0219 169.844 86.6936C167.571 91.3212 165.359 96.2062 164.785 98.7382C164.539 99.8289 164.403 100.808 164.343 101.677C164.156 104.455 164.757 106.11 165.037 106.716C164.986 106.737 164.934 106.758 164.882 106.779C164.753 106.832 164.637 106.865 164.53 106.878C164.308 106.388 163.964 105.428 163.832 103.969C163.709 102.621 163.768 100.846 164.271 98.6215C165.562 92.9153 174.705 76.1 175.093 75.387C175.121 75.3344 175.166 75.2969 175.216 75.274C175.289 75.2407 175.375 75.2407 175.45 75.2824C175.578 75.3513 175.626 75.5114 175.556 75.6395Z" fill="#002014"/>
<g opacity="0.399994">
<g opacity="0.399994">
<g opacity="0.399994">
<g opacity="0.399994">
<g opacity="0.399994">
<g opacity="0.399994">
<path opacity="0.399994" d="M192.278 81.0029C192.278 81.0029 186.127 79.135 184.375 85.8969C182.623 92.6582 188.686 95.6941 192.531 94.9509C196.378 94.207 198.908 82.1498 192.278 81.0029Z" fill="#FFC29C"/>
</g>
</g>
</g>
</g>
</g>
</g>
<path d="M186.143 80.2845C183.842 80.2845 181.972 82.156 181.972 84.4565C181.972 86.7564 183.842 88.6278 186.143 88.6278C188.443 88.6278 190.314 86.7564 190.314 84.4565C190.314 82.156 188.443 80.2845 186.143 80.2845ZM186.143 89.2019C183.526 89.2019 181.397 87.073 181.397 84.4565C181.397 81.8394 183.526 79.7105 186.143 79.7105C188.76 79.7105 190.889 81.8394 190.889 84.4565C190.889 87.073 188.76 89.2019 186.143 89.2019Z" fill="white"/>
<path d="M196.657 82.4169C194.357 82.4169 192.486 84.2883 192.486 86.5882C192.486 88.8887 194.357 90.7602 196.657 90.7602C198.958 90.7602 200.828 88.8887 200.828 86.5882C200.828 84.2883 198.958 82.4169 196.657 82.4169ZM196.657 91.3342C194.04 91.3342 191.911 89.2053 191.911 86.5882C191.911 83.9717 194.04 81.8428 196.657 81.8428C199.274 81.8428 201.403 83.9717 201.403 86.5882C201.403 89.2053 199.274 91.3342 196.657 91.3342Z" fill="white"/>
<path d="M192.182 85.3564C191.676 84.5769 190.744 84.9069 190.704 84.9214L190.507 84.3823C190.99 84.2059 192.062 84.1171 192.663 85.0434L192.182 85.3564Z" fill="white"/>
<path d="M199.729 194.361C198.401 195.314 196.592 198.161 193.45 199.161C175.6 204.84 158.942 193.817 158.942 193.817C157.953 188.928 158.565 183.374 160.212 181.34C159.694 180.618 160.037 179.755 160.037 179.755L152.176 165.183C152.366 165.302 164.506 172.977 173.502 178.413H173.506C176.098 179.979 178.429 181.359 180.137 182.318C182.743 183.781 186.069 183.924 189.329 183.475C195.682 182.597 201.777 179.467 201.777 179.467C201.777 179.467 216.977 170.504 220.814 170.813C223.797 171.053 213.003 187.5 199.729 194.361Z" fill="#108E59"/>
<path d="M166.807 209.105C166.807 209.105 165.846 209.285 164.285 209.606C163.84 209.697 163.347 209.798 162.815 209.911C162.108 210.06 161.331 210.227 160.502 210.411C160.029 210.516 159.54 210.626 159.036 210.74C152.778 212.165 144.492 214.333 141.155 216.453C140.921 216.602 140.694 216.749 140.476 216.897C135.391 220.316 134.351 223.268 133.408 222.669C132.424 222.045 132.203 219.486 133.809 217.803C134.921 216.636 135.699 214.935 137.193 213.096C137.596 212.599 138.052 212.092 138.581 211.582C140.916 209.331 144.654 207.005 146.741 205.217C146.876 205.102 147.003 204.989 147.123 204.878C148.841 203.294 149.511 200.033 152.646 199.042C154.178 198.559 156.014 198.747 157.785 199.214C158.1 199.297 158.413 199.39 158.721 199.487C159.182 199.635 159.633 199.797 160.067 199.964C160.667 200.199 161.236 200.446 161.755 200.689C162.253 200.921 162.706 201.148 163.096 201.352C164.038 201.846 164.621 202.213 164.621 202.213L166.807 209.105Z" fill="white"/>
<path d="M157.085 199.214C155.232 201.639 150.966 206.275 146.041 205.218C146.176 205.102 146.303 204.989 146.423 204.878C148.141 203.294 148.812 200.033 151.946 199.042C153.478 198.558 155.314 198.748 157.085 199.214Z" fill="#80D7B2"/>
<path d="M140.475 216.897C135.391 220.316 134.351 223.268 133.408 222.67C132.423 222.046 132.203 219.486 133.809 217.803C134.921 216.636 135.7 214.936 137.192 213.097C138.45 213.99 139.788 215.255 140.475 216.897Z" fill="#80D7B2"/>
<path d="M163.585 209.605C163.14 209.696 162.648 209.797 162.115 209.91C161.189 208.22 160.724 206.158 160.753 203.806C160.767 202.617 160.904 201.537 161.055 200.688C161.553 200.921 162.006 201.148 162.396 201.352C162.286 202.067 162.197 202.918 162.187 203.834C162.165 205.688 162.471 207.81 163.585 209.605Z" fill="#80D7B2"/>
<path d="M159.367 199.964C158.933 199.797 158.482 199.635 158.021 199.487C157.722 200.356 157.294 201.819 157.1 203.539C156.787 206.327 157.212 208.776 158.337 210.74C158.84 210.626 159.329 210.516 159.802 210.411C157.423 206.768 158.732 201.831 159.367 199.964Z" fill="#80D7B2"/>
<path d="M241.143 182.65C234.442 190.834 219.375 199.205 203.262 204.062C197.667 205.748 192.863 207.014 188.764 207.963C185.536 208.712 182.743 209.262 180.346 209.664C171.09 211.216 167.689 210.569 167.689 210.569C167.689 210.569 161.978 208.733 164.426 199.456C164.426 199.456 175.253 196.968 183.641 192.821C185.351 191.976 186.961 191.061 188.356 190.084C188.683 189.855 189.008 189.623 189.33 189.386C197.126 183.675 203.793 175.918 221.362 168.906C221.362 168.906 230.552 163.326 237.938 165.828C239.04 166.2 240.083 166.738 241.026 167.48C246.378 171.692 245.667 177.128 241.143 182.65Z" fill="#0CAD69"/>
<path d="M208.324 201.555L204.832 202.035L183.644 192.821C185.354 191.976 186.963 191.062 188.359 190.084C188.685 189.855 189.011 189.623 189.332 189.386L208.324 201.555Z" fill="#108E59"/>
<path d="M188.766 207.963C185.538 208.712 182.745 209.261 180.348 209.663C173.605 207.832 165.532 204.416 165.532 204.416L166.058 200.228L188.766 207.963Z" fill="#108E59"/>
<path d="M240.201 182.823C234.671 175.389 235.77 169.165 236.997 166C238.099 166.373 239.141 166.91 240.085 167.652C245.437 171.864 244.726 177.301 240.201 182.823Z" fill="#108E59"/>
<path d="M165.347 202.223C170.982 201.119 182.57 196.39 196.346 189.57C206.649 184.47 218.561 177.898 220.369 175.52C221.345 174.236 221.623 173.163 221.195 172.332C220.554 171.087 218.564 170.877 217.655 170.847C217.421 170.84 217.228 171.03 217.236 171.265C217.242 171.478 217.411 171.649 217.624 171.657C218.518 171.689 220.067 171.908 220.476 172.703C220.815 173.363 220.255 174.333 219.724 175.03C218.266 176.948 208.283 182.758 195.987 188.845C185.399 194.086 171.748 200.145 165.191 201.429L165.347 202.223Z" fill="#108E59"/>
<path d="M166.564 198.301C166.983 203.25 168.068 207.779 170.703 211.328C170.703 211.328 168.249 212.942 166.127 211.619C164.505 210.609 161.63 202.784 163.025 198.731C164.447 198.032 165.657 197.818 166.564 198.301Z" fill="#108E59"/>
<path d="M206.131 211.103C206.131 211.103 207.078 211.345 208.615 211.767C209.053 211.887 209.539 212.021 210.063 212.168C210.758 212.363 211.522 212.581 212.338 212.819C212.802 212.954 213.284 213.095 213.778 213.242C219.93 215.074 228.057 217.78 231.247 220.113C231.472 220.277 231.689 220.439 231.897 220.601C236.746 224.345 237.592 227.358 238.571 226.823C239.595 226.265 239.982 223.725 238.49 221.94C237.456 220.704 236.79 218.956 235.421 217.023C235.051 216.5 234.63 215.964 234.135 215.421C231.952 213.022 228.375 210.457 226.409 208.536C226.282 208.413 226.162 208.291 226.049 208.172C224.439 206.479 223.983 203.182 220.92 201.987C219.423 201.405 217.579 201.473 215.781 201.823C215.461 201.885 215.142 201.957 214.829 202.035C214.359 202.152 213.899 202.284 213.454 202.423C212.84 202.618 212.257 202.827 211.723 203.035C211.211 203.234 210.744 203.431 210.341 203.61C209.369 204.04 208.763 204.368 208.763 204.368L206.131 211.103Z" fill="white"/>
<path d="M215.78 201.823C217.47 204.365 221.425 209.268 226.408 208.536C226.281 208.413 226.162 208.291 226.049 208.173C224.438 206.479 223.982 203.182 220.919 201.987C219.422 201.405 217.578 201.473 215.78 201.823Z" fill="#80D7B2"/>
<path d="M231.896 220.601C236.745 224.345 237.59 227.358 238.57 226.823C239.594 226.265 239.98 223.725 238.488 221.94C237.455 220.704 236.79 218.956 235.42 217.022C234.106 217.831 232.689 219.007 231.896 220.601Z" fill="#80D7B2"/>
<path d="M208.615 211.767C209.052 211.887 209.538 212.021 210.062 212.168C211.096 210.542 211.695 208.514 211.821 206.165C211.884 204.979 211.818 203.892 211.722 203.035C211.21 203.234 210.743 203.431 210.34 203.61C210.405 204.33 210.437 205.185 210.388 206.101C210.288 207.951 209.844 210.049 208.615 211.767Z" fill="#80D7B2"/>
<path d="M212.337 212.819C212.802 212.954 213.283 213.096 213.778 213.242C215.028 211.356 215.613 208.941 215.483 206.138C215.402 204.409 215.07 202.921 214.828 202.035C214.359 202.152 213.899 202.284 213.454 202.423C213.967 204.326 214.948 209.338 212.337 212.819Z" fill="#80D7B2"/>
<path d="M203.857 201.714C205.693 211.133 199.875 212.591 199.875 212.591C199.875 212.591 191.205 213.657 164.804 203.771C149.582 198.071 135.547 189.163 129.063 180.811C124.302 174.679 123.613 168.843 129.513 164.796C130.873 163.864 132.397 163.33 133.983 163.081C141.288 161.934 149.918 166.851 149.918 166.851C167.697 175.334 163.247 178.249 178.073 187.693C186.552 193.094 203.857 201.714 203.857 201.714Z" fill="#0CAD69"/>
<path d="M133.983 163.081C134.266 166.265 134.751 176.913 129.063 180.811C124.302 174.679 123.612 168.843 129.514 164.796C130.874 163.864 132.397 163.33 133.983 163.081Z" fill="#108E59"/>
<path d="M206.061 204.415C200.51 202.945 189.256 197.468 175.956 189.762C166.009 183.999 154.552 176.662 152.904 174.171C152.013 172.825 151.806 171.736 152.287 170.935C153.009 169.735 155.008 169.656 155.917 169.685C156.152 169.693 156.33 169.896 156.308 170.129C156.288 170.341 156.107 170.501 155.895 170.495C155 170.468 153.441 170.586 152.981 171.352C152.598 171.989 153.095 172.993 153.579 173.724C154.908 175.733 164.49 182.184 176.362 189.062C186.584 194.985 199.81 201.923 206.268 203.632L206.061 204.415Z" fill="#108E59"/>
<path d="M205.101 200.422C204.359 205.333 202.98 209.781 200.119 213.15C200.119 213.15 202.462 214.921 204.666 213.74C206.35 212.838 209.731 205.218 208.604 201.083C207.231 200.292 206.038 200 205.101 200.422Z" fill="#108E59"/>
<path d="M232.396 163.463C230.425 165.985 227.706 167.396 225.547 168.839C220.356 172.31 209.823 174.505 210.614 162.547C211.407 150.589 220.453 155.435 213.798 134.432C210.957 125.472 209 107 209 107C209 107 223.869 117.416 232.667 143.107C233.353 145.108 233.871 146.935 234.246 148.605C235.948 156.189 234.667 160.561 232.396 163.463Z" fill="#FB4C47"/>
<path d="M232.483 162.907C229.257 157.148 231.933 151.454 234.333 148.049C236.035 155.634 234.754 160.005 232.483 162.907Z" fill="#B63A37"/>
<path d="M215.668 164.132C215.503 164.132 215.355 164.018 215.32 163.85C215.298 163.748 214.799 161.315 215.791 158.079C216.703 155.109 219.105 150.884 225.375 147.62C225.55 147.529 225.765 147.597 225.855 147.771C225.947 147.946 225.878 148.161 225.704 148.251C219.672 151.392 217.361 155.422 216.484 158.251C215.532 161.318 216.012 163.679 216.016 163.702C216.057 163.894 215.934 164.083 215.742 164.124C215.717 164.129 215.692 164.132 215.668 164.132Z" fill="#B63A37"/>
<path d="M220.07 151.102C220.022 151.106 219.971 151.101 219.922 151.085C219.735 151.022 219.635 150.82 219.698 150.634C220.852 147.198 221.592 145.727 221.623 145.666C221.711 145.491 221.925 145.421 222.101 145.51C222.276 145.599 222.347 145.813 222.258 145.988C222.25 146.003 221.507 147.483 220.373 150.86C220.326 150.998 220.206 151.088 220.07 151.102Z" fill="#B63A37"/>
<path d="M219.034 153.298C218.838 153.307 218.671 153.155 218.662 152.959C218.33 145.967 208.235 130.582 208.132 130.427C208.024 130.262 208.069 130.041 208.233 129.933C208.398 129.825 208.618 129.871 208.727 130.034C209.148 130.672 219.031 145.74 219.373 152.925C219.382 153.121 219.231 153.288 219.034 153.298Z" fill="#B63A37"/>
<path d="M209.088 133.549C209.013 133.549 208.939 133.526 208.874 133.478C207.664 132.574 204.602 131.774 204.571 131.766C204.38 131.717 204.266 131.522 204.316 131.333C204.365 131.142 204.559 131.027 204.749 131.077C204.88 131.111 207.978 131.919 209.301 132.908C209.458 133.026 209.491 133.249 209.373 133.406C209.303 133.5 209.196 133.549 209.088 133.549Z" fill="#B63A37"/>
<path d="M204.728 181.536C204.786 182.168 204.841 182.828 204.918 183.361C205.064 184.369 205.293 184.92 205.794 183.962C205.906 183.746 205.996 183.471 206.069 183.154C206.501 181.306 206.359 178.054 206.558 177.345C206.784 176.54 207.723 174.249 207.805 174.12C207.763 174.215 207.34 175.616 207.291 176.48C207.244 177.29 207.291 178.275 207.291 180.271C207.291 181.141 207.323 182.04 207.433 182.695V182.697C207.574 183.543 207.847 183.974 208.354 183.387C208.604 183.098 208.763 182.591 208.867 181.991C209.14 180.432 209.042 178.232 209.186 177.511C209.38 176.546 210.163 174.985 210.214 174.888C209.916 175.881 209.916 175.783 209.751 177.088C209.635 178 209.422 180.426 209.647 181.514C209.743 181.982 209.922 182.204 210.226 181.947C210.699 181.546 211.027 180.959 211.26 180.287C211.521 179.533 211.658 178.67 211.746 177.844C211.912 176.28 212.544 175.317 212.544 175.317C212.193 177.01 212.001 178.649 212.105 179.495C212.177 180.093 212.396 180.295 212.81 179.84C213.616 178.954 214.43 176.025 214.711 174.923C214.721 174.889 214.729 174.856 214.737 174.824C214.747 174.79 214.753 174.76 214.761 174.732C214.799 174.584 214.819 174.5 214.819 174.5L214.821 174.498C215.054 173.581 215.265 172.663 215.575 171.841C216.034 170.62 216.716 169.608 218.029 169.122C221.008 168.014 220.094 162.348 215.918 162.008C214.702 161.909 213.497 162.312 212.542 163.072C211.935 163.556 211.077 164.232 210.209 164.895L210.207 164.897C210.124 165.003 207.408 168.367 206.558 170.462C205.695 172.589 204.962 175.949 204.796 176.913C204.629 177.876 204.564 179.706 204.728 181.536Z" fill="#FAB893"/>
<path d="M139.091 165.702C141.074 168.288 143.81 169.735 145.982 171.215C151.205 174.775 161.803 177.025 161.007 164.762C160.209 152.501 151.108 157.47 157.804 135.934C160.662 126.745 161.007 108.433 161.007 108.433C161.007 108.433 147.671 118.485 138.818 144.829C138.128 146.88 137.607 148.754 137.23 150.466C135.518 158.244 136.806 162.727 139.091 165.702Z" fill="#FB4C47"/>
<path d="M139.173 166.206C142.399 160.446 139.724 154.753 137.324 151.348C135.622 158.933 136.903 163.304 139.173 166.206Z" fill="#B63A37"/>
<path d="M160.988 167.43C161.153 167.43 161.301 167.315 161.336 167.148C161.357 167.046 161.857 164.613 160.864 161.377C159.953 158.407 157.55 154.181 151.28 150.917C151.106 150.826 150.891 150.895 150.8 151.069C150.709 151.243 150.777 151.458 150.952 151.549C156.984 154.689 159.295 158.72 160.172 161.549C161.123 164.615 160.644 166.976 160.639 167C160.599 167.192 160.722 167.381 160.914 167.422C160.939 167.427 160.963 167.43 160.988 167.43Z" fill="#B63A37"/>
<path d="M155.587 154.399C155.636 154.404 155.686 154.398 155.736 154.382C155.922 154.319 156.022 154.117 155.96 153.931C154.805 150.495 154.066 149.024 154.035 148.963C153.946 148.788 153.732 148.718 153.556 148.808C153.381 148.896 153.311 149.11 153.4 149.286C153.407 149.3 154.15 150.781 155.285 154.158C155.331 154.295 155.452 154.386 155.587 154.399Z" fill="#B63A37"/>
<path d="M155.184 152.834C155.381 152.834 155.54 152.675 155.54 152.478C155.54 145.479 164.894 129.631 164.988 129.472C165.089 129.302 165.033 129.084 164.864 128.983C164.695 128.883 164.476 128.939 164.376 129.108C163.986 129.765 154.828 145.285 154.828 152.478C154.828 152.675 154.988 152.834 155.184 152.834Z" fill="#B63A37"/>
<path d="M161.805 134.847C161.879 134.847 161.954 134.824 162.018 134.776C163.228 133.871 166.291 133.072 166.322 133.064C166.512 133.015 166.627 132.82 166.577 132.63C166.528 132.44 166.333 132.326 166.143 132.374C166.012 132.408 162.914 133.217 161.591 134.206C161.434 134.323 161.402 134.547 161.519 134.705C161.589 134.798 161.696 134.847 161.805 134.847Z" fill="#B63A37"/>
<path d="M166.164 184.834C166.106 185.466 166.052 186.127 165.975 186.659C165.829 187.666 165.599 188.218 165.099 187.26C164.987 187.044 164.897 186.769 164.823 186.452C164.392 184.604 164.534 181.352 164.334 180.643C164.109 179.837 163.169 177.547 163.088 177.418C163.129 177.513 163.553 178.914 163.602 179.778C163.648 180.588 163.602 181.573 163.602 183.569C163.602 184.439 163.57 185.339 163.46 185.993V185.995C163.319 186.841 163.045 187.272 162.538 186.685C162.289 186.396 162.13 185.889 162.026 185.289C161.753 183.73 161.85 181.529 161.707 180.809C161.513 179.843 160.729 178.283 160.679 178.186C160.976 179.179 160.976 179.081 161.142 180.387C161.258 181.298 161.471 183.724 161.246 184.812C161.15 185.281 160.97 185.502 160.667 185.245C160.194 184.844 159.865 184.257 159.634 183.585C159.372 182.831 159.235 181.969 159.146 181.143C158.981 179.578 158.349 178.614 158.349 178.614C158.7 180.309 158.891 181.947 158.788 182.792C158.716 183.391 158.496 183.592 158.083 183.137C157.277 182.252 156.463 179.323 156.182 178.222C156.172 178.188 156.164 178.153 156.156 178.122C156.146 178.087 156.14 178.058 156.132 178.03C156.094 177.883 156.074 177.799 156.074 177.799L156.072 177.796C155.839 176.879 155.627 175.961 155.318 175.139C154.859 173.918 154.177 172.906 152.864 172.419C149.884 171.312 150.799 165.646 154.975 165.306C156.192 165.207 157.396 165.61 158.351 166.37C158.959 166.854 159.815 167.531 160.683 168.194L160.685 168.195C160.769 168.301 163.485 171.665 164.334 173.76C165.198 175.887 165.931 179.247 166.096 180.211C166.264 181.174 166.33 183.004 166.164 184.834Z" fill="#FAB893"/>
</svg>
