<svg viewBox="0 0 78 80" fill="none" xmlns="http://www.w3.org/2000/svg">
<g opacity="0.5" filter="url(#filter0_d_96_1622)">
<path d="M71.6133 34.0063C70.491 33.9733 69.524 34.8429 69.2494 36.0382C67.5123 36.1744 65.5275 36.2207 63.3487 36.0821C62.1369 36.0028 60.9848 35.875 59.9074 35.7167C59.9134 35.5076 59.9163 35.2963 59.9163 35.085C59.9163 34.0572 59.8417 33.0468 59.7044 32.0583C60.2536 31.6334 60.9401 31.1866 61.7728 30.8037C63.2144 30.1345 64.5635 29.8969 65.6051 29.8285C66.1155 31.0017 67.2885 31.6842 68.4107 31.387C69.6762 31.0525 70.4015 29.6061 70.0254 28.1557C69.6523 26.7049 68.3271 25.7981 67.0616 26.1326C65.9096 26.4386 65.2052 27.6668 65.3723 28.981C64.462 29.505 63.1069 30.0728 61.4296 30.1145C60.6028 30.1366 59.8775 30.0243 59.2895 29.8794C58.9165 28.3448 58.3822 26.8744 57.6987 25.4879C58.421 24.8274 59.2746 24.1273 60.2745 23.4515C61.7221 22.4699 63.1189 21.7677 64.3456 21.2635C65.1455 22.2102 66.4199 22.525 67.4049 21.9484C68.5361 21.2877 68.8524 19.6962 68.1152 18.3974C67.378 17.099 65.8588 16.5838 64.7276 17.2464C63.7457 17.8208 63.3756 19.0975 63.7815 20.2731C62.7279 21.1006 61.4325 21.9744 59.8775 22.7538C58.821 23.2865 57.8092 23.6915 56.8929 23.9996C56.1437 22.7296 55.2692 21.5453 54.2843 20.4644C54.6633 19.0733 55.302 17.4489 56.3914 15.8199C57.4152 14.2968 58.5494 13.1851 59.5134 12.4036C60.5759 13.0707 61.9131 12.9672 62.6742 12.0888C63.5397 11.0939 63.3427 9.48492 62.2294 8.49458C61.1221 7.50181 59.5224 7.50361 58.6598 8.4988C57.8987 9.37716 57.9584 10.731 58.7493 11.7189C58.1255 12.7626 57.1824 14.0568 55.7975 15.2896C54.2693 16.6498 52.7352 17.4643 51.5652 17.9486C50.2341 16.9162 48.7835 16.0399 47.2345 15.3468C47.4583 14.7148 47.7568 14.0789 48.1478 13.4539C48.4612 12.9584 48.7985 12.5226 49.1387 12.1418C50.3176 12.6282 51.6399 12.2783 52.2338 11.2592C52.9024 10.1211 52.4129 8.57569 51.1414 7.80992C49.8699 7.04386 48.3 7.3453 47.6314 8.48547C47.0465 9.48732 47.3539 10.8034 48.3 11.6266C48.103 12.1551 47.8643 12.7032 47.5777 13.262C47.2524 13.9049 46.9002 14.4972 46.5271 15.045C46.3689 14.9812 46.2137 14.9197 46.0555 14.8625C44.211 14.1624 42.2441 13.7202 40.1936 13.5704C39.8564 12.6503 39.5639 11.6306 39.3579 10.5107C38.9401 8.22548 39.0177 6.23662 39.2117 4.74293C40.4175 4.50866 41.3189 3.54919 41.3189 2.39934C41.3189 1.07423 40.122 2.75463e-05 38.6446 2.75513e-05C37.1642 2.75564e-05 35.9644 1.07423 35.9644 2.39934C35.9644 3.56887 36.8986 4.54166 38.1342 4.75413C38.4028 6.22634 38.579 8.28693 38.1671 10.6756C37.982 11.7271 37.7104 12.6854 37.394 13.5529C35.4271 13.6652 33.5378 14.0498 31.753 14.6697C31.5053 14.2696 31.2814 13.8495 31.0815 13.354C30.6875 12.3727 30.5174 11.4532 30.4487 10.6877C31.6038 10.0779 32.1977 8.79844 31.7918 7.66675C31.3441 6.42215 29.8548 5.82984 28.4639 6.34438C27.076 6.85893 26.312 8.2848 26.7626 9.5297C27.1507 10.6036 28.3117 11.1899 29.5145 11.0001C29.8667 11.7329 30.204 12.5776 30.4666 13.5374C30.6099 14.0456 30.7144 14.5426 30.7949 15.0287C29.1743 15.6797 27.6551 16.5287 26.2583 17.5448C25.524 17.0058 24.7719 16.3801 24.0287 15.647C22.3185 13.959 21.1783 12.2277 20.4292 10.8412C21.2589 9.91016 21.4052 8.5772 20.7097 7.65888C19.9128 6.608 18.316 6.49721 17.1431 7.41098C15.9731 8.32506 15.6686 9.91744 16.4626 10.968C17.1699 11.8963 18.4951 12.0894 19.6054 11.4913C20.6859 12.4741 22.0917 14.0241 23.1781 16.2524C23.6765 17.2715 24.0227 18.2625 24.2675 19.1865C24.0436 19.3954 23.8168 19.6109 23.5989 19.8306C22.5095 20.9393 21.5335 22.1669 20.6978 23.4954C20.2053 23.3516 19.695 23.1776 19.1726 22.9645C17.4744 22.2711 16.1581 21.387 15.203 20.6167C15.6089 19.4187 15.212 18.1262 14.2032 17.5657C13.06 16.9286 11.5558 17.4782 10.8454 18.7933C10.1321 20.1079 10.4843 21.6902 11.6334 22.3271C12.6392 22.887 13.9226 22.5292 14.7016 21.5413C15.8597 21.9475 17.3042 22.5992 18.7936 23.6691C19.2383 23.9887 19.6442 24.3174 20.0233 24.648C18.8443 26.8024 18.0206 29.1835 17.6296 31.7114C16.6118 31.7995 15.5134 31.8419 14.3345 31.805C12.6512 31.7526 11.1319 31.5526 9.80376 31.2923C9.77391 29.9702 8.90239 28.8636 7.72046 28.7377C6.41915 28.5991 5.24021 29.6959 5.08501 31.1872C4.93279 32.6785 5.86102 33.9994 7.15935 34.1374C8.3174 34.2606 9.37397 33.4046 9.70527 32.164C11.0663 32.1918 12.5944 32.3153 14.2509 32.6043C15.4 32.8044 16.4596 33.0596 17.4415 33.3432C17.3938 33.9173 17.3729 34.4979 17.3729 35.085C17.3729 36.4795 17.5012 37.843 17.7519 39.1651C16.6237 39.9215 15.0717 40.7793 13.0929 41.3816C11.3588 41.9097 9.7978 42.0895 8.5532 42.1283C8.1055 40.9527 6.99519 40.2193 5.86997 40.4393C4.58955 40.6906 3.77474 42.0874 4.0553 43.5596C4.33586 45.0321 5.60433 46.0219 6.88476 45.7706C7.99505 45.5533 8.75019 44.4797 8.75318 43.2418C10.0276 42.8217 11.5319 42.4273 13.2421 42.1706C15.206 41.8758 16.97 41.8335 18.4563 41.8988C19.0503 43.7234 19.886 45.4371 20.9157 47.0059C20.4292 47.396 19.889 47.781 19.2771 48.1409C18.1101 48.8304 16.9908 49.2593 16.0178 49.5365C15.3612 48.4714 14.1315 47.9714 13.069 48.4066C11.8602 48.9042 11.326 50.4339 11.8811 51.8229C12.2303 52.6946 12.9257 53.3066 13.6958 53.5158C14.1494 53.6411 14.63 53.6259 15.0807 53.441C15.212 53.3859 15.3403 53.3175 15.4567 53.2361C16.3402 52.6422 16.7163 51.411 16.3432 50.2363C17.2625 49.7553 18.3369 49.2789 19.5726 48.8861C20.3695 48.6342 21.1276 48.4502 21.8409 48.3134C22.4916 49.167 23.2079 49.9678 23.975 50.7069C24.0466 50.7775 24.1212 50.848 24.1929 50.9137C23.6735 52.0893 22.8915 53.5179 21.7126 54.9662C20.5575 56.3839 19.3577 57.416 18.3459 58.1451C17.3341 57.416 16.0059 57.4317 15.1911 58.2484C14.2599 59.1794 14.3494 60.7996 15.3911 61.8671C16.4267 62.9322 18.0265 63.0427 18.9548 62.1114C19.7636 61.3032 19.8024 59.9742 19.1159 58.9418C19.9098 57.8915 20.9455 56.7075 22.2677 55.5385C23.6914 54.2839 25.0942 53.355 26.3179 52.6704C27.9356 53.8369 29.7235 54.7812 31.6307 55.4571C31.556 56.1857 31.4277 56.9714 31.2158 57.7971C30.7561 59.5956 30.0697 61.0372 29.4459 62.0984C28.2192 61.8493 27.0074 62.4174 26.5925 63.5049C26.1239 64.7398 26.8611 66.1793 28.2401 66.7208C29.616 67.2623 31.1143 66.6987 31.5889 65.4617C31.9978 64.3875 31.4963 63.1593 30.4487 62.5031C30.7442 61.2243 31.2128 59.7118 31.953 58.0873C32.3171 57.2952 32.7021 56.5731 33.0961 55.9151C34.5676 56.3179 36.0987 56.5646 37.6806 56.6327C37.9372 57.8876 38.1462 59.2917 38.2476 60.8259C38.3999 63.1084 38.2775 65.1293 38.0626 66.7977C36.8628 67.0335 35.9644 67.9929 35.9644 69.1401C35.9644 70.4652 37.1612 71.5391 38.6446 71.5391C40.122 71.5391 41.3189 70.4652 41.3189 69.1401C41.3189 67.9975 40.4264 67.0398 39.2326 66.7998C39.0326 65.0939 38.9252 63.0778 39.0386 60.8259C39.1162 59.3068 39.2863 57.9048 39.5012 56.6369C41.1547 56.5731 42.7575 56.3158 44.2886 55.8863C44.4199 56.1151 44.5483 56.353 44.6737 56.5976C45.5064 58.2108 45.9541 59.7233 46.1958 60.9337C45.1303 61.5611 44.5871 62.7806 44.9721 63.8681C45.4079 65.116 46.8942 65.7193 48.2881 65.2171C49.6789 64.7132 50.455 63.2933 50.0162 62.0454C49.6282 60.9382 48.4134 60.3392 47.1718 60.5684C46.6017 59.5756 45.9391 58.0764 45.7093 56.1572C45.6795 55.9193 45.6586 55.6862 45.6466 55.4571C47.3509 54.8584 48.9567 54.0418 50.4341 53.0424C51.3862 53.8281 52.389 54.7658 53.3859 55.8796C54.92 57.5922 56.0363 59.2808 56.8421 60.7158C56.0243 61.6447 55.884 62.9677 56.5735 63.8811C57.3734 64.9311 58.9672 65.0413 60.1402 64.1275C61.3102 63.2143 61.6146 61.6229 60.8207 60.5708C60.1312 59.6637 58.8448 59.4566 57.7524 60.0093C56.5765 58.8007 55.2722 57.271 54.0157 55.3911C53.2038 54.1759 52.5323 52.9964 51.9801 51.8889C52.5741 51.4025 53.1411 50.8852 53.6843 50.3371C54.5678 49.439 55.3767 48.4638 56.093 47.4205C57.4152 47.7949 58.9403 48.3431 60.558 49.166C62.119 49.9566 63.4203 50.8259 64.4679 51.6359C64.071 52.8114 64.4471 54.0836 65.432 54.6514C66.5662 55.3097 68.0794 54.7858 68.8136 53.4849C69.5479 52.1819 69.2195 50.5947 68.0854 49.9363C67.0945 49.3622 65.8081 49.6903 65.0142 50.6543C63.8442 50.2027 62.4235 49.5183 60.952 48.4684C59.4239 47.3787 58.2688 46.2098 57.4331 45.2016C57.9972 44.1277 58.4747 42.9985 58.8568 41.8229C59.4895 41.845 60.1611 41.9022 60.8535 42.0078C62.6413 42.2808 64.1307 42.7936 65.2768 43.3042C65.1783 44.559 65.8767 45.708 66.9841 45.9964C68.2495 46.3267 69.5747 45.4174 69.9448 43.9649C70.3119 42.5121 69.5867 41.068 68.3182 40.7378C67.2079 40.4469 66.0469 41.1164 65.5305 42.2717C64.3158 42.1706 62.7547 41.8998 61.0505 41.2308C60.4058 40.9754 59.8089 40.6915 59.2657 40.3943C59.5373 39.3049 59.7283 38.1841 59.8268 37.0352C60.9281 36.945 62.0981 36.8878 63.3308 36.8854C65.5036 36.879 67.4795 37.0373 69.2136 37.2707C69.4225 38.4792 70.3388 39.3994 71.4581 39.4348C72.7653 39.472 73.8607 38.2876 73.8995 36.7888C73.9413 35.29 72.9176 34.0439 71.6133 34.0063" fill="#128E5A"/>
</g>
<defs>
<filter id="filter0_d_96_1622" x="0" y="0" width="77.9006" height="79.5391" filterUnits="userSpaceOnUse" color-interpolation-filters="sRGB">
<feFlood flood-opacity="0" result="BackgroundImageFix"/>
<feColorMatrix in="SourceAlpha" type="matrix" values="0 0 0 0 0 0 0 0 0 0 0 0 0 0 0 0 0 0 127 0" result="hardAlpha"/>
<feOffset dy="4"/>
<feGaussianBlur stdDeviation="2"/>
<feColorMatrix type="matrix" values="0 0 0 0 0 0 0 0 0 0 0 0 0 0 0 0 0 0 0.07 0"/>
<feBlend mode="normal" in2="BackgroundImageFix" result="effect1_dropShadow_96_1622"/>
<feBlend mode="normal" in="SourceGraphic" in2="effect1_dropShadow_96_1622" result="shape"/>
</filter>
</defs>
</svg>
