<svg viewBox="0 0 162 167" fill="none" xmlns="http://www.w3.org/2000/svg">
<g filter="url(#filter0_d_96_1620)">
<path d="M151.319 77.5023C148.891 77.43 146.798 79.3351 146.204 81.9537C142.445 82.2521 138.149 82.3535 133.434 82.0498C130.812 81.8761 128.319 81.5963 125.987 81.2495C126 80.7913 126.006 80.3284 126.006 79.8656C126.006 77.6136 125.845 75.4002 125.548 73.2345C126.736 72.3035 128.222 71.3247 130.024 70.4859C133.144 69.0197 136.063 68.4992 138.317 68.3493C139.422 70.9196 141.96 72.4149 144.389 71.7637C147.127 71.031 148.697 67.862 147.883 64.6844C147.076 61.5061 144.208 59.5194 141.469 60.2521C138.976 60.9225 137.452 63.6134 137.814 66.4926C135.844 67.6405 132.911 68.8845 129.281 68.976C127.492 69.0244 125.922 68.7784 124.65 68.4607C123.843 65.0988 122.687 61.8774 121.207 58.8397C122.77 57.3928 124.618 55.859 126.782 54.3783C129.914 52.2278 132.937 50.6894 135.592 49.5847C137.323 51.6589 140.081 52.3485 142.212 51.0853C144.66 49.6378 145.345 46.1511 143.749 43.3057C142.154 40.461 138.866 39.3323 136.418 40.7839C134.293 42.0425 133.492 44.8395 134.371 47.415C132.091 49.2279 129.288 51.1423 125.922 52.8498C123.636 54.0169 121.446 54.9041 119.463 55.5792C117.842 52.7968 115.95 50.202 113.818 47.8341C114.639 44.7864 116.021 41.2275 118.378 37.6586C120.594 34.3219 123.048 31.8863 125.134 30.1741C127.434 31.6356 130.328 31.4089 131.975 29.4845C133.848 27.3049 133.421 23.7798 131.012 21.6101C128.616 19.4351 125.154 19.4391 123.287 21.6194C121.64 23.5437 121.769 26.5098 123.481 28.6742C122.131 30.9606 120.09 33.7961 117.093 36.4969C113.786 39.4769 110.466 41.2613 107.934 42.3223C105.053 40.0604 101.914 38.1407 98.5622 36.6222C99.0466 35.2376 99.6925 33.8444 100.539 32.4751C101.217 31.3896 101.947 30.4348 102.683 29.6006C105.234 30.6662 108.096 29.8996 109.381 27.6669C110.828 25.1736 109.768 21.7878 107.017 20.1101C104.265 18.4318 100.868 19.0922 99.4212 21.5902C98.1552 23.785 98.8205 26.6683 100.868 28.4719C100.442 29.6297 99.925 30.8306 99.3049 32.0547C98.6009 33.4632 97.8387 34.7609 97.0314 35.9611C96.689 35.8212 96.3532 35.6866 96.0108 35.5612C92.0192 34.0275 87.7627 33.0586 83.3253 32.7304C82.5955 30.7145 81.9625 28.4805 81.5168 26.027C80.6125 21.0206 80.7805 16.6633 81.2003 13.3908C83.8098 12.8776 85.7604 10.7756 85.7604 8.25641C85.7604 5.35332 83.1703 2.99991 79.9731 2.99991C76.7695 2.99991 74.1729 5.35332 74.1729 8.25641C74.1729 10.8187 76.1946 12.9499 78.8686 13.4154C79.4499 16.6408 79.831 21.1552 78.9397 26.3884C78.5392 28.6921 77.9514 30.7915 77.2668 32.692C73.0103 32.938 68.9218 33.7808 65.0593 35.1388C64.5232 34.2622 64.0387 33.3418 63.606 32.2563C62.7534 30.1065 62.3852 28.092 62.2367 26.415C64.7363 25.0788 66.0216 22.2758 65.1432 19.7965C64.1744 17.0698 60.9513 15.7721 57.9414 16.8994C54.938 18.0267 53.2845 21.1505 54.2598 23.8779C55.0995 26.2306 57.612 27.515 60.215 27.0993C60.9772 28.7047 61.7071 30.5554 62.2755 32.6581C62.5855 33.7715 62.8116 34.8603 62.9859 35.9253C59.4787 37.3516 56.1911 39.2117 53.1683 41.4377C51.5793 40.2567 49.9517 38.8861 48.3434 37.28C44.6424 33.5819 42.175 29.7888 40.5538 26.7511C42.3494 24.7114 42.6659 21.7911 41.1609 19.7792C39.4364 17.4769 35.9808 17.2342 33.4424 19.2361C30.9105 21.2387 30.2517 24.7274 31.9698 27.029C33.5006 29.0628 36.3684 29.4858 38.7711 28.1755C41.1093 30.3286 44.1515 33.7244 46.5025 38.6062C47.5812 40.8389 48.3304 43.01 48.8601 45.0344C48.3757 45.492 47.8847 45.9641 47.4132 46.4455C45.0557 48.8745 42.9436 51.564 41.1351 54.4744C40.0693 54.1595 38.9649 53.7782 37.8345 53.3113C34.1594 51.7921 31.3109 49.8553 29.2441 48.1676C30.1225 45.543 29.2634 42.7115 27.0803 41.4834C24.6065 40.0876 21.3512 41.2918 19.8139 44.173C18.2702 47.0529 19.0324 50.5197 21.5191 51.9149C23.6958 53.1416 26.4732 52.3578 28.159 50.1934C30.6651 51.0833 33.7912 52.511 37.0142 54.8551C37.9766 55.5553 38.8551 56.2754 39.6754 56.9996C37.1241 61.7196 35.3414 66.9363 34.4952 72.4746C32.2927 72.6675 29.9158 72.7603 27.3645 72.6794C23.7216 72.5647 20.4339 72.1264 17.5597 71.5562C17.4951 68.6597 15.6091 66.2354 13.0513 65.9595C10.2352 65.6558 7.68389 68.0589 7.34802 71.326C7.01861 74.5932 9.02737 77.487 11.837 77.7894C14.3431 78.0593 16.6296 76.184 17.3466 73.4659C20.2919 73.5269 23.5989 73.7975 27.1836 74.4307C29.6703 74.869 31.9633 75.4281 34.0883 76.0494C33.985 77.3073 33.9398 78.5791 33.9398 79.8656C33.9398 82.9205 34.2175 85.9078 34.7601 88.8043C32.3186 90.4614 28.9599 92.3407 24.6775 93.6603C20.9248 94.8174 17.5468 95.2113 14.8534 95.2961C13.8846 92.7206 11.4818 91.1139 9.04673 91.596C6.27582 92.1463 4.51252 95.2066 5.11967 98.432C5.72681 101.658 8.47188 103.826 11.2428 103.276C13.6455 102.8 15.2797 100.448 15.2862 97.7357C18.0442 96.8153 21.2995 95.9513 25.0005 95.389C29.2505 94.7431 33.0678 94.6503 36.2844 94.7935C37.5697 98.7907 39.3783 102.545 41.6066 105.982C40.5538 106.837 39.3847 107.68 38.0606 108.469C35.5351 109.979 33.113 110.919 31.0074 111.526C29.5864 109.193 26.9253 108.097 24.6259 109.051C22.01 110.141 20.8538 113.493 22.0552 116.536C22.8109 118.445 24.3158 119.786 25.9823 120.244C26.964 120.519 28.004 120.486 28.9793 120.081C29.2635 119.96 29.5412 119.81 29.7931 119.632C31.7049 118.331 32.5188 115.633 31.7114 113.06C33.7008 112.006 36.026 110.962 38.7001 110.101C40.4246 109.55 42.0652 109.147 43.6089 108.847C45.017 110.717 46.5671 112.471 48.2271 114.091C48.3821 114.245 48.5436 114.4 48.6986 114.544C47.5747 117.119 45.8824 120.249 43.3311 123.422C40.8315 126.528 38.235 128.789 36.0454 130.387C33.8558 128.789 30.9815 128.824 29.2182 130.613C27.203 132.652 27.3968 136.202 29.651 138.541C31.8922 140.874 35.3543 141.116 37.363 139.076C39.1134 137.305 39.1974 134.394 37.7118 132.132C39.4299 129.831 41.6712 127.237 44.5325 124.676C47.6135 121.927 50.6492 119.892 53.2974 118.392C56.7982 120.948 60.6672 123.017 64.7945 124.497C64.633 126.094 64.3552 127.815 63.8966 129.624C62.902 133.564 61.4164 136.723 60.0665 139.047C57.4118 138.502 54.7894 139.746 53.8916 142.129C52.8776 144.834 54.4729 147.988 57.457 149.174C60.4346 150.361 63.677 149.126 64.704 146.416C65.5889 144.063 64.5038 141.372 62.2367 139.934C62.8761 137.132 63.8902 133.819 65.492 130.26C66.28 128.525 67.1132 126.942 67.9658 125.501C71.1501 126.383 74.4636 126.924 77.8868 127.073C78.4423 129.822 78.8944 132.898 79.114 136.26C79.4434 141.26 79.1787 145.688 78.7136 149.343C76.1171 149.859 74.1729 151.961 74.1729 154.475C74.1729 157.378 76.763 159.73 79.9731 159.73C83.1703 159.73 85.7604 157.378 85.7604 154.475C85.7604 151.971 83.8291 149.873 81.2455 149.348C80.8128 145.61 80.5802 141.193 80.8257 136.26C80.9936 132.932 81.3618 129.86 81.8268 127.082C85.4051 126.942 88.8736 126.379 92.1871 125.438C92.4713 125.939 92.7491 126.46 93.0203 126.996C94.8224 130.53 95.7912 133.844 96.3144 136.496C94.0086 137.87 92.833 140.542 93.6662 142.925C94.6093 145.659 97.8258 146.98 100.842 145.88C103.852 144.776 105.531 141.665 104.582 138.931C103.742 136.506 101.113 135.193 98.4265 135.695C97.1928 133.52 95.7589 130.236 95.2616 126.031C95.197 125.51 95.1518 124.999 95.1259 124.497C98.814 123.186 102.289 121.397 105.486 119.207C107.547 120.929 109.717 122.983 111.874 125.423C115.194 129.175 117.61 132.875 119.354 136.018C117.584 138.053 117.28 140.952 118.772 142.953C120.503 145.253 123.952 145.495 126.491 143.493C129.023 141.492 129.682 138.006 127.964 135.701C126.472 133.713 123.688 133.26 121.324 134.471C118.779 131.823 115.956 128.472 113.237 124.353C111.48 121.691 110.027 119.106 108.832 116.68C110.117 115.614 111.345 114.481 112.52 113.28C114.432 111.313 116.182 109.176 117.732 106.891C120.594 107.711 123.894 108.912 127.395 110.715C130.773 112.447 133.589 114.351 135.856 116.126C134.997 118.701 135.811 121.488 137.943 122.732C140.397 124.175 143.672 123.027 145.261 120.177C146.85 117.322 146.139 113.845 143.685 112.402C141.54 111.144 138.757 111.863 137.038 113.975C134.507 112.986 131.432 111.487 128.248 109.186C124.941 106.799 122.441 104.238 120.633 102.029C121.853 99.6766 122.887 97.2026 123.713 94.6271C125.083 94.6755 126.536 94.8008 128.035 95.0322C131.904 95.6303 135.127 96.7537 137.607 97.8723C137.394 100.622 138.905 103.139 141.301 103.771C144.04 104.494 146.908 102.502 147.709 99.3199C148.503 96.1369 146.934 92.9733 144.189 92.2498C141.786 91.6126 139.273 93.0793 138.156 95.6104C135.527 95.389 132.149 94.7955 128.461 93.33C127.066 92.7704 125.774 92.1484 124.598 91.4972C125.186 89.1106 125.6 86.6552 125.813 84.138C128.196 83.9404 130.728 83.815 133.396 83.8097C138.098 83.7958 142.374 84.1426 146.126 84.6539C146.578 87.3017 148.561 89.3175 150.983 89.3951C153.812 89.4767 156.183 86.8819 156.267 83.5982C156.357 80.3145 154.142 77.5845 151.319 77.5023" fill="#128E5A" fill-opacity="0.74"/>
</g>
<defs>
<filter id="filter0_d_96_1620" x="0" y="-0.00012207" width="161.27" height="166.731" filterUnits="userSpaceOnUse" color-interpolation-filters="sRGB">
<feFlood flood-opacity="0" result="BackgroundImageFix"/>
<feColorMatrix in="SourceAlpha" type="matrix" values="0 0 0 0 0 0 0 0 0 0 0 0 0 0 0 0 0 0 127 0" result="hardAlpha"/>
<feOffset dy="2"/>
<feGaussianBlur stdDeviation="2.5"/>
<feColorMatrix type="matrix" values="0 0 0 0 0 0 0 0 0 0 0 0 0 0 0 0 0 0 0.1 0"/>
<feBlend mode="normal" in2="BackgroundImageFix" result="effect1_dropShadow_96_1620"/>
<feBlend mode="normal" in="SourceGraphic" in2="effect1_dropShadow_96_1620" result="shape"/>
</filter>
</defs>
</svg>
