<svg viewBox="0 0 181 185" fill="none" xmlns="http://www.w3.org/2000/svg">
<g opacity="0.5" filter="url(#filter0_d_96_1621)">
<path d="M170.392 84.1071C167.63 84.0255 165.25 86.1762 164.575 89.1324C160.3 89.4693 155.415 89.5838 150.053 89.2409C147.071 89.0448 144.236 88.7289 141.585 88.3374C141.599 87.8201 141.607 87.2976 141.607 86.7751C141.607 84.2328 141.423 81.734 141.085 79.2891C142.437 78.2381 144.126 77.1331 146.175 76.1861C149.723 74.531 153.043 73.9434 155.606 73.7742C156.862 76.6758 159.749 78.3639 162.511 77.6287C165.625 76.8015 167.41 73.224 166.484 69.6367C165.566 66.0487 162.305 63.8058 159.191 64.633C156.356 65.3899 154.622 68.4277 155.033 71.6781C152.793 72.9739 149.459 74.3783 145.331 74.4816C143.296 74.5363 141.511 74.2585 140.064 73.8999C139.146 70.1045 137.831 66.4679 136.149 63.0386C137.927 61.4051 140.027 59.6736 142.488 58.002C146.05 55.5743 149.488 53.8376 152.507 52.5904C154.475 54.9321 157.612 55.7106 160.035 54.2845C162.819 52.6503 163.598 48.7142 161.784 45.5019C159.969 42.2905 156.231 41.0163 153.447 42.655C151.03 44.0758 150.12 47.2334 151.118 50.141C148.526 52.1876 145.338 54.3488 141.511 56.2765C138.911 57.594 136.421 58.5956 134.166 59.3577C132.322 56.2166 130.17 53.2874 127.746 50.6141C128.679 47.1736 130.251 43.1558 132.932 39.1269C135.451 35.3599 138.243 32.6103 140.615 30.6775C143.23 32.3274 146.521 32.0714 148.393 29.899C150.524 27.4383 150.039 23.4588 147.299 21.0094C144.574 18.554 140.637 18.5585 138.514 21.0198C136.641 23.1923 136.788 26.5407 138.735 28.9841C137.2 31.5653 134.879 34.7663 131.47 37.8154C127.71 41.1796 123.934 43.194 121.055 44.3918C117.779 41.8383 114.209 39.6711 110.397 37.9568C110.948 36.3938 111.683 34.821 112.645 33.2751C113.416 32.0497 114.246 30.9717 115.084 30.03C117.985 31.233 121.239 30.3676 122.7 27.8471C124.346 25.0323 123.141 21.21 120.012 19.316C116.883 17.4214 113.02 18.1669 111.374 20.9869C109.935 23.4647 110.691 26.7196 113.02 28.7558C112.535 30.0629 111.947 31.4186 111.242 32.8005C110.441 34.3905 109.575 35.8556 108.657 37.2105C108.267 37.0526 107.885 36.9006 107.496 36.7591C102.957 35.0276 98.1164 33.9339 93.0703 33.5633C92.2403 31.2876 91.5205 28.7655 91.0137 25.9957C89.9854 20.3438 90.1764 15.4248 90.6538 11.7305C93.6212 11.1511 95.8394 8.77807 95.8394 5.93415C95.8394 2.65679 92.8941 -2.83676e-06 89.2583 -2.8244e-06C85.6151 -2.81201e-06 82.6623 2.65679 82.6623 5.93415C82.6623 8.82673 84.9613 11.2327 88.0022 11.7582C88.6633 15.3994 89.0967 20.4958 88.083 26.4037C87.6277 29.0044 86.9592 31.3745 86.1807 33.5199C81.3402 33.7977 76.6908 34.7491 72.2984 36.2822C71.6888 35.2926 71.1379 34.2535 70.6458 33.0281C69.6763 30.6011 69.2576 28.3269 69.0886 26.4337C71.9312 24.9253 73.3929 21.7609 72.3939 18.9619C71.2922 15.8837 67.627 14.4187 64.2042 15.6913C60.7887 16.964 58.9083 20.4906 60.0175 23.5695C60.9723 26.2256 63.8296 27.6756 66.7896 27.2062C67.6564 29.0186 68.4864 31.1079 69.1327 33.4817C69.4853 34.7386 69.7424 35.9678 69.9407 37.1701C65.9523 38.7803 62.2137 40.8801 58.7762 43.3932C56.9693 42.0599 55.1183 40.5125 53.2894 38.6994C49.0807 34.5245 46.2748 30.2425 44.4312 26.8132C46.4731 24.5105 46.833 21.2137 45.1216 18.9425C43.1605 16.3434 39.2309 16.0693 36.3443 18.3293C33.465 20.5901 32.7158 24.5285 34.6696 27.1269C36.4104 29.4229 39.6716 29.9004 42.404 28.4212C45.0629 30.8519 48.5224 34.6855 51.196 40.1966C52.4227 42.7172 53.2747 45.1681 53.877 47.4536C53.3261 47.9701 52.7679 48.503 52.2317 49.0465C49.5507 51.7886 47.1489 54.825 45.0922 58.1105C43.8803 57.755 42.6243 57.3245 41.3389 56.7975C37.1596 55.0825 33.9204 52.8959 31.57 50.9907C32.5689 48.0277 31.592 44.8312 29.1094 43.4448C26.2962 41.869 22.5943 43.2285 20.8461 46.4811C19.0907 49.7323 19.9574 53.6459 22.7853 55.221C25.2606 56.6059 28.4189 55.721 30.336 53.2776C33.1859 54.2822 36.7409 55.894 40.4061 58.5402C41.5005 59.3308 42.4994 60.1437 43.4323 60.9612C40.531 66.2897 38.5037 72.1789 37.5415 78.4312C35.0368 78.6491 32.3339 78.7538 29.4326 78.6625C25.2899 78.533 21.5512 78.0382 18.2827 77.3944C18.2092 74.1246 16.0645 71.3877 13.1558 71.0762C9.95337 70.7334 7.05208 73.4463 6.67014 77.1346C6.29554 80.8229 8.57986 84.0899 11.775 84.4312C14.6249 84.7359 17.225 82.6189 18.0403 79.5504C21.3897 79.6192 25.1503 79.9247 29.2269 80.6396C32.0547 81.1344 34.6622 81.7655 37.0788 82.4669C36.9613 83.887 36.9099 85.3228 36.9099 86.7751C36.9099 90.2238 37.2257 93.5963 37.8427 96.8662C35.0663 98.7369 31.2468 100.858 26.377 102.348C22.1095 103.654 18.268 104.099 15.2051 104.195C14.1034 101.287 11.371 99.4735 8.60188 100.018C5.45084 100.639 3.44564 104.094 4.13608 107.735C4.82652 111.377 7.94817 113.825 11.0992 113.204C13.8316 112.666 15.6899 110.011 15.6973 106.949C18.8336 105.91 22.5355 104.935 26.7442 104.3C31.5773 103.571 35.9183 103.466 39.5761 103.627C41.0378 108.14 43.0944 112.379 45.6285 116.259C44.4312 117.223 43.1017 118.176 41.596 119.066C38.7241 120.771 35.9697 121.832 33.5752 122.518C31.9592 119.883 28.9331 118.647 26.3182 119.723C23.3435 120.954 22.0287 124.737 23.3949 128.172C24.2543 130.328 25.9657 131.842 27.8607 132.359C28.9771 132.669 30.1597 132.632 31.2688 132.174C31.592 132.038 31.9078 131.869 32.1943 131.668C34.3684 130.199 35.2939 127.154 34.3758 124.248C36.6381 123.059 39.2823 121.881 42.3232 120.909C44.2843 120.286 46.15 119.831 47.9055 119.493C49.5067 121.604 51.2695 123.584 53.1572 125.412C53.3335 125.587 53.5171 125.761 53.6934 125.924C52.4153 128.831 50.4909 132.365 47.5896 135.947C44.747 139.453 41.7943 142.006 39.3043 143.809C36.8143 142.006 33.5458 142.045 31.5406 144.064C29.2489 146.367 29.4693 150.374 32.0327 153.015C34.5814 155.649 38.5184 155.922 40.8027 153.619C42.7933 151.62 42.8887 148.333 41.1993 145.779C43.1531 143.182 45.7019 140.253 48.9558 137.362C52.4594 134.259 55.9116 131.962 58.9231 130.269C62.9041 133.154 67.3038 135.489 71.9973 137.161C71.8137 138.963 71.4978 140.906 70.9763 142.948C69.8452 147.396 68.1558 150.962 66.6207 153.587C63.6019 152.97 60.6197 154.376 59.5988 157.065C58.4456 160.12 60.2598 163.68 63.6533 165.019C67.0394 166.358 70.7266 164.965 71.8945 161.905C72.9007 159.248 71.6668 156.21 69.0886 154.587C69.8158 151.425 70.969 147.684 72.7906 143.666C73.6867 141.707 74.6342 139.921 75.6037 138.293C79.2249 139.29 82.9929 139.9 86.8858 140.068C87.5174 143.172 88.0316 146.645 88.2813 150.439C88.6559 156.085 88.3548 161.083 87.826 165.209C84.8733 165.792 82.6623 168.165 82.6623 171.003C82.6623 174.28 85.6078 176.936 89.2583 176.936C92.8941 176.936 95.8394 174.28 95.8394 171.003C95.8394 168.177 93.6432 165.808 90.7052 165.215C90.2131 160.995 89.9486 156.009 90.2278 150.439C90.4187 146.682 90.8374 143.215 91.3662 140.079C95.4354 139.921 99.3798 139.285 103.148 138.222C103.471 138.788 103.787 139.377 104.095 139.982C106.145 143.972 107.246 147.712 107.841 150.706C105.219 152.258 103.882 155.274 104.83 157.964C105.902 161.05 109.56 162.542 112.99 161.3C116.413 160.054 118.323 156.542 117.243 153.456C116.288 150.717 113.299 149.236 110.243 149.802C108.84 147.347 107.21 143.639 106.644 138.892C106.571 138.304 106.519 137.728 106.49 137.161C110.684 135.68 114.636 133.66 118.271 131.189C120.614 133.132 123.082 135.451 125.536 138.206C129.311 142.441 132.058 146.618 134.041 150.167C132.029 152.464 131.683 155.737 133.38 157.996C135.349 160.593 139.271 160.865 142.157 158.605C145.037 156.347 145.786 152.411 143.832 149.808C142.136 147.565 138.97 147.053 136.281 148.42C133.387 145.431 130.178 141.647 127.085 136.998C125.088 133.992 123.435 131.075 122.076 128.336C123.538 127.133 124.933 125.853 126.27 124.498C128.444 122.277 130.435 119.865 132.198 117.284C135.451 118.21 139.205 119.566 143.186 121.601C147.027 123.557 150.23 125.707 152.808 127.71C151.831 130.617 152.757 133.764 155.18 135.168C157.972 136.796 161.695 135.5 163.502 132.283C165.309 129.06 164.501 125.135 161.71 123.506C159.272 122.086 156.106 122.898 154.152 125.282C151.273 124.165 147.776 122.473 144.155 119.876C140.395 117.181 137.552 114.29 135.496 111.796C136.884 109.14 138.059 106.347 138.999 103.44C140.556 103.494 142.209 103.636 143.913 103.897C148.313 104.572 151.978 105.84 154.798 107.103C154.556 110.207 156.275 113.049 159 113.762C162.114 114.579 165.375 112.33 166.286 108.737C167.19 105.144 165.405 101.573 162.283 100.756C159.551 100.036 156.693 101.692 155.423 104.55C152.433 104.3 148.592 103.63 144.398 101.975C142.811 101.344 141.342 100.641 140.005 99.9062C140.674 97.212 141.144 94.44 141.386 91.5983C144.097 91.3752 146.976 91.2337 150.009 91.2277C155.357 91.212 160.219 91.6035 164.487 92.1807C165.001 95.1698 167.256 97.4456 170.01 97.5331C173.227 97.6252 175.923 94.696 176.018 90.9889C176.121 87.2819 173.602 84.1999 170.392 84.1071Z" fill="#FF383D"/>
</g>
<defs>
<filter id="filter0_d_96_1621" x="0" y="0" width="180.021" height="184.936" filterUnits="userSpaceOnUse" color-interpolation-filters="sRGB">
<feFlood flood-opacity="0" result="BackgroundImageFix"/>
<feColorMatrix in="SourceAlpha" type="matrix" values="0 0 0 0 0 0 0 0 0 0 0 0 0 0 0 0 0 0 127 0" result="hardAlpha"/>
<feOffset dy="4"/>
<feGaussianBlur stdDeviation="2"/>
<feColorMatrix type="matrix" values="0 0 0 0 0 0 0 0 0 0 0 0 0 0 0 0 0 0 0.07 0"/>
<feBlend mode="normal" in2="BackgroundImageFix" result="effect1_dropShadow_96_1621"/>
<feBlend mode="normal" in="SourceGraphic" in2="effect1_dropShadow_96_1621" result="shape"/>
</filter>
</defs>
</svg>
