<svg viewBox="0 0 1171 873" fill="none" xmlns="http://www.w3.org/2000/svg">
<path d="M541.104 722.83C505.933 743.162 469.065 756.385 427.087 756.212C380.298 756.015 333.915 724.62 304.603 690.164C293.712 677.367 284.188 662.576 281.98 645.921C276.894 607.443 312.105 596.498 343.809 596.986C361.679 597.253 378.962 602.205 396.052 607.115C424.425 615.276 456.066 616.004 482.685 629.677C491.62 634.282 498.837 640.469 508.731 643.189C524.123 647.425 540.84 647.671 556.499 651.22C569.875 654.277 585.35 660.518 587.872 673.998C590.443 687.826 577.653 699.318 565.999 707.177C557.754 712.766 549.485 718.002 541.104 722.83Z" fill="url(#paint0_linear_43_810)"/>
<path d="M292.8 267.685C333.798 157.432 457.155 86.9824 573.386 96.193C629.435 100.643 681.635 125.71 730.793 152.964C774.122 176.983 817.026 203.828 851.439 239.921C874.934 264.556 895.142 296.034 911.325 326.078C935.538 371.069 939.394 435.735 876.184 446.409C861.354 448.915 847.466 446.763 832.717 445.517C820.784 444.5 810.529 449.375 798.64 450.363C768.718 452.856 738.371 449.047 709.089 443.053C649.407 430.811 592.113 408.354 531.679 399.62C482.158 392.486 431.73 394.892 383.114 406.707C362.604 411.695 341.399 418.409 320.815 413.734C270.076 402.189 275.467 336.23 283.946 297.792C286.181 287.559 289.14 277.498 292.8 267.685Z" fill="url(#paint1_linear_43_810)"/>
<path d="M792.509 161.678C804.569 168.201 849.33 183.109 843.062 154.285C841.491 147.106 836.558 140.971 830.873 136.824C824.365 132.06 817.882 130.313 812.236 124.29C805.354 117.032 797.931 110.445 790.063 104.613C773.912 92.4207 755.963 81.8962 736.832 79.9338C723.415 78.5628 702.791 84.785 700.803 102.037C697.902 127.153 735.452 122.428 748.644 128.092C761.158 133.445 770.486 145.626 781.515 154.421C784.998 157.193 788.679 159.622 792.509 161.678Z" fill="url(#paint2_linear_43_810)"/>
<path d="M588.693 174.827C614.29 182.519 635.899 198.123 660.184 209.005C700.615 227.119 748.483 221.127 791.926 229.97C836.226 238.999 873.347 260.8 897.191 299.486C927.983 349.417 945.44 413.489 944.213 472.875C942.855 538.245 914.357 588.427 864.751 629.388C815.174 670.324 755.988 698.257 694.502 716.088C688.57 717.814 682.619 719.418 676.619 720.928C541.845 754.768 350.563 751.26 269.103 617.527C268.357 616.305 267.629 615.08 266.895 613.835C258.204 598.842 251.339 582.862 246.447 566.236C228.958 507.333 223.276 438.982 230.489 377.98C235.331 336.915 260.321 304.897 286.665 274.419C323.678 231.601 373.853 202.876 427.337 185.727C466.943 173.03 512.012 160.896 553.895 166.977C565.674 168.721 577.306 171.344 588.693 174.827Z" fill="url(#paint3_linear_43_810)"/>
<path d="M902.258 591.85C878.601 624.875 850.465 652.125 812.152 669.277C769.444 688.391 714.243 678.915 673.33 659.612C658.132 652.444 643.355 642.897 634.477 628.634C613.977 595.677 641.541 571.187 670.626 558.558C687.016 551.432 704.803 548.817 722.397 546.244C751.611 541.978 780.737 529.595 810.625 531.075C820.665 531.586 829.79 534.246 839.926 532.644C855.695 530.157 871.026 523.487 886.756 520.263C900.201 517.533 916.873 516.837 924.73 528.078C932.773 539.615 925.86 555.359 918.484 567.324C913.277 575.815 907.903 583.995 902.258 591.85Z" fill="url(#paint4_linear_43_810)"/>
<path d="M506.432 412.302C506.091 412.302 505.748 412.194 505.455 411.968C505.188 411.758 498.859 406.759 494.026 396.562C489.594 387.211 485.658 371.534 492.066 349.921C496.413 335.259 500.768 324.836 504.609 315.634C511.583 298.94 516.623 286.878 517.03 261.306C517.043 260.431 517.689 259.68 518.643 259.741C519.525 259.757 520.225 260.476 520.212 261.357C519.795 287.54 514.389 300.48 507.545 316.863C503.734 325.988 499.416 336.328 495.118 350.828C483.431 390.23 507.17 409.27 507.412 409.454C508.102 409.995 508.226 410.994 507.689 411.688C507.374 412.092 506.906 412.302 506.432 412.302Z" fill="#000C3E"/>
<path d="M636.8 161.035C636.561 178.369 622.316 192.232 604.979 191.994C587.645 191.755 573.785 177.51 574.021 160.173C574.259 142.839 588.507 128.979 605.841 129.215C623.175 129.454 637.038 143.701 636.8 161.035Z" fill="#000C3E"/>
<path d="M503.394 401.089C503.394 401.089 513.051 419.858 550.808 425.645C588.563 431.43 617.749 417.125 647.024 426.963C676.299 436.804 717.907 422.091 725.928 409.699C733.952 397.306 729.001 262.282 705.577 240.179C682.153 218.075 561.792 202.02 536.433 229.138C511.075 256.259 486.55 386.268 503.394 401.089Z" fill="#000C3E"/>
<path d="M717.938 289.38C717.155 346.508 670.209 392.185 613.078 391.402C555.95 390.62 510.273 343.67 511.055 286.542C511.841 229.414 558.788 183.737 615.916 184.52C673.044 185.306 718.721 232.252 717.938 289.38Z" fill="#000C3E"/>
<path d="M529.966 286.087C529.966 286.087 537.198 411.52 622.201 414.925C707.201 418.329 702.915 241.46 671.801 225.363C640.687 209.27 512.587 215.471 529.966 286.087Z" fill="#FFCEB0"/>
<path d="M617.744 310.891C617.744 310.891 634.872 349.145 630.761 351.805C626.65 354.462 614.432 354.296 611.075 351.534C607.719 348.773 611.012 306.726 617.744 310.891Z" fill="#F5A473"/>
<path d="M592.633 324.426C592.522 328.83 588.863 332.31 584.459 332.199C580.056 332.091 576.575 328.432 576.686 324.028C576.795 319.625 580.454 316.144 584.86 316.252C589.264 316.364 592.745 320.023 592.633 324.426Z" fill="#41294A"/>
<path d="M661.01 319.045C660.899 323.449 657.24 326.929 652.836 326.818C648.433 326.71 644.952 323.051 645.063 318.647C645.172 314.244 648.831 310.763 653.237 310.871C657.641 310.982 661.122 314.641 661.01 319.045Z" fill="#41294A"/>
<path d="M595.202 217.554C595.202 217.554 565.118 232.995 559.986 260.758C554.851 288.522 559.525 359.192 527.205 356.713C527.205 356.713 461.451 218.196 595.202 217.554Z" fill="#41294A"/>
<path d="M611.256 217.774C608.542 219.816 642.679 218.922 662.759 242.12C682.842 265.318 688.881 324.343 691.926 325.367C694.971 326.395 705.257 251.735 683.329 229.899C661.4 208.066 626.7 206.151 611.256 217.774Z" fill="#41294A"/>
<path d="M684.725 330.584C684.725 330.584 692.103 298.964 706.542 309.813C720.981 320.663 708.938 353.807 694.999 357.119C681.063 360.432 677.372 346.966 684.725 330.584Z" fill="#FFCEB0"/>
<path d="M550.746 328.746C550.746 328.746 544.236 296.935 529.505 307.384C514.776 317.833 525.906 351.299 539.747 354.993C553.59 358.683 557.647 345.326 550.746 328.746Z" fill="#FFCEB0"/>
<path d="M649.183 290.911C649.183 290.911 664.195 282.991 673.444 294.369C681.58 304.372 663.011 296.265 656.177 297.56C649.339 298.859 640.309 298.292 649.183 290.911Z" fill="#41294A"/>
<path d="M589.527 293.793C589.527 293.793 574.13 286.65 565.473 298.483C557.859 308.89 575.989 299.845 582.883 300.793C589.775 301.738 598.767 300.71 589.527 293.793Z" fill="#41294A"/>
<path d="M643.732 375.18C643.732 375.18 633.939 360.382 623.344 361.314C612.745 362.249 604.622 375.889 603.197 376.462C603.197 376.462 619.736 384.229 643.732 375.18Z" fill="#41294A"/>
<path d="M584.172 306.667C570.914 306.667 559.978 317.46 559.794 330.721C559.708 337.231 562.158 343.391 566.701 348.062C571.245 352.729 577.332 355.348 583.845 355.437L584.185 355.44C597.443 355.44 608.379 344.651 608.56 331.389C608.745 317.947 597.959 306.858 584.513 306.671L584.172 306.667ZM584.185 358.622L583.8 358.619C576.438 358.52 569.555 355.555 564.42 350.279C559.285 345.001 556.514 338.039 556.612 330.677C556.819 315.684 569.183 303.486 584.172 303.486L584.557 303.489C599.756 303.699 611.949 316.235 611.742 331.431C611.538 346.423 599.174 358.622 584.185 358.622Z" fill="#FFFCF6"/>
<path d="M653.038 301.156C639.776 301.156 628.841 311.948 628.659 325.209C628.475 338.649 639.264 349.741 652.707 349.925L653.047 349.928C666.309 349.928 677.245 339.139 677.426 325.878C677.515 319.365 675.062 313.205 670.522 308.534C665.978 303.87 659.891 301.248 653.378 301.159L653.038 301.156ZM653.047 353.11L652.666 353.107C637.463 352.897 625.271 340.361 625.478 325.165C625.685 310.173 638.046 297.974 653.038 297.974L653.423 297.977C660.785 298.076 667.667 301.041 672.8 306.316C677.938 311.595 680.709 318.556 680.608 325.919C680.401 340.911 668.037 353.11 653.047 353.11Z" fill="#FFFCF6"/>
<path d="M558.886 326.727C558.705 326.727 558.517 326.695 558.339 326.631L548.135 322.883C547.311 322.578 546.888 321.665 547.19 320.838C547.493 320.017 548.412 319.6 549.233 319.896L559.434 323.641C560.261 323.946 560.681 324.859 560.379 325.687C560.143 326.329 559.536 326.727 558.886 326.727Z" fill="#FFFCF6"/>
<path d="M677.873 319.496C677.196 319.496 676.566 319.061 676.356 318.38C676.092 317.543 676.559 316.649 677.399 316.385L691.345 312.032C692.178 311.765 693.076 312.239 693.337 313.076C693.601 313.916 693.133 314.807 692.293 315.071L678.347 319.426C678.192 319.474 678.029 319.496 677.873 319.496Z" fill="#FFFCF6"/>
<path d="M610.759 246.942C610.759 246.942 610.787 278.673 629.69 284.404C648.59 290.137 697.21 287.608 696.716 279.854C692.265 209.846 659.357 213.368 631.873 204.408C583.673 188.7 544.251 267.4 550.153 286.001C556.055 304.598 596.737 287.232 605.445 284.617C614.15 281.998 609.327 260.436 610.759 246.942Z" fill="#000C3E"/>
<g opacity="0.210007">
<g opacity="0.210007">
<path opacity="0.210007" d="M562.015 354.112C562.015 354.112 604.895 329.37 623.715 332.829C642.535 336.291 675.565 336.832 677.06 343.583C678.559 350.332 635.185 347.29 621.844 348.588C608.503 349.886 557.287 365.244 562.015 354.112Z" fill="#DB5C5D"/>
</g>
</g>
<path d="M586.013 337.556C585.386 337.556 584.791 337.183 584.539 336.563C584.209 335.752 584.6 334.823 585.414 334.492C589.726 332.735 590.524 331.351 590.531 331.339C590.814 330.505 591.686 330.117 592.526 330.413C593.356 330.696 593.773 331.663 593.49 332.497C593.289 333.082 592.204 335.163 586.611 337.438C586.413 337.518 586.213 337.556 586.013 337.556Z" fill="#DB5C5D"/>
<path d="M651.524 334.188C650.242 334.188 648.078 333.8 644.68 332.142C643.888 331.76 643.56 330.809 643.945 330.016C644.327 329.227 645.284 328.903 646.07 329.285C650.261 331.324 651.82 330.984 651.839 330.984C652.65 330.643 653.516 331.041 653.859 331.849C654.203 332.657 653.764 333.612 652.952 333.959C652.742 334.048 652.291 334.188 651.524 334.188Z" fill="#DB5C5D"/>
<path d="M610.128 331.541C609.323 331.541 608.629 330.933 608.546 330.112C608.457 329.237 609.094 328.454 609.969 328.368L627.042 326.625C627.898 326.517 628.696 327.169 628.785 328.044C628.875 328.919 628.238 329.702 627.363 329.788L610.29 331.531C610.236 331.537 610.182 331.541 610.128 331.541Z" fill="#FFFCF6"/>
<path d="M586.487 191.565C586.255 191.565 586.016 191.515 585.794 191.403C576.767 187.016 571.307 180.757 569.557 172.8C565.676 155.131 581.46 135.583 582.135 134.759C582.695 134.078 583.694 133.979 584.371 134.536C585.052 135.093 585.154 136.092 584.597 136.773C584.441 136.964 569.112 155.968 572.666 172.125C574.196 179.08 579.08 184.604 587.184 188.546C587.973 188.928 588.304 189.882 587.919 190.671C587.645 191.235 587.079 191.565 586.487 191.565Z" fill="#000C3E"/>
<path d="M622.817 196.294C622.375 196.294 621.936 196.109 621.621 195.753C621.041 195.091 621.105 194.089 621.767 193.507C621.951 193.344 640.196 177.121 639.343 160.598C638.977 153.487 635.067 147.235 627.72 142.014C627.004 141.508 626.835 140.515 627.345 139.796C627.854 139.083 628.846 138.915 629.562 139.424C637.742 145.233 642.105 152.306 642.521 160.445C643.444 178.508 624.665 195.196 623.864 195.899C623.561 196.163 623.189 196.294 622.817 196.294Z" fill="#000C3E"/>
<path d="M717.447 405.181C716.986 405.181 716.528 404.983 716.213 404.592C715.659 403.914 715.761 402.912 716.442 402.355C716.652 402.184 737.578 384.706 731.517 357.057C729.182 346.398 725.087 334.67 720.75 322.255C713.232 300.724 705.455 278.459 704.822 256.874C704.797 255.992 705.49 255.264 706.369 255.235C707.193 255.264 707.978 255.9 708.004 256.778C708.624 277.873 716.315 299.904 723.754 321.205C728.122 333.716 732.249 345.53 734.626 356.373C741.113 385.979 718.679 404.64 718.45 404.824C718.154 405.063 717.801 405.181 717.447 405.181Z" fill="#000C3E"/>
<path d="M723.098 291.551C723.047 291.551 722.993 291.548 722.939 291.545C722.067 291.459 721.428 290.679 721.514 289.804C724.263 261.967 718.405 239.374 704.109 222.641C681.09 195.708 643.692 193.236 643.319 193.213C642.441 193.162 641.77 192.412 641.824 191.53C641.872 190.655 642.626 189.962 643.501 190.038C643.892 190.06 682.639 192.618 706.528 220.573C721.409 237.99 727.517 261.388 724.679 290.116C724.6 290.94 723.906 291.551 723.098 291.551Z" fill="#000C3E"/>
<path d="M609.154 378.321C609.154 378.321 625.008 367.197 639.167 376.733C639.167 376.733 622.635 382.928 609.154 378.321Z" fill="#DB5C5D"/>
<path d="M619.644 389.741C618.079 389.741 616.733 389.725 615.903 389.712C615.025 389.699 614.325 388.977 614.337 388.096C614.35 387.217 614.951 386.505 615.954 386.53C621.961 386.61 629.139 386.463 630.256 386.04C631.073 385.728 631.996 386.136 632.311 386.953C632.626 387.774 632.225 388.687 631.407 389.006C629.816 389.623 623.911 389.741 619.644 389.741Z" fill="#DB5C5D"/>
<path d="M542.48 346.203C542.337 346.203 542.194 346.184 542.051 346.143C541.204 345.907 540.711 345.032 540.946 344.183C545.299 328.583 533.743 318.538 533.625 318.436C532.957 317.87 532.874 316.865 533.444 316.193C534.01 315.525 535.016 315.442 535.687 316.015C536.228 316.473 548.907 327.498 544.01 345.042C543.813 345.742 543.177 346.203 542.48 346.203Z" fill="#DB5C5D"/>
<path d="M690.92 350.003C690.885 350.003 690.853 350.003 690.815 350C689.94 349.943 689.275 349.185 689.329 348.31C690.519 329.847 699.367 319.977 699.746 319.567C700.338 318.917 701.343 318.873 701.989 319.465C702.638 320.057 702.683 321.062 702.094 321.711C702.008 321.806 693.618 331.234 692.508 348.514C692.45 349.357 691.75 350.003 690.92 350.003Z" fill="#DB5C5D"/>
<path d="M658.972 401.941C658.972 401.941 664.031 458.534 657.318 467.485C650.604 476.438 608.084 469.721 596.894 467.485C585.703 465.248 585.681 371.648 587.94 377.97C606.623 430.185 657.684 383.977 658.972 401.941Z" fill="#FFCEB0"/>
<path d="M591.986 407.539C591.986 407.539 622.152 422.038 656.445 404.487C656.445 404.487 659.111 425.57 656.445 430.431C653.782 435.293 599.46 438.767 588.766 414.806C588.766 414.806 588.9 406.498 591.986 407.539Z" fill="#F5A473"/>
<path d="M427.249 850.876H817.622C817.622 850.876 837.562 511.474 788.662 474.566C739.759 437.655 524.486 456.093 473.804 487.621C423.122 519.149 427.249 850.876 427.249 850.876Z" fill="#FB4C47"/>
<path d="M622.153 460.778C622.153 460.778 607.106 591.241 613.673 609.399C620.237 627.558 611.828 708.065 609.155 718.53C606.48 728.994 525.374 733.439 504.445 725.068C483.515 716.697 509.777 491.045 521.492 449.298C533.211 407.547 620.864 432.145 622.153 460.778Z" fill="#05BA6E"/>
<path d="M383.969 300.932C383.969 300.932 416.598 363.425 439.465 364.004C462.335 364.583 539.454 270.668 567.889 269.7C596.328 268.736 620.747 271.495 620.859 264.718C620.97 257.937 581.307 250.537 581.307 250.537C581.307 250.537 638.667 254.189 626.802 247.915C614.941 241.641 586.515 235.999 586.515 235.999C586.515 235.999 627.741 237.663 628.04 233.254C628.339 228.844 585.118 222.35 585.118 222.35C585.118 222.35 637.712 220.67 628.094 213.435C618.473 206.199 600.365 209.34 551.389 216.82C502.409 224.3 391.602 289.688 383.969 300.932Z" fill="#FFCEB0"/>
<path d="M441.214 297.938C441.214 297.938 493.41 329.03 470.683 364.265C446.483 401.784 447.838 390.638 443.654 405.818C439.467 420.998 508.441 450.563 511.578 463.557C514.715 476.548 482.201 636.332 451.745 629.774C425.235 624.069 277.915 540.466 256.743 456.92C240.332 392.15 374.102 233.722 441.214 297.938Z" fill="#FB4C47"/>
<path d="M577.845 662.398C577.845 662.398 520.011 789.801 541.274 806.862C562.538 823.919 579.672 812.805 598.476 823.878C617.283 834.95 635.323 829.414 650.43 819.78C665.537 810.142 626.22 683.391 609.958 671.323C593.697 659.252 580.776 655.777 577.845 662.398Z" fill="white"/>
<path d="M770.001 465.5C770.001 465.5 801.099 469.296 825.51 514C843.824 547.541 879.304 743.529 825.51 771.454C771.716 799.377 721.261 784.771 701.736 765.953C682.209 747.135 716.95 650.154 740.108 642.915C763.268 635.679 770.001 465.5 770.001 465.5Z" fill="#FB4C47"/>
<path d="M780.071 462.496C780.071 462.496 781.525 453.434 736.742 434.055C701.005 418.588 670.393 444.691 615.881 447.501C561.368 450.313 566.287 428.706 527.728 438.748C468.223 454.239 515.599 493.244 534.772 497.622C553.945 502 618.181 609.985 780.071 462.496Z" fill="#05BA6E"/>
<path d="M623.78 353.6C623.78 353.6 623.614 357.291 625.733 357.625C627.852 357.959 631.769 356.776 630.76 351.803C630.76 351.803 625.447 353.511 623.78 353.6Z" fill="white"/>
<path d="M844.514 659.318C844.365 659.318 844.212 659.309 844.059 659.287C842.589 659.077 841.501 657.893 841.345 656.483C838.695 653.419 820.899 647.002 809.028 642.719C785.509 634.234 774.962 630.037 772.693 625.446C770.768 621.554 771.63 615.942 772.722 608.837C774.449 597.593 776.603 583.593 769.463 570.109C757.134 546.822 758.308 512.281 758.366 510.824C758.436 509.067 759.953 507.661 761.665 507.766C763.421 507.833 764.79 509.312 764.726 511.065C764.71 511.409 763.565 545.371 775.089 567.131C783.212 582.479 780.784 598.27 779.012 609.801C778.162 615.321 777.364 620.536 778.398 622.627C780.326 625.601 798.898 632.302 811.186 636.734C838.879 646.725 848.495 650.744 847.658 656.588C847.432 658.176 846.07 659.318 844.514 659.318Z" fill="#B31B1F"/>
<path d="M761.5 633.159C761.223 633.159 760.943 633.124 760.66 633.047C750.148 630.18 733.816 627.196 733.654 627.164C731.923 626.852 730.777 625.195 731.092 623.467C731.407 621.736 733.059 620.572 734.793 620.906C735.47 621.027 751.554 623.967 762.334 626.906C764.03 627.371 765.029 629.118 764.567 630.814C764.182 632.23 762.9 633.159 761.5 633.159Z" fill="#B31B1F"/>
<path d="M818.653 790.54C818.602 790.54 818.555 790.54 818.507 790.536C759.613 787.867 700.935 762.779 697.763 738.916C696.767 731.417 696.048 727.665 695.603 725.81C694.413 725.219 693.691 723.952 693.904 722.568C694.308 719.947 696.083 719.017 697.493 719.017H697.528C700.732 719.052 701.795 720.93 704.073 738.079C706.535 756.603 759.957 781.513 818.793 784.179C820.55 784.259 821.908 785.745 821.829 787.501C821.752 789.21 820.343 790.54 818.653 790.54Z" fill="#B31B1F"/>
<path d="M713.077 734.226C712.845 734.226 712.609 734.2 712.371 734.149C710.659 733.761 709.584 732.056 709.972 730.341C710.109 729.727 724.026 668.383 737.032 624.256C737.529 622.569 739.311 621.602 740.984 622.105C742.671 622.601 743.635 624.37 743.135 626.056C730.185 669.987 716.316 731.133 716.179 731.747C715.842 733.224 714.531 734.226 713.077 734.226Z" fill="#B31B1F"/>
<path d="M437.001 600.994C436.845 600.994 436.682 600.982 436.523 600.959C434.786 600.699 433.59 599.076 433.851 597.342C434.178 595.146 442.034 543.3 452.814 519.039C463.294 495.463 468.659 471.558 468.713 471.32C469.088 469.605 470.784 468.532 472.509 468.902C474.224 469.283 475.305 470.986 474.924 472.701C474.704 473.7 469.365 497.467 458.63 521.626C448.2 545.098 440.22 597.755 440.141 598.284C439.906 599.865 438.547 600.994 437.001 600.994Z" fill="#B31B1F"/>
<path d="M388.497 419.977C380.028 419.977 370.536 419.462 360.088 418.132C358.344 417.909 357.11 416.318 357.332 414.575C357.552 412.831 359.184 411.619 360.889 411.819C392.707 415.873 415.31 412.141 426.961 409.598C421.158 407.743 413.028 405.936 404.915 406.378C386.658 407.237 359.944 390.928 358.815 390.228C357.32 389.305 356.858 387.345 357.781 385.85C358.704 384.354 360.667 383.887 362.159 384.816C362.42 384.975 388.351 400.817 404.587 400.021C420.054 399.207 438.371 406.095 440.035 409.051C440.63 410.104 440.582 411.472 439.905 412.475C439.275 413.4 437.97 413.957 436.825 413.887C436.322 413.945 434.833 414.301 433.385 414.645C426.427 416.312 411.091 419.974 388.497 419.977Z" fill="#B31B1F"/>
<path d="M466.708 351.594C465.525 351.594 464.389 350.932 463.842 349.799C463.762 349.637 455.817 333.499 442.289 327.104C426.93 319.84 409.561 294.523 408.83 293.451C407.84 291.997 408.215 290.015 409.666 289.028C411.124 288.042 413.099 288.421 414.086 289.865C414.258 290.113 431.213 314.823 445.012 321.348C460.603 328.727 469.212 346.287 469.572 347.028C470.336 348.613 469.671 350.509 468.089 351.273C467.644 351.492 467.173 351.594 466.708 351.594Z" fill="#B31B1F"/>
<path d="M614.497 536.501C614.38 536.501 614.259 536.488 614.141 536.46C613.285 536.265 612.747 535.41 612.945 534.557C613.021 534.22 620.609 501.047 622.83 484.196C626.289 457.925 614.523 448.761 614.405 448.672C613.702 448.144 613.555 447.151 614.077 446.448C614.599 445.742 615.585 445.592 616.292 446.111C616.842 446.515 629.709 456.318 625.983 484.61C623.747 501.613 616.123 534.932 616.047 535.263C615.878 536.005 615.223 536.501 614.497 536.501Z" fill="#08824F"/>
<path d="M520.663 488.657L517.503 488.291C517.503 488.291 519.972 466.811 521.261 456.251C522.562 445.599 525.601 438.325 525.731 438.02C526.072 437.205 527.007 436.836 527.815 437.17C528.623 437.514 529.002 438.449 528.662 439.257C528.63 439.327 525.661 446.454 524.42 456.639C523.132 467.19 520.663 488.654 520.663 488.657Z" fill="#08824F"/>
<path d="M611.008 841.386C592.863 841.386 582.885 840.787 569.076 839.96C551.312 838.894 526.988 837.437 470.143 836.553C468.387 836.527 466.984 835.083 467.012 833.323C467.041 831.567 468.587 830.103 470.242 830.189C527.227 831.074 551.634 832.54 569.455 833.609C583.155 834.427 593.05 835.022 611.008 835.022C633.487 835.022 653.653 832.559 673.157 830.18C690.278 828.086 706.447 826.113 723.778 825.728C760.747 824.914 788.374 825.725 788.647 825.728C790.404 825.786 791.785 827.252 791.731 829.005C791.676 830.762 790.194 832.063 788.457 832.092C788.183 832.082 760.712 831.268 723.921 832.092C706.906 832.467 690.886 834.424 673.927 836.495C654.235 838.901 633.875 841.386 611.008 841.386Z" fill="#B31B1F"/>
<path d="M755.143 798.932C753.562 798.932 751.978 798.223 750.597 796.136C746.298 789.642 745 789.107 736.689 790.386C729.171 791.56 726.202 786.231 724.236 782.709C723.581 781.531 722.957 780.421 722.413 779.991C720.949 778.837 717.294 780.224 715.747 781.076L714.204 778.296C714.879 777.92 720.873 774.723 724.386 777.494C725.426 778.318 726.161 779.635 727.014 781.156C728.913 784.551 730.88 788.048 736.203 787.243C745.716 785.773 748.258 786.845 753.25 794.379C754.574 796.384 755.719 796.11 759.248 794.052C761.927 792.48 765.99 790.109 769.019 794.341L766.435 796.193C765.255 794.554 764.186 794.85 760.851 796.797C759.257 797.73 757.202 798.932 755.143 798.932Z" fill="white"/>
<path d="M718.124 649.085C718.124 649.085 642.125 621.604 609.153 635.661C576.181 649.715 549.009 685.948 554.042 688.344C559.076 690.743 586.012 669.852 586.012 669.852C586.012 669.852 558.544 697.609 563.638 700.387C568.732 703.164 595.201 688.344 595.201 688.344C595.201 688.344 576.725 708.096 584.66 709.607C592.595 711.119 609.608 694.844 627.349 694.233C645.094 693.619 667.455 707.641 689.638 711.59C711.818 715.535 718.124 649.085 718.124 649.085Z" fill="#FFCEB0"/>
<path d="M832.818 634.84C832.621 634.84 832.423 634.821 832.223 634.783C832 634.744 809.62 630.513 782.865 625.072C781.143 624.722 780.03 623.042 780.38 621.321C780.727 619.599 782.403 618.486 784.131 618.839C810.842 624.267 833.184 628.489 833.407 628.534C835.134 628.858 836.267 630.522 835.939 632.25C835.653 633.777 834.317 634.84 832.818 634.84Z" fill="#B31B1F"/>
<path fill-rule="evenodd" clip-rule="evenodd" d="M620.41 134.769C619.579 134.769 618.676 134.866 617.697 135.059C615.312 135.538 613.766 136.697 612.838 138.708C608.702 147.662 617.424 168.986 623.656 181.585C627.507 167.609 632.122 144.248 625.601 136.886C624.345 135.471 622.636 134.769 620.41 134.769ZM623.839 192.049C623.939 192.068 624.04 192.082 624.142 192.09C624.474 192.218 624.828 192.284 625.185 192.284C625.517 192.284 625.849 192.229 626.172 192.111C630.422 190.562 667.843 176.527 672.505 160.355C673.626 156.467 672.837 152.632 670.225 149.273C665.781 143.553 660.982 142.873 657.735 143.305C648.524 144.534 639.457 156.434 632.808 167.74C635.16 154.863 636.065 139.992 629.922 133.056C627.755 130.608 623.673 127.983 616.568 129.398C612.397 130.23 609.294 132.615 607.598 136.29C601.32 149.887 615.762 179.169 620.575 188.244C614.505 189.415 608.402 189.679 602.563 189.283C589.984 188.428 578.834 184.516 572.177 180.237L569.798 183.938C577.164 188.673 589.052 192.775 602.265 193.673C609.194 194.143 616.543 193.737 623.839 192.049ZM659.327 148.971C659.054 148.971 658.777 148.987 658.5 149.029C648.744 150.327 636.956 171.018 630.724 184.107C643.68 178.652 664.228 168.233 666.957 158.759C667.57 156.626 667.159 154.741 665.668 152.817C663.661 150.235 661.582 148.971 659.327 148.971Z" fill="#FFD310"/>
<path d="M197.27 243.75H310.515C317.784 243.75 324.662 247.045 329.218 252.71L362.458 294.048C367.173 299.91 374.363 303.223 381.883 302.997L594.85 296.596" stroke="#FFB2B1" stroke-width="5" stroke-linejoin="round"/>
<path d="M209.361 244.265C209.361 249.301 205.279 253.384 200.243 253.384C195.207 253.384 191.124 249.301 191.124 244.265C191.124 239.229 195.207 235.147 200.243 235.147C205.279 235.147 209.361 239.229 209.361 244.265Z" fill="#FF383D"/>
<path d="M11.0007 244.366C11.0007 205.356 42.625 173.732 81.6348 173.732C120.645 173.732 152.266 205.356 152.266 244.366C152.266 283.376 120.645 315 81.6348 315C42.625 315 11.0007 283.376 11.0007 244.366Z" fill="#FFE1E2"/>
<path d="M81.3303 156.49C130.103 156.49 169.64 196.028 169.64 244.8C169.64 293.573 130.103 333.113 81.3303 333.113V376.724" stroke="#FFD6D7" stroke-width="2.4" stroke-miterlimit="10"/>
<path d="M74.0679 378.928C74.0679 374.916 77.3185 371.665 81.3301 371.665C85.3418 371.665 88.5924 374.916 88.5924 378.928C88.5924 382.939 85.3418 386.19 81.3301 386.19C77.3185 386.19 74.0679 382.939 74.0679 378.928Z" fill="#F2AEB0"/>
<path d="M53.1607 249V243.46H59.6207V240.96H53.1607V238.16H59.7607V235.66H50.3207V249H53.1607ZM71.1865 249V246.5H64.5865V243.46H71.0465V240.96H64.5865V238.16H71.1865V235.66H61.7465V249H71.1865ZM80.7067 249L85.8467 235.66H82.6267L78.9267 245.9L75.2267 235.66H72.0067L77.1467 249H80.7067ZM96.5185 249V246.5H89.9185V243.46H96.3785V240.96H89.9185V238.16H96.5185V235.66H87.0785V249H96.5185ZM109.559 249L106.539 243.92C107.979 243.58 109.479 242.3 109.479 239.96C109.479 237.48 107.759 235.66 104.979 235.66H98.7387V249H101.579V244.26H103.659L106.279 249H109.559ZM104.579 241.76H101.579V238.16H104.579C105.699 238.16 106.559 238.84 106.559 239.94C106.559 241.08 105.699 241.76 104.579 241.76Z" fill="#FF383D"/>
<path d="M650.77 358.046H819.584C828.398 358.046 836.503 362.877 840.695 370.63L871.944 428.419C876.136 436.172 884.241 441.004 893.055 441.004H975.84" stroke="#FFB2B1" stroke-width="5" stroke-linejoin="round"/>
<path d="M979.944 440.905C979.944 445.941 975.862 450.023 970.826 450.023C965.79 450.023 961.708 445.941 961.708 440.905C961.708 435.868 965.79 431.786 970.826 431.786C975.862 431.786 979.944 435.868 979.944 440.905Z" fill="#FF383D"/>
<path opacity="0.15" d="M1005.73 459.366C1005.73 420.356 1037.36 388.732 1076.37 388.732C1115.38 388.732 1147 420.356 1147 459.366C1147 498.376 1115.38 530 1076.37 530C1037.36 530 1005.73 498.376 1005.73 459.366Z" fill="#FF383D"/>
<path d="M1053.63 451L1050.61 445.92C1052.05 445.58 1053.55 444.3 1053.55 441.96C1053.55 439.48 1051.83 437.66 1049.05 437.66H1042.81V451H1045.65V446.26H1047.73L1050.35 451H1053.63ZM1048.65 443.76H1045.65V440.16H1048.65C1049.77 440.16 1050.63 440.84 1050.63 441.94C1050.63 443.08 1049.77 443.76 1048.65 443.76ZM1061.68 451.24C1065.74 451.24 1067.7 448.96 1067.7 445.66V437.66H1064.8V445.58C1064.8 447.44 1063.74 448.72 1061.68 448.72C1059.62 448.72 1058.54 447.44 1058.54 445.58V437.66H1055.66V445.66C1055.66 448.96 1057.62 451.24 1061.68 451.24ZM1082.29 451V437.66H1079.45V446.04L1073.27 437.66H1070.35V451H1073.19V442.3L1079.55 451H1082.29ZM1096.86 451V437.66H1094.02V446.04L1087.84 437.66H1084.92V451H1087.76V442.3L1094.12 451H1096.86ZM1106.05 451V445.54L1111.15 437.66H1107.93L1104.63 443L1101.33 437.66H1098.09L1103.21 445.54V451H1106.05ZM1062.78 480V466.66H1059.94V475.04L1053.76 466.66H1050.84V480H1053.68V471.3L1060.04 480H1062.78ZM1071.75 480.24C1075.77 480.24 1078.71 477.36 1078.71 473.34C1078.71 469.32 1075.77 466.44 1071.75 466.44C1067.71 466.44 1064.77 469.32 1064.77 473.34C1064.77 477.36 1067.71 480.24 1071.75 480.24ZM1071.75 477.72C1069.27 477.72 1067.69 475.82 1067.69 473.34C1067.69 470.84 1069.27 468.96 1071.75 468.96C1074.21 468.96 1075.79 470.84 1075.79 473.34C1075.79 475.82 1074.21 477.72 1071.75 477.72ZM1085.46 480.24C1089.04 480.24 1090.8 478.4 1090.8 475.96C1090.8 470.98 1083.14 472.4 1083.14 470.3C1083.14 469.5 1083.82 468.98 1085.02 468.98C1086.38 468.98 1087.82 469.44 1088.9 470.44L1090.48 468.32C1089.16 467.1 1087.4 466.46 1085.28 466.46C1082.14 466.46 1080.22 468.3 1080.22 470.52C1080.22 475.54 1087.9 473.92 1087.9 476.24C1087.9 477.02 1087.16 477.72 1085.58 477.72C1083.74 477.72 1082.28 476.88 1081.34 475.9L1079.78 478.12C1081.04 479.38 1082.88 480.24 1085.46 480.24ZM1102.14 480V477.5H1095.54V474.46H1102V471.96H1095.54V469.16H1102.14V466.66H1092.7V480H1102.14Z" fill="#FF383D"/>
<path d="M1081.03 371.265C1129.8 371.265 1169.34 410.803 1169.34 459.578C1169.34 508.35 1129.8 547.888 1081.03 547.888V591.502" stroke="#FFD6D7" stroke-width="2.4" stroke-miterlimit="10"/>
<path d="M1073.77 593.704C1073.77 589.692 1077.02 586.442 1081.03 586.442C1085.04 586.442 1088.29 589.692 1088.29 593.704C1088.29 597.716 1085.04 600.966 1081.03 600.966C1077.02 600.966 1073.77 597.716 1073.77 593.704Z" fill="#F2AEB0"/>
<path opacity="0.15" d="M11.0007 730.366C11.0007 691.356 42.625 659.732 81.6348 659.732C120.645 659.732 152.266 691.356 152.266 730.366C152.266 769.376 120.645 801 81.6348 801C42.625 801 11.0007 769.376 11.0007 730.366Z" fill="#FF383D"/>
<g filter="url(#filter0_d_43_810)">
<path d="M31.6007 736C35.7607 736 38.6607 733.36 38.6607 729.32C38.6607 725.32 35.7607 722.66 31.5807 722.66H26.3207V736H31.6007ZM31.5807 733.5H29.1607V725.16H31.6007C34.3207 725.16 35.7607 726.98 35.7607 729.32C35.7607 731.6 34.2207 733.5 31.5807 733.5ZM46.4354 736V730.54L51.5354 722.66H48.3154L45.0154 728L41.7154 722.66H38.4754L43.5954 730.54V736H46.4354ZM55.606 736V731.24H59.006C61.886 731.24 63.486 729.28 63.486 726.96C63.486 724.62 61.906 722.66 59.006 722.66H52.766V736H55.606ZM58.606 728.74H55.606V725.16H58.606C59.726 725.16 60.586 725.84 60.586 726.96C60.586 728.06 59.726 728.74 58.606 728.74ZM70.026 736.24C73.606 736.24 75.366 734.4 75.366 731.96C75.366 726.98 67.706 728.4 67.706 726.3C67.706 725.5 68.386 724.98 69.586 724.98C70.946 724.98 72.386 725.44 73.466 726.44L75.046 724.32C73.726 723.1 71.966 722.46 69.846 722.46C66.706 722.46 64.786 724.3 64.786 726.52C64.786 731.54 72.466 729.92 72.466 732.24C72.466 733.02 71.726 733.72 70.146 733.72C68.306 733.72 66.846 732.88 65.906 731.9L64.346 734.12C65.606 735.38 67.446 736.24 70.026 736.24ZM89.1982 736V722.66H86.3582V731.04L80.1782 722.66H77.2582V736H80.0982V727.3L86.4582 736H89.1982ZM98.1685 736.24C102.189 736.24 105.129 733.36 105.129 729.34C105.129 725.32 102.189 722.44 98.1685 722.44C94.1285 722.44 91.1885 725.32 91.1885 729.34C91.1885 733.36 94.1285 736.24 98.1685 736.24ZM98.1685 733.72C95.6885 733.72 94.1085 731.82 94.1085 729.34C94.1085 726.84 95.6885 724.96 98.1685 724.96C100.629 724.96 102.209 726.84 102.209 729.34C102.209 731.82 100.629 733.72 98.1685 733.72ZM116.562 736V733.5H109.962V730.46H116.422V727.96H109.962V725.16H116.562V722.66H107.122V736H116.562ZM131.222 736L126.082 722.66H122.522L117.382 736H120.602L121.442 733.74H127.162L128.002 736H131.222ZM126.382 731.24H122.222L124.302 725.5L126.382 731.24Z" fill="#FF383D"/>
</g>
<path d="M81.3325 642.642C130.105 642.642 169.643 682.18 169.643 730.952C169.643 779.727 130.105 819.265 81.3325 819.265V862.876" stroke="#FFD6D7" stroke-width="2.4" stroke-miterlimit="10"/>
<path d="M74.0701 865.08C74.0701 861.068 77.3207 857.818 81.3323 857.818C85.344 857.818 88.5946 861.068 88.5946 865.08C88.5946 869.089 85.344 872.342 81.3323 872.342C77.3207 872.342 74.0701 869.089 74.0701 865.08Z" fill="#F2AEB0"/>
<path d="M186.74 742.834H365.033C374.666 742.834 383.365 737.075 387.127 728.207L443.54 595.233C447.302 586.365 456.002 580.606 465.634 580.606H672.809" stroke="#FFB2B1" stroke-width="5" stroke-linejoin="round"/>
<path d="M201.987 743.241C201.987 748.277 197.904 752.359 192.868 752.359C187.832 752.359 183.75 748.277 183.75 743.241C183.75 738.205 187.832 734.122 192.868 734.122C197.904 734.122 201.987 738.205 201.987 743.241Z" fill="#FF383D"/>
<path opacity="0.15" d="M159.268 488.366C159.268 449.356 127.644 417.732 88.6338 417.732C49.624 417.732 17.9998 449.356 17.9998 488.366C17.9998 527.376 49.624 559 88.6338 559C127.644 559 159.268 527.376 159.268 488.366Z" fill="#FF383D"/>
<path d="M54.8152 483V472.16H58.6952V469.66H48.0552V472.16H51.9552V483H54.8152ZM72.5158 483V469.66H69.6558V474.9H63.3558V469.66H60.5158V483H63.3558V477.38H69.6558V483H72.5158ZM85.9647 483L82.9447 477.92C84.3847 477.58 85.8847 476.3 85.8847 473.96C85.8847 471.48 84.1647 469.66 81.3847 469.66H75.1447V483H77.9847V478.26H80.0647L82.6847 483H85.9647ZM80.9847 475.76H77.9847V472.16H80.9847C82.1047 472.16 82.9647 472.84 82.9647 473.94C82.9647 475.08 82.1047 475.76 80.9847 475.76ZM94.3363 483.24C98.3563 483.24 101.296 480.36 101.296 476.34C101.296 472.32 98.3563 469.44 94.3363 469.44C90.2963 469.44 87.3563 472.32 87.3563 476.34C87.3563 480.36 90.2963 483.24 94.3363 483.24ZM94.3363 480.72C91.8563 480.72 90.2763 478.82 90.2763 476.34C90.2763 473.84 91.8563 471.96 94.3363 471.96C96.7963 471.96 98.3763 473.84 98.3763 476.34C98.3763 478.82 96.7963 480.72 94.3363 480.72ZM115.046 483L109.906 469.66H106.346L101.206 483H104.426L105.266 480.74H110.986L111.826 483H115.046ZM110.206 478.24H106.046L108.126 472.5L110.206 478.24ZM120.928 483V472.16H124.808V469.66H114.168V472.16H118.068V483H120.928ZM70.7874 512V507.24H74.1874C77.0674 507.24 78.6674 505.28 78.6674 502.96C78.6674 500.62 77.0874 498.66 74.1874 498.66H67.9474V512H70.7874ZM73.7874 504.74H70.7874V501.16H73.7874C74.9074 501.16 75.7674 501.84 75.7674 502.96C75.7674 504.06 74.9074 504.74 73.7874 504.74ZM91.4031 512L86.2631 498.66H82.7031L77.5631 512H80.7831L81.6231 509.74H87.3431L88.1831 512H91.4031ZM86.5631 507.24H82.4031L84.4831 501.5L86.5631 507.24ZM95.4749 512V498.66H92.6349V512H95.4749ZM110.063 512V498.66H107.223V507.04L101.043 498.66H98.1232V512H100.963V503.3L107.323 512H110.063Z" fill="#FF383D"/>
<path d="M89.9726 400.026C41.2003 400.026 1.6626 439.563 1.6626 488.338C1.6626 537.111 41.2003 576.648 89.9726 576.648V620.262" stroke="#FFD6D7" stroke-width="2.4" stroke-miterlimit="10"/>
<path d="M97.4327 622.545C97.4327 618.533 94.1821 615.283 90.1705 615.283C86.1615 615.283 82.9082 618.533 82.9082 622.545C82.9082 626.556 86.1615 629.807 90.1705 629.807C94.1821 629.807 97.4327 626.556 97.4327 622.545Z" fill="#F2AEB0"/>
<path d="M190.511 503.07H393.822C401.243 503.07 408.246 499.638 412.792 493.772L455.528 438.629C460.074 432.763 467.077 429.331 474.498 429.331H631.721" stroke="#FFB2B1" stroke-width="5" stroke-linejoin="round"/>
<path d="M200.761 503.586C200.761 508.622 196.678 512.704 191.642 512.704C186.606 512.704 182.524 508.622 182.524 503.586C182.524 498.55 186.606 494.468 191.642 494.468C196.678 494.468 200.761 498.55 200.761 503.586Z" fill="#FF383D"/>
<path opacity="0.13" d="M1160 700.366C1160 661.356 1128.38 629.732 1089.37 629.732C1050.36 629.732 1018.74 661.356 1018.74 700.366C1018.74 739.376 1050.36 771 1089.37 771C1128.38 771 1160 739.376 1160 700.366Z" fill="#FF383D"/>
<path d="M1051.85 691.24C1055.43 691.24 1057.19 689.4 1057.19 686.96C1057.19 681.98 1049.53 683.4 1049.53 681.3C1049.53 680.5 1050.21 679.98 1051.41 679.98C1052.77 679.98 1054.21 680.44 1055.29 681.44L1056.87 679.32C1055.55 678.1 1053.79 677.46 1051.67 677.46C1048.53 677.46 1046.61 679.3 1046.61 681.52C1046.61 686.54 1054.29 684.92 1054.29 687.24C1054.29 688.02 1053.55 688.72 1051.97 688.72C1050.13 688.72 1048.67 687.88 1047.73 686.9L1046.17 689.12C1047.43 690.38 1049.27 691.24 1051.85 691.24ZM1071.08 691V677.66H1068.22V682.9H1061.92V677.66H1059.08V691H1061.92V685.38H1068.22V691H1071.08ZM1086.15 691L1081.01 677.66H1077.45L1072.31 691H1075.53L1076.37 688.74H1082.09L1082.93 691H1086.15ZM1081.31 686.24H1077.15L1079.23 680.5L1081.31 686.24ZM1098.8 691L1093.14 683.92L1098.44 677.66H1094.94L1090.22 683.6V677.66H1087.38V691H1090.22V686.9L1091.26 685.64L1095.3 691H1098.8ZM1102.94 691V677.66H1100.1V691H1102.94ZM1117.53 691V677.66H1114.69V686.04L1108.51 677.66H1105.59V691H1108.43V682.3L1114.79 691H1117.53ZM1126.64 691.24C1129.04 691.24 1130.94 690.26 1132.3 688.74V683.62H1125.94V686.1H1129.46V687.7C1128.92 688.2 1127.82 688.72 1126.64 688.72C1124.2 688.72 1122.44 686.86 1122.44 684.34C1122.44 681.82 1124.2 679.96 1126.64 679.96C1128.04 679.96 1129.18 680.76 1129.8 681.7L1132.14 680.42C1131.14 678.84 1129.4 677.44 1126.64 677.44C1122.72 677.44 1119.52 680.12 1119.52 684.34C1119.52 688.54 1122.72 691.24 1126.64 691.24ZM1064.09 720.24C1067.01 720.24 1068.71 718.62 1069.65 716.96L1067.21 715.78C1066.65 716.86 1065.45 717.72 1064.09 717.72C1061.65 717.72 1059.89 715.86 1059.89 713.34C1059.89 710.82 1061.65 708.96 1064.09 708.96C1065.45 708.96 1066.65 709.82 1067.21 710.9L1069.65 709.7C1068.71 708.02 1067.01 706.44 1064.09 706.44C1060.07 706.44 1056.97 709.22 1056.97 713.34C1056.97 717.44 1060.07 720.24 1064.09 720.24ZM1083.34 720V706.66H1080.48V711.9H1074.18V706.66H1071.34V720H1074.18V714.38H1080.48V720H1083.34ZM1088.81 720V706.66H1085.97V720H1088.81ZM1099.84 720V717.5H1094.2V706.66H1091.34V720H1099.84ZM1110.13 720V717.5H1104.49V706.66H1101.63V720H1110.13ZM1116.8 720.24C1120.38 720.24 1122.14 718.4 1122.14 715.96C1122.14 710.98 1114.48 712.4 1114.48 710.3C1114.48 709.5 1115.16 708.98 1116.36 708.98C1117.72 708.98 1119.16 709.44 1120.24 710.44L1121.82 708.32C1120.5 707.1 1118.74 706.46 1116.62 706.46C1113.48 706.46 1111.56 708.3 1111.56 710.52C1111.56 715.54 1119.24 713.92 1119.24 716.24C1119.24 717.02 1118.5 717.72 1116.92 717.72C1115.08 717.72 1113.62 716.88 1112.68 715.9L1111.12 718.12C1112.38 719.38 1114.22 720.24 1116.8 720.24Z" fill="#FA5652"/>
<path d="M1089.87 613.801C1041.1 613.801 1001.56 653.339 1001.56 702.111C1001.56 750.886 1041.1 790.424 1089.87 790.424V834.035" stroke="#FFD6D7" stroke-width="2.4" stroke-miterlimit="10"/>
<path d="M1097.13 836.239C1097.13 832.227 1093.88 828.976 1089.86 828.976C1085.85 828.976 1082.6 832.227 1082.6 836.239C1082.6 840.248 1085.85 843.501 1089.86 843.501C1093.88 843.501 1097.13 840.248 1097.13 836.239Z" fill="#F2AEB0"/>
<path d="M725.738 754.401H816.846C824.124 754.401 831.009 751.098 835.565 745.421L861.096 713.605C865.651 707.929 872.536 704.626 879.814 704.626H973.995" stroke="#FFA6A6" stroke-width="5" stroke-linejoin="round"/>
<path d="M979.943 703.913C979.943 708.949 975.861 713.031 970.825 713.031C965.789 713.031 961.706 708.949 961.706 703.913C961.706 698.876 965.789 694.794 970.825 694.794C975.861 694.794 979.943 698.876 979.943 703.913Z" fill="#FF383D"/>
<path opacity="0.15" d="M1160 214.366C1160 175.356 1128.38 143.732 1089.37 143.732C1050.36 143.732 1018.74 175.356 1018.74 214.366C1018.74 253.376 1050.36 285 1089.37 285C1128.38 285 1160 253.376 1160 214.366Z" fill="#FF383D"/>
<path d="M1048.32 220V206.66H1045.46V211.9H1039.16V206.66H1036.32V220H1039.16V214.38H1045.46V220H1048.32ZM1060.39 220V217.5H1053.79V214.46H1060.25V211.96H1053.79V209.16H1060.39V206.66H1050.95V220H1060.39ZM1075.05 220L1069.91 206.66H1066.35L1061.21 220H1064.43L1065.27 217.74H1070.99L1071.83 220H1075.05ZM1070.21 215.24H1066.05L1068.13 209.5L1070.21 215.24ZM1081.56 220C1085.72 220 1088.62 217.36 1088.62 213.32C1088.62 209.32 1085.72 206.66 1081.54 206.66H1076.28V220H1081.56ZM1081.54 217.5H1079.12V209.16H1081.56C1084.28 209.16 1085.72 210.98 1085.72 213.32C1085.72 215.6 1084.18 217.5 1081.54 217.5ZM1102.39 220L1097.25 206.66H1093.69L1088.55 220H1091.77L1092.61 217.74H1098.33L1099.17 220H1102.39ZM1097.55 215.24H1093.39L1095.47 209.5L1097.55 215.24ZM1109.42 220.24C1112.34 220.24 1114.04 218.62 1114.98 216.96L1112.54 215.78C1111.98 216.86 1110.78 217.72 1109.42 217.72C1106.98 217.72 1105.22 215.86 1105.22 213.34C1105.22 210.82 1106.98 208.96 1109.42 208.96C1110.78 208.96 1111.98 209.82 1112.54 210.9L1114.98 209.7C1114.04 208.02 1112.34 206.44 1109.42 206.44C1105.4 206.44 1102.3 209.22 1102.3 213.34C1102.3 217.44 1105.4 220.24 1109.42 220.24ZM1128.67 220V206.66H1125.81V211.9H1119.51V206.66H1116.67V220H1119.51V214.38H1125.81V220H1128.67ZM1140.74 220V217.5H1134.14V214.46H1140.6V211.96H1134.14V209.16H1140.74V206.66H1131.3V220H1140.74Z" fill="#FF383D"/>
<path d="M1089.87 127.65C1041.1 127.65 1001.56 167.187 1001.56 215.96C1001.56 264.732 1041.1 304.272 1089.87 304.272V347.883" stroke="#FFD6D7" stroke-width="2.4" stroke-miterlimit="10"/>
<path d="M1097.13 350.087C1097.13 346.075 1093.88 342.825 1089.87 342.825C1085.86 342.825 1082.61 346.075 1082.61 350.087C1082.61 354.099 1085.86 357.349 1089.87 357.349C1093.88 357.349 1097.13 354.099 1097.13 350.087Z" fill="#F2AEB0"/>
<path d="M975.839 222.859H849.559C843.442 222.859 837.555 225.195 833.102 229.39L804.567 256.271C800.114 260.466 794.228 262.802 788.11 262.802H674.12" stroke="#FFB2B1" stroke-width="5" stroke-linejoin="round"/>
<path d="M979.941 222.146C979.941 227.182 975.859 231.264 970.822 231.264C965.786 231.264 961.704 227.182 961.704 222.146C961.704 217.11 965.786 213.027 970.822 213.027C975.859 213.027 979.941 217.11 979.941 222.146Z" fill="#FF383D"/>
<defs>
<filter id="filter0_d_43_810" x="26.3208" y="722.44" width="104.901" height="13.8" filterUnits="userSpaceOnUse" color-interpolation-filters="sRGB">
<feFlood flood-opacity="0" result="BackgroundImageFix"/>
<feColorMatrix in="SourceAlpha" type="matrix" values="0 0 0 0 0 0 0 0 0 0 0 0 0 0 0 0 0 0 127 0" result="hardAlpha"/>
<feOffset/>
<feColorMatrix type="matrix" values="0 0 0 0 0 0 0 0 0 0 0 0 0 0 0 0 0 0 0.1 0"/>
<feBlend mode="normal" in2="BackgroundImageFix" result="effect1_dropShadow_43_810"/>
<feBlend mode="normal" in="SourceGraphic" in2="effect1_dropShadow_43_810" result="shape"/>
</filter>
<linearGradient id="paint0_linear_43_810" x1="279.615" y1="651.802" x2="343.866" y2="780.175" gradientUnits="userSpaceOnUse">
<stop stop-color="#FFC8C8"/>
<stop offset="1" stop-color="#FFF2F5"/>
</linearGradient>
<linearGradient id="paint1_linear_43_810" x1="911.18" y1="248.499" x2="389.511" y2="38.2372" gradientUnits="userSpaceOnUse">
<stop stop-color="white"/>
<stop offset="1" stop-color="#FFD5D5"/>
</linearGradient>
<linearGradient id="paint2_linear_43_810" x1="843.946" y1="153.536" x2="682.873" y2="126.967" gradientUnits="userSpaceOnUse">
<stop stop-color="#FFD3D3"/>
<stop offset="1" stop-color="#FFF6F6"/>
</linearGradient>
<linearGradient id="paint3_linear_43_810" x1="205.431" y1="428.025" x2="962.765" y2="428.025" gradientUnits="userSpaceOnUse">
<stop stop-color="#FFF8F5"/>
<stop offset="1" stop-color="#FFDEDE"/>
</linearGradient>
<linearGradient id="paint4_linear_43_810" x1="893.009" y1="609.534" x2="694.623" y2="627.818" gradientUnits="userSpaceOnUse">
<stop stop-color="#FFC2C2"/>
<stop offset="1" stop-color="white"/>
</linearGradient>
</defs>
</svg>
