<svg viewBox="0 0 216 223" fill="none" xmlns="http://www.w3.org/2000/svg">
<path d="M84.54 217.978C72.8401 222.114 61.0192 224.004 48.3957 221.555C34.3254 218.823 22.0892 206.687 15.1581 194.6C12.5828 190.11 10.5278 185.097 10.7772 179.938C11.3577 168.019 22.5546 166.723 32.0691 168.681C37.4325 169.782 42.362 172.266 47.2356 174.725C55.3269 178.812 64.8091 180.839 72.0697 186.491C74.5061 188.393 76.3386 190.675 79.1669 192.062C83.5667 194.221 88.5841 195.25 93.1021 197.217C96.9597 198.905 101.274 201.675 101.294 205.892C101.309 210.218 96.8292 212.96 92.8908 214.67C90.1031 215.888 87.3272 216.998 84.54 217.978Z" fill="url(#paint0_linear_96_1242)"/>
<path d="M41.3829 64.2331C60.4708 35.8579 100.097 24.5659 132.282 35.3589C147.802 40.5661 160.83 51.3478 172.851 62.5354C183.446 72.3959 193.729 83.0276 200.984 95.6835C205.938 104.322 209.497 114.67 212.019 124.328C215.788 138.789 212.469 157.396 193.897 155.973C189.54 155.64 185.766 154.052 181.687 152.66C178.387 151.532 175.16 152.192 171.736 151.635C163.119 150.236 154.812 147.02 146.953 143.259C130.939 135.587 116.295 125.187 99.8289 118.457C86.335 112.948 71.9347 110.081 57.4046 110.009C51.2746 109.979 44.8307 110.39 39.3383 107.616C25.8009 100.771 31.818 82.4483 36.8315 72.1464C38.1597 69.4023 39.6806 66.7578 41.3829 64.2331Z" fill="url(#paint1_linear_96_1242)"/>
<path d="M192.054 68.9207C195.22 71.8038 207.644 79.6864 207.852 70.4829C207.901 68.19 206.859 65.9603 205.446 64.2766C203.828 62.3441 201.999 61.3272 200.733 59.0777C199.185 56.3614 197.424 53.8076 195.474 51.4493C191.488 46.5409 186.837 42.0027 181.205 39.9694C177.255 38.5449 170.576 38.8789 168.719 43.9558C166.013 51.3464 177.692 52.7391 181.261 55.4469C184.648 58.0099 186.576 62.4016 189.265 65.8955C190.114 66.9972 191.048 68.0099 192.054 68.9207Z" fill="url(#paint2_linear_96_1242)"/>
<path d="M133.209 59.7127C139.909 63.6935 144.944 69.6363 151.057 74.4289C161.233 82.4069 175.151 84.0765 186.809 89.6392C198.696 95.3148 207.687 104.105 211.78 116.746C217.069 133.063 217.63 152.45 213.238 169.194C208.401 187.624 196.939 199.841 180.149 207.959C163.368 216.073 144.762 219.825 126.194 220.552C124.402 220.624 122.614 220.66 120.817 220.666C80.4762 220.774 26.7315 206.322 12.8531 162.69C12.7259 162.291 12.604 161.893 12.4816 161.489C11.0504 156.628 10.2017 151.616 9.95385 146.56C9.03093 128.636 12.0843 108.866 18.2759 92.0851C22.4402 80.7879 31.4562 71.2529 40.9674 64.4688C54.3305 54.938 70.6659 52.5466 86.9287 51.4495C98.9712 50.6376 112.517 50.3699 123.923 55.04C127.129 56.3628 130.233 57.9247 133.209 59.7127Z" fill="url(#paint3_linear_96_1242)"/>
<path d="M161.674 216.501C109.84 231.572 66.646 217.039 51.5279 207.889L37.4897 197.123L42.3491 189.049L72.5852 186.358L122.799 183.667L163.294 191.741L205.408 177.746H209.728C203.248 199.707 174.992 212.733 161.674 216.501Z" fill="#FB4C47"/>
<path d="M54.7922 187.383H178.205C178.205 187.383 182.526 116.425 166.803 106.041C151.083 95.6602 77.5594 97.8282 61.264 106.695C44.9687 115.565 54.7922 187.383 54.7922 187.383Z" fill="#FB4C47"/>
<path d="M75.34 91.0901C75.1598 91.0901 74.9797 91.0322 74.8317 90.9078C74.4908 90.6312 66.5779 83.9707 70.9096 70.5467C72.4214 65.8525 73.9032 62.5287 75.2113 59.593C77.568 54.3092 79.2707 50.4921 79.5923 42.3327C79.6116 41.8888 79.9569 41.5564 80.4286 41.5585C80.8725 41.5778 81.2178 41.951 81.2006 42.3948C80.864 50.8653 79.0198 55.0061 76.6824 60.2471C75.3893 63.1463 73.9268 66.4294 72.4364 71.0399C68.4414 83.4303 75.7731 89.604 75.8482 89.6641C76.1913 89.945 76.2449 90.4511 75.9618 90.7942C75.8031 90.9893 75.5715 91.0901 75.34 91.0901Z" fill="#000C3E"/>
<path d="M119.147 11.0295C118.939 16.6007 114.254 20.9452 108.682 20.7372C103.113 20.5292 98.7667 15.8437 98.9747 10.2746C99.1848 4.70347 103.868 0.35675 109.439 0.564758C115.008 0.77491 119.355 5.4583 119.147 11.0295Z" fill="#000C3E"/>
<path d="M74.4358 87.1696C74.4358 87.1696 77.3973 93.2768 89.4874 95.4234C101.58 97.5721 111.069 93.1975 120.403 96.5835C129.738 99.9674 143.224 95.5563 145.898 91.6342C148.57 87.7121 148.011 44.2771 140.651 36.9925C133.289 29.7101 94.7241 23.6307 86.3673 32.1526C78.0106 40.6766 69.1349 82.2782 74.4358 87.1696Z" fill="#000C3E"/>
<path d="M144.247 52.9012C143.559 71.2574 128.121 85.582 109.765 84.8937C91.4091 84.2053 77.0845 68.7677 77.7728 50.4094C78.4612 32.0533 93.8988 17.7308 112.255 18.4191C130.611 19.1054 144.936 34.5451 144.247 52.9012Z" fill="#000C3E"/>
<path d="M124.653 80.7117C124.653 80.7117 126.813 106.614 124.653 109.492C122.494 112.37 108.823 110.212 105.227 109.492C101.629 108.773 100.19 80.7117 102.347 80.7117C104.506 80.7117 124.239 74.9368 124.653 80.7117Z" fill="#FFCEB0"/>
<path d="M83.8535 50.4089C83.8535 50.4089 85.2216 90.7816 112.516 92.5251C139.812 94.2663 139.784 37.3837 129.907 31.9734C120.028 26.563 78.8077 27.5773 83.8535 50.4089Z" fill="#FFCEB0"/>
<path d="M111.879 59.0509C111.879 59.0509 117.092 71.4777 115.75 72.3012C114.409 73.1246 110.483 72.9767 109.426 72.0632C108.369 71.1496 109.748 57.6613 111.879 59.0509Z" fill="#EE9B68"/>
<path d="M103.705 67.3492C103.637 68.7645 102.434 69.8539 101.018 69.7853C99.6051 69.7166 98.5135 68.5136 98.5822 67.0983C98.6508 65.6851 99.8538 64.5936 101.269 64.6623C102.682 64.7309 103.774 65.9339 103.705 67.3492Z" fill="#41294A"/>
<path d="M125.723 66.1414C125.655 67.5568 124.452 68.6461 123.036 68.5775C121.623 68.5089 120.532 67.3059 120.6 65.8906C120.669 64.4774 121.872 63.3859 123.287 63.4545C124.7 63.5231 125.792 64.7261 125.723 66.1414Z" fill="#41294A"/>
<path d="M105.345 28.8779C105.345 28.8779 95.5584 33.6106 93.6971 42.4949C91.8336 51.3813 92.7986 74.1314 82.4282 73.087C82.4282 73.087 62.3501 28.063 105.345 28.8779Z" fill="#000C3E"/>
<path d="M110.504 29.0715C109.616 29.7084 120.595 29.6805 126.872 37.291C133.151 44.8994 134.641 63.9181 135.611 64.2698C136.582 64.6236 140.459 40.7049 133.576 33.519C126.694 26.3331 115.556 25.4539 110.504 29.0715Z" fill="#000C3E"/>
<path d="M102.727 88.8431C102.727 88.8431 113.346 94.8817 124.372 89.2376C124.372 89.2376 125.23 96.0161 124.372 97.5794C123.515 99.1427 106.051 100.26 102.613 92.555C102.613 92.555 101.734 88.5085 102.727 88.8431Z" fill="#EE9B68"/>
<path d="M133.258 65.892C133.258 65.892 135.872 55.7854 140.429 59.3816C144.988 62.9799 140.864 73.5411 136.359 74.4997C131.853 75.4582 130.768 71.1029 133.258 65.892Z" fill="#FFCEB0"/>
<path d="M90.2078 64.2787C90.2078 64.2787 88.3571 54.0048 83.5429 57.2514C78.7287 60.4959 82.0504 71.3381 86.4722 72.6311C90.894 73.9221 92.2986 69.6611 90.2078 64.2787Z" fill="#FFCEB0"/>
<path d="M122.137 52.8688C122.137 52.8688 127.022 50.437 129.908 54.1662C132.447 57.4428 126.542 54.6958 124.333 55.0604C122.126 55.4249 119.229 55.174 122.137 52.8688Z" fill="#41294A"/>
<path d="M102.939 53.3394C102.939 53.3394 98.0459 50.9248 95.1724 54.6646C92.6463 57.9499 98.5413 55.1815 100.75 55.5374C102.959 55.8955 105.856 55.6339 102.939 53.3394Z" fill="#41294A"/>
<path d="M100.928 57.4595C96.712 57.4595 93.2852 60.7641 93.1244 64.9843C93.0472 67.0686 93.787 69.0608 95.2066 70.5919C96.6262 72.1209 98.5562 73.0065 100.643 73.0837L100.943 73.0901C105.161 73.0901 108.588 69.7856 108.746 65.5676C108.826 63.4832 108.086 61.4889 106.666 59.9599C105.247 58.4288 103.315 57.5432 101.228 57.466L100.928 57.4595ZM100.943 74.1624L100.602 74.1559C98.2302 74.068 96.0343 73.0601 94.4196 71.321C92.8048 69.5798 91.9642 67.3153 92.0522 64.9414C92.2344 60.1465 96.133 56.3873 100.928 56.3873L101.269 56.3938C103.641 56.4817 105.836 57.4896 107.451 59.2287C109.066 60.9721 109.907 63.2344 109.819 65.6104C109.638 70.4053 105.74 74.1624 100.943 74.1624Z" fill="#FFFCF6"/>
<path d="M123.105 56.2142C118.889 56.2142 115.463 59.5187 115.302 63.7389C115.141 68.0449 118.514 71.6797 122.82 71.8384L123.12 71.8448C127.336 71.8448 130.763 68.5403 130.924 64.3201C131.001 62.2357 130.261 60.2435 128.842 58.7124C127.422 57.1835 125.492 56.2978 123.406 56.2206L123.105 56.2142ZM123.12 72.917L122.779 72.9106C117.882 72.7283 114.047 68.5939 114.23 63.696C114.412 58.9011 118.31 55.142 123.105 55.142L123.446 55.1484C125.818 55.2363 128.014 56.2442 129.629 57.9833C131.243 59.7246 132.084 61.9891 131.996 64.3629C131.814 69.1578 127.915 72.917 123.12 72.917Z" fill="#FFFCF6"/>
<path d="M92.8511 63.7175C92.7867 63.7175 92.7181 63.7047 92.6538 63.6789L89.405 62.3966C89.1284 62.2872 88.9933 61.9763 89.1026 61.7018C89.212 61.4252 89.5186 61.2922 89.7974 61.3994L93.0483 62.6839C93.325 62.7911 93.4579 63.1042 93.3486 63.3787C93.2649 63.5889 93.0655 63.7175 92.8511 63.7175Z" fill="#FFFCF6"/>
<path d="M131.152 62.2991C130.92 62.2991 130.704 62.1468 130.637 61.9088C130.556 61.6257 130.721 61.3298 131.006 61.2483L135.522 59.9552C135.812 59.8759 136.106 60.0389 136.185 60.3241C136.266 60.6093 136.101 60.9052 135.816 60.9867L131.298 62.2776C131.251 62.2926 131.199 62.2991 131.152 62.2991Z" fill="#FFFCF6"/>
<path d="M108.657 26.7587C108.657 26.7587 109.888 48.6424 115.92 50.6281C121.952 52.616 136.783 52.0713 137.499 49.6782C138.215 47.2829 125.999 28.0218 117.232 24.9338C101.859 19.5171 88.5894 44.5123 90.3435 50.5338C92.0977 56.5574 105.307 51.2865 108.125 50.5123C110.945 49.7382 108.093 31.084 108.657 26.7587Z" fill="#000C3E"/>
<path d="M109.286 65.6545C109.007 65.6545 108.773 65.4401 108.752 65.1613C108.728 64.8654 108.949 64.6081 109.243 64.5845L114.745 64.1556C115.067 64.1041 115.301 64.355 115.32 64.6467C115.344 64.9426 115.125 65.1999 114.829 65.2235L109.329 65.6524C109.314 65.6545 109.299 65.6545 109.286 65.6545Z" fill="#FFFCF6"/>
<path d="M102.757 20.7517C102.63 20.7517 102.506 20.7217 102.388 20.6616C99.4372 19.1391 97.6766 17.0161 97.1577 14.3528C96.019 8.50714 101.329 2.24117 101.556 1.97741C101.847 1.63645 102.351 1.59785 102.69 1.89164C103.027 2.18113 103.066 2.68721 102.776 3.02388C102.725 3.08393 97.7452 8.97033 98.7381 14.0483C99.1584 16.2034 100.636 17.9468 103.126 19.2335C103.52 19.4372 103.675 19.9218 103.471 20.3164C103.329 20.593 103.048 20.7517 102.757 20.7517Z" fill="#000C3E"/>
<path d="M114.396 22.5483C114.168 22.5483 113.939 22.4497 113.78 22.2588C113.495 21.92 113.54 21.4139 113.881 21.1287C113.939 21.0773 119.821 16.0872 119.675 10.9149C119.615 8.72119 118.444 6.75905 116.199 5.08213C115.843 4.81622 115.77 4.31228 116.036 3.95631C116.304 3.5982 116.804 3.52957 117.162 3.79334C119.821 5.7812 121.211 8.16364 121.283 10.8763C121.446 16.8292 115.178 22.1388 114.91 22.3618C114.76 22.4883 114.578 22.5483 114.396 22.5483Z" fill="#41294A"/>
<path d="M143.219 90.4114C142.979 90.4114 142.741 90.3042 142.582 90.1004C142.31 89.7488 142.372 89.2448 142.724 88.9725C143 88.7559 149.511 83.5621 147.808 74.8129C147.141 71.3862 145.919 67.5927 144.622 63.5762C142.364 56.579 140.028 49.3417 139.988 42.3552C139.985 41.9113 140.344 41.5489 140.787 41.5467H140.792C141.233 41.5467 141.594 41.9048 141.596 42.3466C141.634 49.0843 143.931 56.2016 146.151 63.083C147.463 67.1467 148.702 70.983 149.387 74.5063C151.282 84.2462 144.019 90.0039 143.71 90.2441C143.562 90.3578 143.391 90.4114 143.219 90.4114Z" fill="#000C3E"/>
<path d="M145.9 53.7324C145.868 53.7324 145.836 53.7303 145.802 53.726C145.362 53.6724 145.049 53.2714 145.103 52.8296C146.188 43.9947 144.504 36.7659 140.095 31.3448C132.993 22.6106 121.092 21.5234 120.972 21.517C120.53 21.4784 120.202 21.0902 120.236 20.6463C120.275 20.2067 120.671 19.8743 121.105 19.9129C121.619 19.9537 133.791 21.0538 141.333 30.3176C146.033 36.0904 147.839 43.733 146.698 53.0269C146.649 53.4322 146.301 53.7324 145.9 53.7324Z" fill="#000C3E"/>
<path d="M113.261 84.7214C112.356 84.7214 111.395 84.6914 110.674 84.6657C110.231 84.6464 109.885 84.2733 109.902 83.8294C109.917 83.3855 110.258 83.0274 110.737 83.0574C112.587 83.1303 114.83 83.1389 115.238 83.0209C115.656 82.903 116.108 83.1281 116.243 83.542C116.376 83.9537 116.179 84.3912 115.774 84.537C115.384 84.6764 114.365 84.7214 113.261 84.7214Z" fill="#EE9B68"/>
<path d="M87.4297 70.1191C87.3525 70.1191 87.2732 70.1084 87.196 70.0827C86.7692 69.954 86.5312 69.5058 86.662 69.0812C88.1245 64.2756 84.6227 61.0847 84.5884 61.0526C84.2581 60.7588 84.2281 60.2484 84.524 59.916C84.8178 59.5837 85.3261 59.5536 85.6606 59.8517C85.8364 60.0083 89.9601 63.7717 88.1974 69.5487C88.0945 69.8961 87.775 70.1191 87.4297 70.1191Z" fill="#EE9B68"/>
<path d="M135.113 72.4756C135.089 72.4756 135.068 72.4756 135.042 72.4734C134.6 72.4327 134.272 72.0446 134.311 71.6007C134.841 65.5727 137.832 62.3947 137.959 62.2618C138.267 61.9444 138.771 61.9358 139.093 62.2403C139.415 62.5448 139.425 63.0531 139.121 63.3747C139.093 63.4047 136.391 66.3104 135.915 71.7422C135.876 72.1604 135.525 72.4756 135.113 72.4756Z" fill="#EE9B68"/>
<path d="M88.2565 108.353C88.2565 108.353 106.516 130.183 120.598 124.342C134.679 118.501 147.871 102.666 140.792 100.565C133.714 98.4653 77.1871 99.5697 88.2565 108.353Z" fill="#FFCEB0"/>
<path d="M136.483 137.201C136.483 137.201 125.843 127.645 114.718 133.047C103.592 138.447 106.978 149.664 96.8204 147.586C86.6623 145.508 68.2568 148.648 72.6357 159.633C77.0146 170.619 49.0043 179.214 59.6449 193.339C70.2854 207.462 99.0055 196.605 107.83 199.515C116.652 202.423 137.45 203.669 139.869 195.359C142.288 187.052 157.767 185.806 155.348 175.005C152.929 164.203 150.51 149.248 136.483 137.201Z" fill="white"/>
<path d="M101.334 162.333C101.334 162.333 112.198 175.378 112.17 187.933C112.153 195.927 106.268 182.454 104.248 179.726C102.23 177.001 108.599 188.744 106.489 192.503C105.458 194.343 98.8809 180.76 98.8809 180.76C98.8809 180.76 101.673 193.521 99.893 194.761C98.1153 196.002 93.5263 183.73 93.5263 183.73C93.5263 183.73 93.7407 193.699 91.6263 193.824C89.5141 193.948 90.2732 183.702 81.7921 179.265C73.3088 174.829 34.6687 205.537 33.7509 180.37C32.8331 155.203 44.1706 146.484 70.4331 151.054C91.1589 154.66 94.4291 156.946 101.334 162.333Z" fill="#FFC6A6"/>
<path d="M125.495 162.333C125.495 162.333 114.631 175.378 114.659 187.933C114.676 195.927 120.56 182.454 122.58 179.726C124.598 177.001 118.229 188.744 120.34 192.503C121.371 194.343 127.948 180.76 127.948 180.76C127.948 180.76 125.156 193.521 126.936 194.761C128.713 196.002 133.302 183.73 133.302 183.73C133.302 183.73 133.088 193.699 135.202 193.824C137.315 193.948 136.556 183.702 145.037 179.265C153.52 174.829 197.062 208.554 197.98 183.387C198.896 158.22 182.658 146.484 156.396 151.054C135.67 154.66 132.4 156.946 125.495 162.333Z" fill="#FFC6A6"/>
<path d="M137.587 184.268C137.587 184.268 137.819 162.189 149.885 162.333C161.952 162.479 167.688 173.263 156.331 179.623C144.974 185.986 137.267 188.579 137.587 184.268Z" fill="white"/>
<path d="M146.692 170.52C146.692 170.52 148.62 175.008 153.172 175.458C157.723 175.909 168.07 175.458 168.97 181.982C169.869 188.505 164.46 197.501 157.83 196.602C151.202 195.702 144.395 194.348 138.805 198.095C133.214 201.841 138.809 167.831 146.692 170.52Z" fill="white"/>
<path d="M158.173 135.538C158.173 138.519 155.756 140.935 152.776 140.935C149.793 140.935 147.376 138.519 147.376 135.538C147.376 132.557 149.793 130.14 152.776 130.14C155.756 130.14 158.173 132.557 158.173 135.538Z" fill="white"/>
<path d="M95.5845 135.538C95.5845 138.519 93.1677 140.935 90.187 140.935C87.2041 140.935 84.7874 138.519 84.7874 135.538C84.7874 132.557 87.2041 130.14 90.187 130.14C93.1677 130.14 95.5845 132.557 95.5845 135.538Z" fill="white"/>
<path d="M112.76 79.5193C108.638 79.5193 105.012 76.6694 104.845 76.5321C104.495 76.2576 104.44 75.7516 104.716 75.4042C104.991 75.0589 105.497 74.9989 105.844 75.2755C105.887 75.3077 109.964 78.4964 113.931 77.8123C115.844 77.4757 117.454 76.2641 118.719 74.2097C118.953 73.8302 119.453 73.7101 119.826 73.946C120.205 74.1797 120.321 74.6751 120.09 75.0525C118.571 77.5186 116.59 78.981 114.201 79.3971C113.716 79.4807 113.236 79.5193 112.76 79.5193Z" fill="#EE9B68"/>
<path d="M80.1692 102.222C80.1692 102.222 64.9204 123.703 64.4757 136.327C64.031 148.95 50.3832 154.274 54.2512 172.462C55.7763 179.624 60.0611 189.774 55.9526 193.778C45.2493 204.211 34.9169 196.651 33.1337 193.778C20.2409 172.999 35.8504 123.866 49.4331 112.933C59.6786 102.222 80.1692 102.222 80.1692 102.222Z" fill="#D9423D"/>
<path d="M150.955 101.291C150.955 101.291 167.911 123.065 168.378 135.314C168.846 147.563 183.187 152.729 179.123 170.376C177.52 177.325 170.063 187.504 177.832 191.059C187.029 195.267 201.706 192.561 203.579 189.774C222.207 168.352 197.362 124.939 183.089 114.331C170.515 104.085 150.955 101.291 150.955 101.291Z" fill="#D9423D"/>
<path d="M113.21 3.95244C112.96 3.95244 112.687 3.98156 112.393 4.03979C111.673 4.18411 111.208 4.53352 110.928 5.13992C109.681 7.83896 112.31 14.2675 114.189 18.0654C115.35 13.8523 116.741 6.80973 114.775 4.59049C114.397 4.16386 113.881 3.95244 113.21 3.95244ZM114.408 21.2354C114.095 21.2354 113.803 21.067 113.648 20.7885C112.984 19.5973 107.221 9.01757 109.348 4.41072C109.859 3.303 110.795 2.58393 112.052 2.33327C114.194 1.90664 115.424 2.69787 116.078 3.43593C119.493 7.29206 115.681 19.2833 115.236 20.6379C115.127 20.9658 114.836 21.1987 114.491 21.2316C114.464 21.2341 114.436 21.2354 114.408 21.2354Z" fill="#FFD310"/>
<path d="M124.943 8.2332C124.86 8.2332 124.777 8.23826 124.693 8.25092C121.752 8.64211 118.199 14.8795 116.32 18.8255C120.226 17.181 126.42 14.0402 127.243 11.1842C127.428 10.5411 127.304 9.97264 126.854 9.39283C126.249 8.61426 125.623 8.2332 124.943 8.2332ZM114.65 21.2904C114.416 21.2904 114.187 21.1967 114.021 21.022C113.782 20.7713 113.714 20.4042 113.847 20.0852C114.396 18.7698 119.356 7.2065 124.463 6.52541C125.441 6.39502 126.888 6.6001 128.228 8.32435C129.015 9.33712 129.253 10.4929 128.915 11.6652C127.51 16.5405 116.229 20.7713 114.948 21.2385C114.85 21.2739 114.75 21.2904 114.65 21.2904Z" fill="#FFD310"/>
<path d="M98.3115 18.2164C102.539 20.9341 112.202 23.0478 119.75 18.2164" stroke="#FFD310" stroke-width="3.87"/>
<defs>
<linearGradient id="paint0_linear_96_1242" x1="9.74283" y1="181.58" x2="21.9244" y2="224.075" gradientUnits="userSpaceOnUse">
<stop stop-color="#FFCECE"/>
<stop offset="1" stop-color="#FFF2F2"/>
</linearGradient>
<linearGradient id="paint1_linear_96_1242" x1="33.9024" y1="38.0355" x2="194.702" y2="159.104" gradientUnits="userSpaceOnUse">
<stop stop-color="#FFDADA"/>
<stop offset="1" stop-color="white"/>
</linearGradient>
<linearGradient id="paint2_linear_96_1242" x1="208.174" y1="70.3225" x2="161.327" y2="50.5452" gradientUnits="userSpaceOnUse">
<stop stop-color="#FFDFDF"/>
<stop offset="1" stop-color="#FFF5F5"/>
</linearGradient>
<linearGradient id="paint3_linear_96_1242" x1="197.65" y1="202.388" x2="8.92502" y2="94.1514" gradientUnits="userSpaceOnUse">
<stop stop-color="#FFE0E0"/>
<stop offset="1" stop-color="#FFF4F4"/>
</linearGradient>
</defs>
</svg>
