<svg viewBox="0 0 273 259" fill="none" xmlns="http://www.w3.org/2000/svg">
<g opacity="0.62">
<path d="M92.2052 239.275C77.1659 242.899 62.2593 243.704 46.9035 238.986C29.7881 233.726 16.1333 216.967 9.05536 200.969C6.42534 195.026 4.50703 188.498 5.46646 182.09C7.68837 167.29 21.7458 167.144 33.3056 170.839C39.8222 172.919 45.6262 176.667 51.3639 180.379C60.8894 186.544 72.4004 190.321 80.6979 198.332C83.4816 201.026 85.468 204.115 88.8029 206.219C93.9905 209.493 100.087 211.437 105.445 214.486C110.02 217.1 115.025 221.125 114.518 226.392C113.991 231.794 108.087 234.628 102.984 236.244C99.3717 237.398 95.7873 238.418 92.2052 239.275Z" fill="url(#paint0_linear_1121_90)"/>
<path d="M58.4988 41.9678C85.7552 9.05188 136.335 0.161128 174.9 17.8639C193.496 26.4037 208.298 41.5753 221.798 57.1213C233.699 70.8232 245.114 85.4468 252.518 102.2C257.574 113.635 260.685 127.021 262.595 139.41C265.447 157.958 258.984 180.751 236.125 176.534C230.761 175.546 226.28 173.068 221.396 170.794C217.445 168.953 213.358 169.353 209.181 168.208C198.668 165.329 188.768 160.223 179.494 154.495C160.596 142.813 143.741 127.905 124.164 117.34C108.119 108.69 90.6173 103.218 72.6017 101.219C65.0013 100.377 56.9557 100.044 50.4922 95.8582C34.5622 85.5344 44.3368 63.4511 51.8549 51.2489C53.8485 47.9976 56.0688 44.8961 58.4988 41.9678Z" fill="url(#paint1_linear_1121_90)"/>
<path d="M245.124 67.6053C248.685 71.6168 263.097 83.08 264.514 71.6295C264.863 68.7765 263.852 65.8589 262.311 63.5734C260.549 60.9507 258.409 59.4422 257.123 56.4705C255.545 52.8796 253.684 49.4633 251.563 46.266C247.238 39.6207 242.043 33.3499 235.317 30.0741C230.599 27.7786 222.277 27.3175 219.335 33.4049C215.05 42.2662 229.354 45.5378 233.439 49.3837C237.316 53.0252 239.153 58.7555 242.046 63.466C242.961 64.9516 243.991 66.3373 245.124 67.6053Z" fill="url(#paint2_linear_1121_90)"/>
<path d="M172.837 48.2508C180.644 54.0989 186.14 62.1768 193.116 68.9609C204.731 80.254 221.781 84.1661 235.538 92.6396C249.565 101.284 259.607 113.435 263.091 129.749C267.593 150.807 265.846 175.075 258.289 195.393C249.967 217.759 234.213 231.499 212.367 239.425C190.534 247.346 166.985 249.584 143.867 248.053C141.636 247.907 139.413 247.717 137.185 247.488C87.1408 242.323 22.3092 217.227 10.5964 160.953C10.4889 160.439 10.3879 159.925 10.2871 159.405C9.12466 153.151 8.70383 146.785 9.03358 140.442C10.1479 117.953 16.4262 93.6802 26.2197 73.552C32.8079 60.0003 45.191 49.2854 57.8415 42.0685C75.6152 31.9298 96.1754 31.0914 116.482 31.8586C131.519 32.4274 148.353 33.8729 161.909 41.1994C165.718 43.2713 169.371 45.6284 172.837 48.2508Z" fill="url(#paint3_linear_1121_90)"/>
</g>
<path d="M132.195 123.968C132.571 125.536 134.106 126.528 135.622 126.183L141.868 124.764C145.047 124.042 148.369 124.082 151.563 124.918C152.515 125.167 153.541 125.168 154.551 124.863C157.228 124.057 158.886 121.266 158.384 118.411C157.795 115.059 154.604 112.888 151.451 113.604C150.597 113.798 149.837 114.183 149.202 114.707C146.656 116.808 143.716 118.356 140.504 119.086L134.259 120.504C132.743 120.849 131.818 122.4 132.195 123.968Z" fill="#FB4C47"/>
<path d="M98.5379 150.788C97.4389 150.079 96.0118 150.401 95.3505 151.509L92.6272 156.068C91.2408 158.389 89.3431 160.341 87.0676 161.744C86.389 162.162 85.81 162.772 85.4118 163.554C84.3564 165.626 84.9985 168.272 86.8961 169.672C89.1237 171.316 92.1524 170.709 93.5272 168.407C93.8996 167.784 94.1108 167.102 94.173 166.414C94.4222 163.649 95.2074 160.979 96.6079 158.635L99.3308 154.076C99.9918 152.969 99.637 151.496 98.5379 150.788Z" fill="#C63F3B"/>
<path d="M124.437 109.894C125.587 110.635 127.08 110.298 127.772 109.139L130.622 104.368C132.073 101.939 134.059 99.8964 136.44 98.4284C137.15 97.9907 137.756 97.353 138.173 96.5344C139.277 94.3657 138.605 91.5966 136.619 90.1319C134.288 88.4124 131.119 89.0474 129.68 91.4558C129.29 92.1082 129.07 92.8211 129.004 93.5418C128.744 96.4344 127.922 99.2285 126.457 101.682L123.607 106.452C122.915 107.611 123.287 109.152 124.437 109.894Z" fill="#C63F3B"/>
<path d="M116.993 148.082C115.502 148.421 114.593 149.946 114.963 151.488L116.487 157.839C117.262 161.072 117.312 164.429 116.597 167.636C116.383 168.592 116.41 169.628 116.728 170.657C117.571 173.385 120.286 175.135 123.006 174.703C126.199 174.196 128.192 171.028 127.423 167.822C127.215 166.953 126.826 166.175 126.308 165.52C124.229 162.891 122.67 159.877 121.886 156.611L120.363 150.261C119.993 148.719 118.484 147.743 116.993 148.082Z" fill="#FB4C47"/>
<path d="M126.324 165.495C124.253 162.87 122.7 159.862 121.92 156.601L120.404 150.262C120.035 148.722 118.532 147.749 117.046 148.088C115.56 148.427 114.654 149.949 115.022 151.489L116.538 157.828C117.318 161.089 118.871 164.097 120.942 166.722C121.458 167.375 121.845 168.153 122.053 169.02C122.546 171.082 121.895 173.127 120.52 174.458C121.317 174.719 122.173 174.801 123.03 174.664C126.212 174.157 128.2 170.993 127.435 167.792C127.227 166.925 126.84 166.148 126.324 165.495Z" fill="#C63F3B"/>
<path d="M89.296 122.172C94.2144 121.059 97.2101 116.044 95.987 110.97C94.764 105.896 89.7854 102.685 84.867 103.797C79.9486 104.91 76.9529 109.925 78.1759 114.999C79.399 120.073 84.3776 123.284 89.296 122.172Z" fill="#FF8F8C"/>
<path d="M84.944 103.797C83.9972 104.011 83.1231 104.372 82.3358 104.85C86.1888 105.225 89.6029 108.093 90.5843 112.17C91.5657 116.247 89.814 120.284 86.5308 122.276C87.4545 122.366 88.4032 122.314 89.3501 122.1C94.246 120.991 97.2285 115.995 96.0118 110.94C94.795 105.886 89.8397 102.688 84.944 103.797Z" fill="#FB4C47"/>
<path d="M119.768 158.642C135.827 155.009 145.609 138.632 141.615 122.064C137.622 105.497 121.365 95.0107 105.306 98.6438C89.2458 102.277 79.4642 118.653 83.4578 135.221C87.4513 151.789 103.708 162.275 119.768 158.642Z" fill="#FB4C47"/>
<path d="M105.659 98.6441C104.745 98.8513 103.853 99.1018 102.982 99.3899C118.005 97.4705 132.568 107.625 136.304 123.162C140.04 138.699 131.614 154.067 117.269 158.808C118.182 158.691 119.096 158.532 120.009 158.325C135.963 154.707 145.683 138.414 141.721 121.933C137.758 105.453 121.612 95.026 105.659 98.6441Z" fill="#C63F3B"/>
<path d="M122.726 122.05C125.988 121.312 127.975 117.986 127.164 114.621C126.353 111.255 123.05 109.125 119.788 109.863C116.526 110.601 114.539 113.928 115.35 117.293C116.162 120.658 119.464 122.788 122.726 122.05Z" fill="#C63F3B"/>
<path d="M119.824 109.863C118.843 110.085 117.98 110.543 117.272 111.164C119.399 111.751 121.175 113.492 121.74 115.836C122.304 118.179 121.507 120.503 119.868 121.943C120.787 122.196 121.77 122.236 122.751 122.014C126.002 121.278 127.982 117.961 127.174 114.606C126.366 111.25 123.075 109.127 119.824 109.863Z" fill="white"/>
<path d="M105.667 146.775C107.875 146.275 109.22 144.024 108.671 141.745C108.122 139.467 105.886 138.025 103.678 138.525C101.47 139.024 100.125 141.276 100.674 143.554C101.223 145.833 103.458 147.274 105.667 146.775Z" fill="white"/>
<path d="M139.108 151.484C142.119 150.803 143.953 147.732 143.204 144.626C142.456 141.519 139.407 139.553 136.396 140.234C133.385 140.915 131.551 143.986 132.3 147.092C133.048 150.199 136.097 152.165 139.108 151.484Z" fill="#FB4C47"/>
<path d="M136.426 140.233C135.436 140.458 134.574 140.942 133.889 141.601C135.747 142.203 137.277 143.767 137.778 145.843C138.278 147.919 137.62 149.978 136.23 151.316C137.145 151.612 138.139 151.677 139.129 151.453C142.131 150.773 143.96 147.711 143.213 144.613C142.467 141.515 139.428 139.554 136.426 140.233Z" fill="#C63F3B"/>
<path d="M92.8753 133.317C93.2517 134.885 92.3275 136.436 90.8107 136.78L84.5653 138.199C81.3859 138.922 78.4258 140.389 75.9427 142.515C75.2024 143.149 74.2835 143.591 73.239 143.753C70.4713 144.184 67.7146 142.396 66.865 139.62C65.8676 136.36 67.7402 133.039 70.8931 132.323C71.7472 132.129 72.604 132.147 73.411 132.343C76.6499 133.129 79.9914 133.25 83.2033 132.52L89.4478 131.101C90.9642 130.757 92.4989 131.749 92.8753 133.317Z" fill="#C63F3B"/>
<path d="M108.083 109.203C109.574 108.864 110.483 107.339 110.113 105.797L108.589 99.4462C107.814 96.2131 107.764 92.8562 108.479 89.6497C108.693 88.6937 108.666 87.6574 108.348 86.6279C107.505 83.9001 104.79 82.1505 102.07 82.5824C98.8774 83.0894 96.8839 86.2575 97.6531 89.4636C97.8615 90.3321 98.2503 91.1105 98.7682 91.7655C100.847 94.3947 102.406 97.4085 103.19 100.675L104.713 107.025C105.083 108.567 106.592 109.542 108.083 109.203Z" fill="#FB4C47"/>
<path d="M108.379 86.6252C107.54 83.9021 104.834 82.1562 102.124 82.5882C100.991 82.7685 100.012 83.2864 99.2521 84.0214C100.976 84.5857 102.423 85.9903 102.997 87.8524C103.314 88.8801 103.34 89.9148 103.127 90.8693C102.413 94.0708 102.461 97.4223 103.233 100.65L104.75 106.99C105.118 108.529 106.622 109.503 108.108 109.164C109.594 108.825 110.5 107.302 110.132 105.763L108.615 99.4227C107.843 96.1951 107.795 92.8437 108.509 89.6421C108.722 88.6876 108.696 87.653 108.379 86.6252Z" fill="#C63F3B"/>
<path d="M152.12 113.86C151.268 114.038 150.506 114.405 149.865 114.911C149.751 115 149.636 115.087 149.521 115.175C151.493 115.834 153.072 117.575 153.425 119.844C153.727 121.784 153.014 123.678 151.668 124.916C151.777 124.944 151.887 124.971 151.996 125.001C152.936 125.261 153.954 125.278 154.964 124.994C157.64 124.241 159.344 121.519 158.905 118.701C158.39 115.391 155.266 113.204 152.12 113.86Z" fill="#C63F3B"/>
<g opacity="0.63">
<path d="M163.245 183.063C163.601 183.8 164.469 184.12 165.184 183.779L168.126 182.373C169.624 181.658 171.275 181.305 172.948 181.362C173.447 181.379 173.956 181.264 174.424 181C175.663 180.299 176.183 178.726 175.625 177.364C174.97 175.766 173.154 175.045 171.668 175.755C171.266 175.947 170.931 176.224 170.673 176.555C169.639 177.884 168.348 178.983 166.835 179.706L163.893 181.111C163.179 181.452 162.888 182.326 163.245 183.063Z" fill="#FFC700"/>
<path d="M147.869 196.243C147.247 196.014 146.574 196.335 146.366 196.96L145.51 199.536C145.074 200.848 144.344 202.033 143.367 202.987C143.076 203.272 142.855 203.64 142.742 204.075C142.444 205.225 143.049 206.471 144.142 206.955C145.425 207.523 146.861 206.88 147.293 205.58C147.41 205.227 147.441 204.865 147.398 204.515C147.222 203.11 147.322 201.692 147.762 200.367L148.618 197.792C148.826 197.166 148.491 196.473 147.869 196.243Z" fill="#D09700"/>
<path d="M156.2 173.11C156.851 173.35 157.555 173.014 157.772 172.36L158.669 169.664C159.125 168.291 159.888 167.051 160.91 166.053C161.215 165.755 161.446 165.369 161.564 164.915C161.877 163.711 161.243 162.408 160.1 161.901C158.757 161.307 157.254 161.979 156.802 163.34C156.679 163.709 156.647 164.088 156.693 164.455C156.877 165.924 156.772 167.408 156.311 168.794L155.415 171.49C155.198 172.144 155.549 172.87 156.2 173.11Z" fill="#D09700"/>
<path d="M156.749 192.875C156.045 193.212 155.758 194.074 156.11 194.801L157.556 197.794C158.293 199.317 158.682 200.984 158.674 202.662C158.671 203.162 158.797 203.676 159.067 204.153C159.782 205.417 161.322 205.983 162.628 205.462C164.16 204.85 164.808 203.047 164.077 201.536C163.88 201.127 163.602 200.783 163.273 200.515C161.954 199.439 160.852 198.113 160.108 196.574L158.661 193.582C158.31 192.855 157.454 192.539 156.749 192.875Z" fill="#FFC700"/>
<path d="M163.281 200.502C161.965 199.428 160.865 198.105 160.123 196.568L158.68 193.581C158.329 192.855 157.475 192.54 156.772 192.876C156.069 193.212 155.783 194.073 156.134 194.799L157.577 197.786C158.319 199.322 159.419 200.646 160.735 201.72C161.062 201.988 161.34 202.331 161.537 202.74C162.006 203.711 161.904 204.804 161.364 205.622C161.789 205.662 162.224 205.606 162.636 205.441C164.166 204.83 164.812 203.03 164.083 201.522C163.886 201.113 163.609 200.77 163.281 200.502Z" fill="#D09700"/>
<path d="M140.086 183.071C142.405 181.964 143.347 179.13 142.191 176.741C141.034 174.352 138.217 173.312 135.898 174.418C133.579 175.525 132.637 178.359 133.794 180.748C134.95 183.137 137.768 184.177 140.086 183.071Z" fill="#D09700"/>
<path d="M135.934 174.415C135.487 174.629 135.092 174.907 134.753 175.233C136.707 174.987 138.713 176.032 139.642 177.952C140.571 179.873 140.14 182.082 138.726 183.443C139.194 183.384 139.659 183.252 140.106 183.038C142.417 181.935 143.355 179.111 142.203 176.73C141.051 174.349 138.244 173.312 135.934 174.415Z" fill="#FFC700"/>
<path d="M159.205 197.843C166.776 194.23 169.852 184.977 166.076 177.175C162.299 169.374 153.1 165.978 145.529 169.591C137.957 173.204 134.881 182.458 138.658 190.259C142.434 198.061 151.633 201.456 159.205 197.843Z" fill="#FFC700"/>
<path d="M145.695 169.578C145.264 169.784 144.848 170.009 144.446 170.251C151.7 167.605 160.036 171.026 163.577 178.346C167.118 185.667 164.6 194.271 157.989 198.247C158.429 198.086 158.866 197.904 159.297 197.698C166.83 194.101 169.891 184.89 166.135 177.125C162.379 169.36 153.227 165.981 145.695 169.578Z" fill="#D09700"/>
<path d="M154.78 180.045C155.34 179.778 155.567 179.094 155.288 178.517C155.008 177.94 154.328 177.689 153.768 177.956C153.208 178.223 152.981 178.907 153.26 179.484C153.539 180.061 154.22 180.312 154.78 180.045Z" fill="white"/>
<path d="M150.943 193.488C151.985 192.991 152.408 191.718 151.888 190.645C151.369 189.572 150.104 189.105 149.063 189.602C148.022 190.099 147.598 191.372 148.118 192.445C148.637 193.517 149.902 193.984 150.943 193.488Z" fill="white"/>
<path d="M145.839 183.596C147.433 182.836 148.08 180.887 147.285 179.245C146.49 177.602 144.553 176.887 142.959 177.648C141.365 178.409 140.718 180.357 141.513 181.999C142.308 183.642 144.245 184.357 145.839 183.596Z" fill="white"/>
<path d="M168.077 192.139C169.497 191.461 170.074 189.726 169.366 188.263C168.658 186.8 166.933 186.164 165.513 186.841C164.093 187.519 163.516 189.254 164.225 190.717C164.933 192.179 166.658 192.816 168.077 192.139Z" fill="#FFC700"/>
<path d="M165.528 186.84C165.061 187.063 164.686 187.402 164.417 187.807C165.405 187.898 166.334 188.505 166.807 189.483C167.28 190.461 167.177 191.56 166.632 192.383C167.118 192.428 167.619 192.349 168.086 192.126C169.502 191.45 170.078 189.718 169.371 188.259C168.665 186.8 166.944 186.164 165.528 186.84Z" fill="#D09700"/>
<path d="M143.104 188.186C143.46 188.922 143.17 189.796 142.455 190.137L139.513 191.543C138.015 192.258 136.707 193.319 135.706 194.654C135.408 195.052 135 195.374 134.5 195.572C133.174 196.097 131.614 195.518 130.893 194.234C130.046 192.727 130.615 190.867 132.1 190.158C132.503 189.966 132.929 189.878 133.35 189.885C135.041 189.913 136.71 189.598 138.224 188.875L141.165 187.47C141.88 187.128 142.748 187.449 143.104 188.186Z" fill="#D09700"/>
<path d="M147.986 174.559C148.69 174.223 148.977 173.361 148.626 172.634L147.179 169.641C146.442 168.118 146.053 166.451 146.061 164.773C146.064 164.272 145.938 163.759 145.668 163.282C144.953 162.018 143.413 161.452 142.107 161.973C140.575 162.585 139.927 164.388 140.658 165.899C140.856 166.308 141.133 166.652 141.462 166.92C142.781 167.996 143.883 169.322 144.627 170.861L146.074 173.853C146.425 174.58 147.281 174.896 147.986 174.559Z" fill="#FFC700"/>
<path d="M145.682 163.281C144.969 162.019 143.432 161.454 142.129 161.974C141.585 162.192 141.154 162.56 140.855 163.012C141.775 163.099 142.648 163.635 143.136 164.498C143.405 164.975 143.53 165.487 143.528 165.987C143.52 167.662 143.908 169.326 144.642 170.847L146.086 173.835C146.436 174.56 147.29 174.876 147.993 174.54C148.697 174.203 148.982 173.343 148.632 172.617L147.189 169.63C146.454 168.109 146.066 166.445 146.074 164.769C146.077 164.27 145.951 163.757 145.682 163.281Z" fill="#D09700"/>
</g>
<path d="M187.828 155C187 154.661 186.032 155.077 185.665 155.929L184.153 159.438C183.384 161.224 182.226 162.826 180.758 164.1C180.32 164.48 179.968 164.978 179.756 165.571C179.197 167.141 179.87 168.877 181.313 169.583C183.008 170.413 185.069 169.584 185.832 167.813C186.039 167.333 186.129 166.835 186.113 166.353C186.052 164.415 186.372 162.47 187.149 160.665L188.661 157.157C189.028 156.305 188.655 155.339 187.828 155Z" fill="#1DB776"/>
<path d="M186.378 130.012C187.085 129.711 187.437 128.897 187.164 128.196L186.04 125.306C185.467 123.835 185.242 122.237 185.398 120.639C185.445 120.162 185.369 119.67 185.153 119.208C184.578 117.984 183.149 117.403 181.849 117.864C180.323 118.405 179.541 120.104 180.109 121.563C180.262 121.958 180.499 122.293 180.791 122.558C181.962 123.619 182.903 124.912 183.481 126.398L184.605 129.287C184.878 129.989 185.672 130.313 186.378 130.012Z" fill="#128E5A"/>
<path d="M197.323 156.213C196.584 156.528 196.216 157.379 196.501 158.113L197.678 161.137C198.276 162.677 198.513 164.349 198.349 166.021C198.3 166.52 198.379 167.035 198.606 167.518C199.207 168.798 200.702 169.407 202.063 168.924C203.66 168.358 204.478 166.58 203.884 165.054C203.723 164.64 203.476 164.289 203.17 164.013C201.945 162.903 200.96 161.55 200.355 159.994L199.179 156.971C198.893 156.237 198.062 155.897 197.323 156.213Z" fill="#128E5A"/>
<path d="M181.412 139.549C181.787 138.68 181.406 137.696 180.562 137.35L177.087 135.926C175.318 135.201 173.75 134.067 172.524 132.6C172.159 132.162 171.671 131.818 171.082 131.623C169.523 131.106 167.748 131.871 166.979 133.391C166.077 135.175 166.83 137.273 168.584 137.992C169.059 138.187 169.557 138.26 170.044 138.225C171.998 138.085 173.945 138.339 175.732 139.071L179.207 140.495C180.05 140.841 181.038 140.417 181.412 139.549Z" fill="#1DB776"/>
<path d="M170.054 138.213C172.012 138.071 173.962 138.325 175.752 139.06L179.231 140.489C180.076 140.836 181.066 140.41 181.441 139.537C181.817 138.664 181.436 137.675 180.591 137.328L177.111 135.899C175.321 135.164 173.371 134.91 171.414 135.052C170.926 135.087 170.428 135.014 169.952 134.819C168.82 134.354 168.106 133.314 167.982 132.153C167.575 132.467 167.231 132.874 166.987 133.357C166.082 135.151 166.835 137.258 168.592 137.98C169.068 138.175 169.567 138.248 170.054 138.213Z" fill="#128E5A"/>
<path d="M203.51 135.481C202.298 138.283 203.535 141.462 206.271 142.581C209.008 143.699 212.209 142.334 213.42 139.531C214.632 136.728 213.395 133.55 210.659 132.431C207.922 131.313 204.721 132.678 203.51 135.481Z" fill="#128E5A"/>
<path d="M213.475 139.512C213.711 138.967 213.853 138.408 213.911 137.853C212.381 139.643 209.861 140.362 207.644 139.455C205.428 138.549 204.192 136.295 204.436 133.978C204.069 134.407 203.758 134.897 203.523 135.442C202.306 138.26 203.547 141.455 206.295 142.579C209.043 143.703 212.258 142.33 213.475 139.512Z" fill="#1DB776"/>
<path d="M176.109 137.582C172.153 146.734 176.19 157.113 185.126 160.765C194.062 164.417 204.513 159.959 208.469 150.808C212.425 141.656 208.388 131.277 199.452 127.625C190.515 123.972 180.065 128.431 176.109 137.582Z" fill="#1DB776"/>
<path d="M208.711 150.708C208.939 150.18 209.139 149.648 209.315 149.113C204.881 157.288 195.054 161.087 186.582 157.62C178.11 154.154 174.021 144.659 176.917 135.855C176.648 136.351 176.397 136.863 176.169 137.391C172.187 146.616 176.244 157.075 185.23 160.752C194.216 164.43 204.729 159.933 208.711 150.708Z" fill="#128E5A"/>
<path d="M192.019 151.348C191.216 153.207 192.036 155.315 193.851 156.057C195.666 156.799 197.789 155.893 198.592 154.034C199.396 152.175 198.576 150.067 196.761 149.325C194.946 148.583 192.823 149.489 192.019 151.348Z" fill="#128E5A"/>
<path d="M198.623 154.025C198.866 153.463 198.96 152.877 198.925 152.314C197.908 153.17 196.486 153.457 195.214 152.937C193.942 152.417 193.158 151.228 193.075 149.922C192.636 150.292 192.272 150.767 192.029 151.329C191.223 153.195 192.045 155.311 193.866 156.056C195.687 156.8 197.817 155.891 198.623 154.025Z" fill="white"/>
<path d="M186.126 134.74C185.582 135.999 186.137 137.426 187.366 137.928C188.595 138.431 190.032 137.818 190.576 136.559C191.12 135.301 190.564 133.873 189.336 133.371C188.107 132.869 186.67 133.482 186.126 134.74Z" fill="white"/>
<path d="M172.422 148.994C171.681 150.71 172.438 152.656 174.113 153.341C175.789 154.026 177.749 153.19 178.491 151.474C179.233 149.758 178.476 147.812 176.8 147.127C175.124 146.442 173.164 147.278 172.422 148.994Z" fill="#1DB776"/>
<path d="M178.516 151.467C178.761 150.898 178.842 150.305 178.781 149.741C177.852 150.457 176.599 150.683 175.472 150.222C174.346 149.762 173.635 148.733 173.511 147.586C173.054 147.939 172.674 148.41 172.429 148.978C171.685 150.7 172.444 152.653 174.125 153.341C175.805 154.028 177.771 153.189 178.516 151.467Z" fill="#128E5A"/>
<path d="M196.752 133.389C195.925 133.05 195.552 132.084 195.919 131.232L197.43 127.723C198.2 125.937 198.563 124.009 198.469 122.094C198.441 121.523 198.559 120.929 198.845 120.367C199.603 118.878 201.345 118.133 202.873 118.645C204.666 119.245 205.502 121.261 204.738 123.033C204.532 123.513 204.23 123.923 203.866 124.25C202.404 125.563 201.203 127.147 200.426 128.952L198.914 132.46C198.547 133.312 197.579 133.728 196.752 133.389Z" fill="#128E5A"/>
<path d="M203.166 148.841C202.792 149.709 203.173 150.694 204.017 151.039L207.492 152.464C209.261 153.189 210.829 154.322 212.054 155.79C212.42 156.227 212.908 156.571 213.497 156.766C215.056 157.283 216.831 156.518 217.6 154.999C218.502 153.215 217.749 151.116 215.995 150.397C215.52 150.203 215.022 150.13 214.535 150.165C212.581 150.305 210.634 150.051 208.847 149.318L205.372 147.894C204.528 147.548 203.541 147.972 203.166 148.841Z" fill="#1DB776"/>
<path d="M213.516 156.766C215.078 157.284 216.856 156.515 217.627 154.987C217.949 154.349 218.06 153.672 217.991 153.03C217.112 153.711 215.943 153.959 214.875 153.604C214.286 153.409 213.797 153.063 213.431 152.624C212.204 151.15 210.634 150.012 208.863 149.284L205.383 147.855C204.538 147.508 203.548 147.934 203.173 148.807C202.797 149.68 203.178 150.669 204.023 151.016L207.503 152.445C209.275 153.173 210.845 154.311 212.072 155.785C212.438 156.224 212.926 156.57 213.516 156.766Z" fill="#128E5A"/>
<path d="M185.951 167.82C186.157 167.338 186.244 166.837 186.225 166.351C186.221 166.265 186.22 166.178 186.218 166.092C185.239 166.85 183.885 167.053 182.702 166.471C181.689 165.974 181.043 164.988 180.92 163.907C180.87 163.952 180.82 163.997 180.768 164.041C180.327 164.421 179.973 164.92 179.763 165.516C179.207 167.095 179.904 168.848 181.375 169.571C183.103 170.42 185.19 169.6 185.951 167.82Z" fill="#128E5A"/>
<defs>
<linearGradient id="paint0_linear_1121_90" x1="3.97605" y1="184.004" x2="13.6629" y2="238.665" gradientUnits="userSpaceOnUse">
<stop stop-color="#FFD8D8"/>
<stop offset="1" stop-color="#FFF8F8"/>
</linearGradient>
<linearGradient id="paint1_linear_1121_90" x1="267.405" y1="96.834" x2="117.386" y2="-19.1992" gradientUnits="userSpaceOnUse">
<stop stop-color="#FFF8F8"/>
<stop offset="1" stop-color="#FFCFCF"/>
</linearGradient>
<linearGradient id="paint2_linear_1121_90" x1="264.933" y1="71.4717" x2="209.118" y2="41.061" gradientUnits="userSpaceOnUse">
<stop stop-color="#FFD7D7"/>
<stop offset="1" stop-color="#FFF9F9"/>
</linearGradient>
<linearGradient id="paint3_linear_1121_90" x1="234.774" y1="234.772" x2="13.1846" y2="76.552" gradientUnits="userSpaceOnUse">
<stop stop-color="#FFCFCF"/>
<stop offset="1" stop-color="#FFF8F8"/>
</linearGradient>
</defs>
</svg>
